<svg width="46" height="40" viewBox="0 0 46 40" fill="none" xmlns="http://www.w3.org/2000/svg">
<path fill-rule="evenodd" clip-rule="evenodd" d="M8.88755 4.00049C8.88755 1.79135 10.6784 0.000488281 12.8876 0.000488281H29.2656C31.4748 0.000488281 33.2656 1.79135 33.2656 4.00049V28.2731C33.2656 29.6044 33.7159 30.5161 34.313 31.0957C34.9219 31.6867 35.7461 31.9934 36.5887 31.9934C37.4312 31.9934 38.2554 31.6867 38.8643 31.0957C39.4615 30.5161 39.9117 29.6044 39.9117 28.2731V17.7836C39.9117 17.2314 40.3594 16.7836 40.9117 16.7836C41.464 16.7836 41.9117 17.2314 41.9117 17.7836V28.2731C41.9117 30.0887 41.2812 31.5371 40.2572 32.5309C39.2449 33.5134 37.9076 33.9934 36.5887 33.9934C35.4148 33.9934 34.2265 33.6132 33.2656 32.837V35.9996C33.2656 37.1042 34.1611 37.9996 35.2656 37.9996H43.9632C44.5155 37.9996 44.9632 38.4473 44.9632 38.9996C44.9632 39.5519 44.5155 39.9996 43.9632 39.9996H35.2656H7.85318C7.3009 39.9996 6.85318 39.5519 6.85318 38.9996C6.85318 38.4473 7.3009 37.9996 7.85318 37.9996H31.8007C31.4604 37.4112 31.2656 36.7282 31.2656 35.9996V28.2731V4.00049C31.2656 2.89592 30.3702 2.00049 29.2656 2.00049H12.8876C11.783 2.00049 10.8876 2.89592 10.8876 4.00049V10.5048C10.8876 11.0571 10.4398 11.5048 9.88755 11.5048C9.33527 11.5048 8.88755 11.0571 8.88755 10.5048V4.00049ZM35.843 13.5878C35.843 13.0355 36.2907 12.5878 36.843 12.5878H39.9117V9.175L36.5242 4.18456C36.214 3.7276 36.333 3.10572 36.7899 2.79554C37.2469 2.48536 37.8688 2.60434 38.1789 3.06129L41.7391 8.30603L41.9117 8.56032V8.86766V12.5878H44.9805C45.5327 12.5878 45.9805 13.0355 45.9805 13.5878C45.9805 14.1401 45.5327 14.5878 44.9805 14.5878H40.9296L40.9117 14.5879L40.8938 14.5878H36.843C36.2907 14.5878 35.843 14.1401 35.843 13.5878ZM26.1969 10.3431H15.9563L15.9563 14.7347L26.1969 14.7347L26.1969 10.3431ZM15.9563 8.34314C14.8517 8.34314 13.9563 9.23857 13.9563 10.3431V14.7347C13.9563 15.8393 14.8517 16.7347 15.9563 16.7347H26.1969C27.3014 16.7347 28.1969 15.8393 28.1969 14.7347V10.3431C28.1969 9.23857 27.3014 8.34314 26.1969 8.34314H15.9563ZM10.1227 15.8755L9.82285 13.6206L8.36407 15.3661C7.80944 16.0297 7.1975 16.7068 6.55655 17.416C6.33501 17.6611 6.11 17.9101 5.8827 18.1637C5.00974 19.1375 4.11695 20.1643 3.3422 21.223C1.81892 23.3046 0.592885 25.7194 1.09151 28.2976C1.82083 32.0686 5.00397 33.9466 8.02537 34.0132C11.0401 34.0797 14.198 32.3279 14.6897 28.6298C14.826 27.6043 14.5781 26.6351 14.2005 25.7243C13.8684 24.9232 13.3995 24.0864 12.9257 23.241L12.9248 23.2394C12.8682 23.1384 12.8116 23.0373 12.7551 22.9361C11.6737 20.9997 10.5112 18.7981 10.1227 15.8755ZM3.05512 27.9178C2.72334 26.2023 3.50401 24.3885 4.95619 22.4041C5.66917 21.4298 6.50631 20.4643 7.37193 19.4986C7.58545 19.2604 7.80169 19.0212 8.01808 18.7818L8.01861 18.7812C8.19429 18.5868 8.37006 18.3923 8.54455 18.1982C9.15094 20.521 10.1502 22.3736 11.0089 23.9112L11.1755 24.2091C11.6618 25.0778 12.0691 25.8054 12.3529 26.4901C12.663 27.2383 12.7784 27.8304 12.7071 28.3662C12.3846 30.7922 10.3524 32.064 8.06945 32.0137C5.79313 31.9635 3.57085 30.5844 3.05512 27.9178Z" fill="url(#paint0_linear_74_46)"/>
<defs>
<linearGradient id="paint0_linear_74_46" x1="7.3487" y1="-3.00082" x2="41.1032" y2="44.8673" gradientUnits="userSpaceOnUse">
<stop stop-color="#8ADFF1"/>
<stop offset="1" stop-color="#2E84EA"/>
</linearGradient>
</defs>
</svg>
