<svg width="40" height="40" viewBox="0 0 40 40" fill="none" xmlns="http://www.w3.org/2000/svg">
<path fill-rule="evenodd" clip-rule="evenodd" d="M2.08394 4.00049C2.08394 1.79135 3.8748 0.000488281 6.08394 0.000488281H22.9857C25.1949 0.000488281 26.9857 1.79135 26.9857 4.00049V28.2731C26.9857 29.597 27.4433 30.5063 28.0564 31.0877C28.683 31.6819 29.5352 31.9934 30.41 31.9934C31.2847 31.9934 32.1369 31.6819 32.7635 31.0877C33.3766 30.5063 33.8342 29.597 33.8342 28.2731V17.7836C33.8342 17.2314 34.2819 16.7836 34.8342 16.7836C35.3864 16.7836 35.8342 17.2314 35.8342 17.7836V28.2731C35.8342 30.0961 35.1857 31.5469 34.1397 32.5389C33.1072 33.5181 31.7473 33.9934 30.41 33.9934C29.2007 33.9934 27.9731 33.6048 26.9857 32.8066V35.9996C26.9857 37.1041 27.8812 37.9996 28.9857 37.9996H37.9571C38.5094 37.9996 38.9571 38.4473 38.9571 38.9996C38.9571 39.5519 38.5094 39.9996 37.9571 39.9996H28.9857H1.00195C0.449668 39.9996 0.00195312 39.5519 0.00195312 38.9996C0.00195312 38.4473 0.449668 37.9996 1.00195 37.9996H25.5209C25.1805 37.4112 24.9857 36.7281 24.9857 35.9996V28.2731V4.00049C24.9857 2.89592 24.0903 2.00049 22.9857 2.00049H6.08394C4.97937 2.00049 4.08394 2.89592 4.08394 4.00049V35.6157C4.08394 36.168 3.63622 36.6157 3.08394 36.6157C2.53165 36.6157 2.08394 36.168 2.08394 35.6157V4.00049ZM29.6702 13.5878C29.6702 13.0355 30.1179 12.5878 30.6702 12.5878H33.8341V9.1809L30.3694 4.19344C30.0543 3.73986 30.1666 3.11673 30.6201 2.80163C31.0737 2.48653 31.6969 2.59879 32.0119 3.05237L35.6554 8.29711L35.8341 8.55438V8.86764V12.5878H38.9981C39.5504 12.5878 39.9981 13.0355 39.9981 13.5878C39.9981 14.1401 39.5504 14.5878 38.9981 14.5878H34.8492L34.8341 14.5879L34.8191 14.5878H30.6702C30.1179 14.5878 29.6702 14.1401 29.6702 13.5878ZM20.043 10.0037H9.01367V21.0106H20.043V10.0037ZM9.01367 8.00369C7.9091 8.00369 7.01367 8.89912 7.01367 10.0037V21.0106C7.01367 22.1151 7.9091 23.0106 9.01367 23.0106H20.043C21.1475 23.0106 22.043 22.1151 22.043 21.0106V10.0037C22.043 8.89912 21.1475 8.00369 20.043 8.00369H9.01367ZM13.1835 13.3011C12.8569 13.1144 12.4672 13.0211 12.0145 13.0211C11.6739 13.0211 11.3612 13.0887 11.0765 13.2241C10.7965 13.3547 10.5725 13.5414 10.4045 13.7841C10.2412 14.0267 10.1595 14.3161 10.1595 14.6521C10.1595 14.9601 10.2342 15.2284 10.3835 15.4571C10.5375 15.6857 10.7405 15.8631 10.9925 15.9891C11.2492 16.1151 11.5339 16.1781 11.8465 16.1781C12.0845 16.1781 12.2992 16.1477 12.4905 16.0871C12.6819 16.0217 12.8499 15.9284 12.9945 15.8071C13.0181 15.7865 13.0408 15.7652 13.0627 15.7432C13.0463 16.1958 12.9209 16.5414 12.6865 16.7801C12.4392 17.0367 12.1055 17.1651 11.6855 17.1651C11.5175 17.1651 11.3565 17.1487 11.2025 17.1161C11.0485 17.0787 10.9039 17.0134 10.7685 16.9201L10.3485 17.7531C10.5212 17.8651 10.7265 17.9491 10.9645 18.0051C11.2025 18.0611 11.4499 18.0891 11.7065 18.0891C12.2012 18.0891 12.6352 17.9864 13.0085 17.7811C13.3819 17.5757 13.6735 17.2771 13.8835 16.8851C14.0982 16.4931 14.2055 16.0147 14.2055 15.4501C14.2055 14.9181 14.1169 14.4747 13.9395 14.1201C13.7622 13.7607 13.5102 13.4877 13.1835 13.3011ZM11.6575 13.9591C11.7789 13.8984 11.9212 13.8681 12.0845 13.8681C12.2665 13.8681 12.4205 13.9007 12.5465 13.9661C12.6725 14.0267 12.7682 14.1131 12.8335 14.2251C12.9035 14.3324 12.9385 14.4561 12.9385 14.5961C12.9385 14.7361 12.9035 14.8621 12.8335 14.9741C12.7635 15.0861 12.6632 15.1747 12.5325 15.2401C12.4065 15.3007 12.2619 15.3311 12.0985 15.3311C11.8465 15.3311 11.6435 15.2657 11.4895 15.1351C11.3402 14.9997 11.2655 14.8201 11.2655 14.5961C11.2655 14.4467 11.3005 14.3184 11.3705 14.2111C11.4405 14.0991 11.5362 14.0151 11.6575 13.9591ZM15.4006 17.9561C15.7366 18.0447 16.0749 18.0891 16.4156 18.0891C16.8822 18.0891 17.2649 18.0144 17.5636 17.8651C17.8669 17.7111 18.0909 17.5127 18.2356 17.2701C18.3802 17.0227 18.4526 16.7544 18.4526 16.4651C18.4526 16.1757 18.3849 15.9167 18.2496 15.6881C18.1142 15.4594 17.8972 15.2797 17.5986 15.1491C17.3046 15.0137 16.9149 14.9461 16.4296 14.9461H16.0276L16.1105 14.0151H18.1516V13.1051H15.1626L14.9106 15.8631H16.1636C16.4622 15.8631 16.6932 15.8887 16.8566 15.9401C17.0246 15.9914 17.1412 16.0661 17.2066 16.1641C17.2719 16.2621 17.3046 16.3741 17.3046 16.5001C17.3046 16.7007 17.2229 16.8571 17.0596 16.9691C16.8962 17.0811 16.6722 17.1371 16.3876 17.1371C16.1356 17.1371 15.8859 17.0974 15.6386 17.0181C15.3959 16.9387 15.1812 16.8314 14.9946 16.6961L14.5466 17.5641C14.7846 17.7321 15.0692 17.8627 15.4006 17.9561Z" fill="url(#paint0_linear_74_19)"/>
<defs>
<linearGradient id="paint0_linear_74_19" x1="-4.00547" y1="-2.5006" x2="37.5059" y2="44.0782" gradientUnits="userSpaceOnUse">
<stop stop-color="#4DE076"/>
<stop offset="1" stop-color="#057725"/>
</linearGradient>
</defs>
</svg>
