<svg width="40" height="40" viewBox="0 0 40 40" fill="none" xmlns="http://www.w3.org/2000/svg">
<path fill-rule="evenodd" clip-rule="evenodd" d="M2.08394 4.00049C2.08394 1.79135 3.8748 0.000488281 6.08394 0.000488281H22.9857C25.1949 0.000488281 26.9857 1.79135 26.9857 4.00049V28.2731C26.9857 29.597 27.4433 30.5063 28.0564 31.0877C28.683 31.6819 29.5352 31.9934 30.41 31.9934C31.2847 31.9934 32.1369 31.6819 32.7635 31.0877C33.3766 30.5063 33.8342 29.597 33.8342 28.2731V17.7836C33.8342 17.2314 34.2819 16.7836 34.8342 16.7836C35.3864 16.7836 35.8342 17.2314 35.8342 17.7836V28.2731C35.8342 30.0961 35.1857 31.5469 34.1397 32.5389C33.1072 33.5181 31.7473 33.9934 30.41 33.9934C29.2007 33.9934 27.9731 33.6048 26.9857 32.8066V35.9996C26.9857 37.1041 27.8812 37.9996 28.9857 37.9996H37.9571C38.5094 37.9996 38.9571 38.4473 38.9571 38.9996C38.9571 39.5519 38.5094 39.9996 37.9571 39.9996H28.9857H1.00195C0.449668 39.9996 0.00195312 39.5519 0.00195312 38.9996C0.00195312 38.4473 0.449668 37.9996 1.00195 37.9996H25.5209C25.1805 37.4112 24.9857 36.7281 24.9857 35.9996V28.2731V4.00049C24.9857 2.89592 24.0903 2.00049 22.9857 2.00049H6.08394C4.97937 2.00049 4.08394 2.89592 4.08394 4.00049V35.6157C4.08394 36.168 3.63622 36.6157 3.08394 36.6157C2.53165 36.6157 2.08394 36.168 2.08394 35.6157V4.00049ZM29.6702 13.5878C29.6702 13.0355 30.1179 12.5878 30.6702 12.5878H33.8341V9.1809L30.3694 4.19344C30.0543 3.73986 30.1666 3.11673 30.6201 2.80163C31.0737 2.48653 31.6969 2.59879 32.0119 3.05237L35.6554 8.29711L35.8341 8.55438V8.86764V12.5878H38.9981C39.5504 12.5878 39.9981 13.0355 39.9981 13.5878C39.9981 14.1401 39.5504 14.5878 38.9981 14.5878H34.8492L34.8341 14.5879L34.8191 14.5878H30.6702C30.1179 14.5878 29.6702 14.1401 29.6702 13.5878ZM20.043 10.0037H9.01367V21.0106H20.043V10.0037ZM9.01367 8.00369C7.9091 8.00369 7.01367 8.89912 7.01367 10.0037V21.0106C7.01367 22.1151 7.9091 23.0106 9.01367 23.0106H20.043C21.1475 23.0106 22.043 22.1151 22.043 21.0106V10.0037C22.043 8.89912 21.1475 8.00369 20.043 8.00369H9.01367ZM13.1835 13.3011C12.8569 13.1144 12.4672 13.0211 12.0145 13.0211C11.6739 13.0211 11.3612 13.0887 11.0765 13.2241C10.7965 13.3547 10.5725 13.5414 10.4045 13.7841C10.2412 14.0267 10.1595 14.3161 10.1595 14.6521C10.1595 14.9601 10.2342 15.2284 10.3835 15.4571C10.5375 15.6857 10.7405 15.8631 10.9925 15.9891C11.2492 16.1151 11.5339 16.1781 11.8465 16.1781C12.0845 16.1781 12.2992 16.1477 12.4905 16.0871C12.6819 16.0217 12.8499 15.9284 12.9945 15.8071C13.0181 15.7865 13.0408 15.7652 13.0627 15.7432C13.0463 16.1958 12.9209 16.5414 12.6865 16.7801C12.4392 17.0367 12.1055 17.1651 11.6855 17.1651C11.5175 17.1651 11.3565 17.1487 11.2025 17.1161C11.0485 17.0787 10.9039 17.0134 10.7685 16.9201L10.3485 17.7531C10.5212 17.8651 10.7265 17.9491 10.9645 18.0051C11.2025 18.0611 11.4499 18.0891 11.7065 18.0891C12.2012 18.0891 12.6352 17.9864 13.0085 17.7811C13.3819 17.5757 13.6735 17.2771 13.8835 16.8851C14.0982 16.4931 14.2055 16.0147 14.2055 15.4501C14.2055 14.9181 14.1169 14.4747 13.9395 14.1201C13.7622 13.7607 13.5102 13.4877 13.1835 13.3011ZM11.6575 13.9591C11.7789 13.8984 11.9212 13.8681 12.0845 13.8681C12.2665 13.8681 12.4205 13.9007 12.5465 13.9661C12.6725 14.0267 12.7682 14.1131 12.8335 14.2251C12.9035 14.3324 12.9385 14.4561 12.9385 14.5961C12.9385 14.7361 12.9035 14.8621 12.8335 14.9741C12.7635 15.0861 12.6632 15.1747 12.5325 15.2401C12.4065 15.3007 12.2619 15.3311 12.0985 15.3311C11.8465 15.3311 11.6435 15.2657 11.4895 15.1351C11.3402 14.9997 11.2655 14.8201 11.2655 14.5961C11.2655 14.4467 11.3005 14.3184 11.3705 14.2111C11.4405 14.0991 11.5362 14.0151 11.6575 13.9591ZM15.7016 17.9071C16.0096 18.0284 16.3689 18.0891 16.7796 18.0891C17.1949 18.0891 17.5566 18.0284 17.8646 17.9071C18.1772 17.7811 18.4199 17.6061 18.5926 17.3821C18.7652 17.1534 18.8516 16.8874 18.8516 16.5841C18.8516 16.2807 18.7652 16.0241 18.5926 15.8141C18.4693 15.6566 18.3071 15.5279 18.1059 15.4282C18.2387 15.3461 18.3495 15.2484 18.4386 15.1351C18.5972 14.9344 18.6766 14.6964 18.6766 14.4211C18.6766 14.1317 18.5949 13.8844 18.4316 13.6791C18.2729 13.4691 18.0512 13.3081 17.7666 13.1961C17.4866 13.0794 17.1576 13.0211 16.7796 13.0211C16.4109 13.0211 16.0842 13.0794 15.7996 13.1961C15.5149 13.3081 15.2932 13.4691 15.1346 13.6791C14.9759 13.8844 14.8966 14.1317 14.8966 14.4211C14.8966 14.6964 14.9736 14.9344 15.1276 15.1351C15.2192 15.2483 15.3311 15.346 15.4633 15.428C15.2636 15.5278 15.1003 15.6565 14.9736 15.8141C14.8056 16.0241 14.7216 16.2807 14.7216 16.5841C14.7216 16.8874 14.8079 17.1534 14.9806 17.3821C15.1532 17.6061 15.3936 17.7811 15.7016 17.9071ZM17.4516 17.0671C17.2882 17.1931 17.0642 17.2561 16.7796 17.2561C16.4996 17.2561 16.2779 17.1931 16.1146 17.0671C15.9512 16.9411 15.8696 16.7684 15.8696 16.5491C15.8696 16.3297 15.9512 16.1594 16.1146 16.0381C16.2779 15.9121 16.4996 15.8491 16.7796 15.8491C17.0642 15.8491 17.2882 15.9121 17.4516 16.0381C17.6196 16.1594 17.7036 16.3297 17.7036 16.5491C17.7036 16.7684 17.6196 16.9411 17.4516 17.0671ZM17.3396 14.9111C17.2042 15.0184 17.0176 15.0721 16.7796 15.0721C16.5462 15.0721 16.3619 15.0184 16.2266 14.9111C16.0912 14.8037 16.0236 14.6567 16.0236 14.4701C16.0236 14.2741 16.0936 14.1224 16.2336 14.0151C16.3736 13.9077 16.5556 13.8541 16.7796 13.8541C17.0082 13.8541 17.1926 13.9077 17.3326 14.0151C17.4772 14.1224 17.5496 14.2741 17.5496 14.4701C17.5496 14.6567 17.4796 14.8037 17.3396 14.9111Z" fill="url(#paint0_linear_74_26)"/>
<defs>
<linearGradient id="paint0_linear_74_26" x1="-4.00547" y1="-2.5006" x2="37.5059" y2="44.0782" gradientUnits="userSpaceOnUse">
<stop stop-color="#4DBDE0"/>
<stop offset="1" stop-color="#054077"/>
</linearGradient>
</defs>
</svg>
