<svg width="32" height="16" viewBox="0 0 32 16" fill="none" xmlns="http://www.w3.org/2000/svg">
<path d="M4 1.1083C9.23308 10.0048 22.2256 10.585 28 1.1083" stroke="#333437" stroke-width="1.4" stroke-linecap="round"/>
<path d="M1 8.12132L3.12132 6" stroke="#333437" stroke-width="1.6" stroke-linecap="round"/>
<path d="M1 8.12132L3.12132 6" stroke="#333437" stroke-width="1.6" stroke-linecap="round"/>
<path d="M1 8.12132L3.12132 6" stroke="#333437" stroke-width="1.6" stroke-linecap="round"/>
<path d="M24 10L25.5 12.5981" stroke="#333437" stroke-width="1.6" stroke-linecap="round"/>
<path d="M24 10L25.5 12.5981" stroke="#333437" stroke-width="1.6" stroke-linecap="round"/>
<path d="M24 10L25.5 12.5981" stroke="#333437" stroke-width="1.6" stroke-linecap="round"/>
<path d="M6.88391 12.6585L8.38391 10.0604" stroke="#333437" stroke-width="1.6" stroke-linecap="round"/>
<path d="M6.88391 12.6585L8.38391 10.0604" stroke="#333437" stroke-width="1.6" stroke-linecap="round"/>
<path d="M6.88391 12.6585L8.38391 10.0604" stroke="#333437" stroke-width="1.6" stroke-linecap="round"/>
<path d="M29 6L31.1213 8.12132" stroke="#333437" stroke-width="1.6" stroke-linecap="round"/>
<path d="M29 6L31.1213 8.12132" stroke="#333437" stroke-width="1.6" stroke-linecap="round"/>
<path d="M29 6L31.1213 8.12132" stroke="#333437" stroke-width="1.6" stroke-linecap="round"/>
<path d="M16 11V14" stroke="#333437" stroke-width="1.6" stroke-linecap="round"/>
<path d="M16 11V14" stroke="#333437" stroke-width="1.6" stroke-linecap="round"/>
<path d="M16 11V14" stroke="#333437" stroke-width="1.6" stroke-linecap="round"/>
<path d="M16 12V14.5" stroke="#333437" stroke-width="1.6" stroke-linecap="round"/>
<path d="M16 12V14.5" stroke="#333437" stroke-width="1.6" stroke-linecap="round"/>
<path d="M16 12V14.5" stroke="#333437" stroke-width="1.6" stroke-linecap="round"/>
</svg>
