<svg width="40" height="40" viewBox="0 0 40 40" fill="none" xmlns="http://www.w3.org/2000/svg">
<rect width="40" height="40" rx="10" fill="url(#paint0_linear_59_198)"/>
<path fill-rule="evenodd" clip-rule="evenodd" d="M12 9H28C30.2091 9 32 10.7909 32 13V23.5667C32 25.7758 30.2091 27.5667 28 27.5667H22.8316C22.1007 27.5667 21.3838 27.7669 20.7587 28.1457L16.2549 30.8746C16.1806 30.9196 16.1 30.953 16.0157 30.9738C15.3448 31.1389 14.736 30.4718 14.9112 29.8034C15.1294 28.9709 15.2857 28.1925 15.2857 27.9887C15.2857 27.6511 15 27.5667 14.8571 27.5667H12C9.79086 27.5667 8 25.7758 8 23.5667V13C8 10.7909 9.79086 9 12 9ZM13.1297 13.2196C12.6636 13.2196 12.2857 13.5975 12.2857 14.0636C12.2857 14.5297 12.6636 14.9075 13.1297 14.9075H26.8704C27.3365 14.9075 27.7143 14.5297 27.7143 14.0636C27.7143 13.5975 27.3365 13.2196 26.8704 13.2196H13.1297ZM12.2857 18.2833C12.2857 17.8172 12.6636 17.4394 13.1297 17.4394H26.8704C27.3365 17.4394 27.7143 17.8172 27.7143 18.2833C27.7143 18.7494 27.3365 19.1273 26.8704 19.1273H13.1297C12.6636 19.1273 12.2857 18.7494 12.2857 18.2833ZM14.8439 21.659C14.3778 21.659 14 22.0369 14 22.503C14 22.9691 14.3778 23.3469 14.8439 23.3469H25.1561C25.6222 23.3469 26 22.9691 26 22.503C26 22.0369 25.6222 21.659 25.1561 21.659H14.8439Z" fill="white"/>
<defs>
<linearGradient id="paint0_linear_59_198" x1="0.6" y1="-2.1" x2="40" y2="42.9" gradientUnits="userSpaceOnUse">
<stop stop-color="#A055FF"/>
<stop offset="1" stop-color="#476CF0" stop-opacity="0.95"/>
</linearGradient>
</defs>
</svg>
