<svg width="18" height="18" viewBox="0 0 18 18" fill="none" xmlns="http://www.w3.org/2000/svg">
<path fill-rule="evenodd" clip-rule="evenodd" d="M1.70491 0.290696C1.31439 -0.0998283 0.68122 -0.0998283 0.290696 0.290696C-0.0998283 0.68122 -0.0998283 1.31439 0.290696 1.70491L7.58582 9.00004L0.290696 16.2952C-0.0998283 16.6857 -0.0998283 17.3189 0.290696 17.7094C0.68122 18.0999 1.31439 18.0999 1.70491 17.7094L9.00004 10.4142L16.2951 17.7093C16.6856 18.0998 17.3188 18.0998 17.7093 17.7093C18.0998 17.3188 18.0998 16.6856 17.7093 16.2951L10.4142 9.00004L17.7093 1.70499C18.0998 1.31446 18.0998 0.681297 17.7093 0.290773C17.3188 -0.0997528 16.6856 -0.0997528 16.2951 0.290773L9.00004 7.58582L1.70491 0.290696Z" fill="url(#paint0_linear_79_60)"/>
<defs>
<linearGradient id="paint0_linear_79_60" x1="-0.820577" y1="-2.86654" x2="15.5471" y2="19.6389" gradientUnits="userSpaceOnUse">
<stop stop-color="#E32323"/>
<stop offset="1" stop-color="#DD6270"/>
</linearGradient>
</defs>
</svg>
