<svg width="655" height="383" viewBox="0 0 655 383" fill="none" xmlns="http://www.w3.org/2000/svg">
<path d="M238.319 78.4606C17.8332 111.456 30.2273 276.132 118.402 373.207H541.133C707.405 360.632 671.127 154.914 545.164 154.914C536.095 -37.728 278.626 -33.704 238.319 78.4606Z" fill="#C8FF9C" fill-opacity="0.38"/>
<g filter="url(#filter0_df_97_599)">
<path d="M401.496 58.3135C408.838 58.0164 412.304 50.2104 413.125 46.2698C413.125 55.9118 421.167 58.3223 425.188 58.3223C415.608 58.3223 413.175 65.0688 413.093 69.2889C413.114 69.6402 413.125 70.002 413.125 70.3747C413.097 70.0386 413.085 69.6743 413.093 69.2889C412.554 60.5021 405.474 58.3157 401.496 58.3135C401.353 58.3193 401.208 58.3223 401.062 58.3223C401.202 58.3164 401.347 58.3134 401.496 58.3135Z" fill="white"/>
</g>
<path d="M54.1328 286L37 268.8L61.1875 244.518L71.9375 243L80 251.094L78.3203 261.718L54.1328 286Z" fill="#C42E2E"/>
<path d="M523.499 114.172C510.6 114.172 513.421 122.891 516.445 127.25L541.133 159.44L550.203 156.925C568.341 154.913 563.807 132.782 552.218 134.291C561.791 118.699 551.21 113.669 538.11 114.172C537.103 103.106 524.002 104.615 523.499 114.172Z" fill="#28243E"/>
<path d="M91.6973 282.671C84.4418 281.463 84.6434 273.114 85.6511 269.09L122.936 242.432L438.851 232.373C461.357 250.312 506.771 286.292 508.383 286.694C509.995 287.097 509.055 292.898 508.383 295.748L466.563 297.76V294.742H201.537C182.895 293.904 144.4 292.127 139.563 291.724C133.517 291.221 100.767 284.18 91.6973 282.671Z" fill="#BD2A36"/>
<g filter="url(#filter1_i_97_599)">
<path d="M88.1702 247.462C88.1702 240.219 93.2087 229.019 95.7279 224.325L130.494 218.792L123.44 242.432C111.683 247.127 88.1702 254.705 88.1702 247.462Z" fill="#9BBCCF"/>
</g>
<path d="M480.167 196.158C476.54 193.743 469.251 196.158 466.059 197.667C465.556 200.014 464.749 205.01 465.556 206.217C466.563 207.726 471.602 210.744 476.64 210.241C481.679 209.738 484.702 199.176 480.167 196.158Z" fill="#E7BE9E"/>
<rect x="59.4507" y="313.855" width="477.652" height="59.3517" fill="url(#paint0_linear_97_599)"/>
<path d="M85.6511 256.013C87.2634 239.113 100.767 238.409 116.386 239.918C136.943 221.006 111.18 221.642 95.7282 224.325C92.1004 214.667 97.2397 210.912 100.263 210.241C122.432 217.886 153.671 198.673 199.522 181.571L200.529 175.536C207.382 173.523 215.477 176.374 218.668 178.051C287.192 165.175 331.531 181.068 383.428 219.295C427.263 219.295 489.237 229.858 501.329 239.918C508.188 245.623 510.398 262.049 511.406 266.073C512.212 269.292 510.063 281.162 508.887 286.695H478.656C478.656 233.882 406.101 228.852 406.101 286.695H208.087C212.118 228.852 139.059 232.373 134.525 276.635C128.075 273.818 99.2551 270.432 85.6511 269.09V256.013Z" fill="url(#paint1_linear_97_599)"/>
<g filter="url(#filter2_i_97_599)">
<path d="M491.756 254.503C481.791 245.882 466.059 241.426 465.052 241.426C471.501 236.597 487.893 240.085 495.283 242.432C509.391 246.959 499.314 261.042 491.756 254.503Z" fill="#9FD1EE"/>
</g>
<path d="M240.431 211.868L235.567 183.177C235.409 182.242 234.617 181.543 233.668 181.54C211.898 181.472 187.523 195.5 177.856 202.697C170.197 207.928 177.856 212.756 182.894 212.756L238.407 214.202C239.666 214.235 240.642 213.11 240.431 211.868Z" fill="url(#paint2_linear_97_599)"/>
<g filter="url(#filter3_df_97_599)">
<path d="M158.64 136.778C165.982 136.481 169.447 128.675 170.269 124.735C170.269 134.377 178.311 136.787 182.332 136.787C172.752 136.787 170.319 143.534 170.236 147.754C170.258 148.105 170.269 148.467 170.269 148.84C170.241 148.503 170.229 148.139 170.236 147.754C169.698 138.967 162.618 136.781 158.64 136.778C158.496 136.784 158.352 136.787 158.206 136.787C158.346 136.781 158.49 136.778 158.64 136.778Z" fill="white"/>
</g>
<path d="M407.612 153.907C410.633 149.082 408.62 146.195 406.604 144.854C406.101 139.824 403.783 131.776 404.589 127.752C405.396 123.729 426.254 124.567 433.812 125.741V138.315C433.812 143.345 427.262 148.375 422.224 151.895C418.193 154.712 420.544 157.428 422.224 158.434C415.673 158.602 405.093 157.931 407.612 153.907Z" fill="#EAAC92"/>
<path d="M530.553 153.404C532.064 156.925 531.056 158.434 531.056 158.937L538.614 162.961L544.66 158.434C537.002 158.032 533.072 146.866 532.064 141.333C538.614 139.321 535.087 132.782 530.553 134.291C530.553 133.453 529.746 130.871 526.522 127.249C523.297 123.628 518.46 125.74 516.445 127.249C510.902 153.404 529.041 149.883 530.553 153.404Z" fill="#D7957A"/>
<path d="M465.556 196.158H462.532L463.036 206.217C463.54 206.72 464.85 207.223 466.059 205.211C467.269 203.199 466.227 198.337 465.556 196.158Z" fill="white"/>
<path d="M524.506 357.111V360.632L522.995 365.662L536.095 363.65L535.591 357.111H524.506Z" fill="#E7B27D"/>
<path d="M548.187 360.129L548.691 356.105L559.776 357.614L560.784 365.662H559.272C556.585 365.997 551.009 366.668 550.203 366.668C549.397 366.668 548.523 362.309 548.187 360.129Z" fill="#E7B27D"/>
<path d="M537.102 355.099C537.102 359.123 523.498 358.62 523.498 355.602C519.3 319.388 513.018 245.852 521.483 241.426C529.948 237 550.874 239.582 560.28 241.426C557.256 270.431 553.024 334.679 560.28 359.626C557.424 360.968 551.21 362.343 549.195 357.112C546.676 350.573 535.087 296.251 537.102 280.659C539.118 265.066 529.544 314.861 537.102 355.099Z" fill="url(#paint3_linear_97_599)"/>
<path d="M393.505 207.726L390.985 240.923C390.558 246.556 416.672 245.282 429.782 243.941V205.714L462.533 206.217C464.145 206.62 463.204 199.008 462.533 195.152C450.44 197.667 435.324 196.661 429.278 193.14C428.606 181.236 426.054 157.529 421.217 157.931C416.38 158.334 410.132 155.416 407.613 153.907L399.047 173.524C392.497 189.116 396.528 193.14 393.505 207.726Z" fill="#8CD6E0"/>
<path d="M480.167 195.152L483.19 193.14L487.221 202.697C486.213 203.199 483.896 204.306 482.686 204.708C481.477 205.111 480.503 198.505 480.167 195.152Z" fill="white"/>
<path d="M412.147 132.279C407.31 133.487 406.437 141.165 406.605 144.854C398.543 126.244 401.062 119.202 410.132 114.172C419.201 109.142 434.82 114.675 439.859 116.184C444.898 117.693 441.874 129.764 431.797 127.753C423.736 126.143 422.056 130.435 422.224 132.782C422.224 135.13 421.519 139.723 418.697 139.321C415.17 138.818 418.193 130.77 412.147 132.279Z" fill="#B4B179"/>
<path d="M0.5 370.189C184.406 387.29 584.713 386.586 654.5 370.189H0.5Z" fill="#4C5860"/>
<path d="M250.094 213.255L243.82 183.284C243.574 182.107 244.433 180.978 245.632 180.889C299.743 176.835 331.552 190.682 361.171 216.608C362.578 217.84 361.637 220.125 359.768 220.035L251.955 214.842C251.046 214.799 250.28 214.146 250.094 213.255Z" fill="url(#paint4_linear_97_599)"/>
<path d="M372.343 220.301C370.73 216.679 337.073 194.649 320.446 184.086C334.554 185.696 368.144 207.894 383.428 219.295L372.343 220.301Z" fill="url(#paint5_linear_97_599)"/>
<g filter="url(#filter4_d_97_599)">
<path d="M277.619 230.863L260.488 229.857C257.465 229.354 257.968 225.331 260.992 225.331L277.619 226.337C281.649 226.84 280.642 230.863 277.619 230.863Z" fill="#292929"/>
</g>
<path d="M246.884 215.271L265.526 286.694" stroke="#BD2B35"/>
<path d="M176.848 229.354L373.35 239.414" stroke="#BD2A36"/>
<path d="M200.052 280.659C200.052 297.104 186.912 310.355 170.802 310.355C154.692 310.355 141.552 297.104 141.552 280.659C141.552 264.213 154.692 250.962 170.802 250.962C186.912 250.962 200.052 264.213 200.052 280.659Z" fill="#F1EEEE" stroke="#292929" stroke-width="7"/>
<g filter="url(#filter5_d_97_599)">
<path d="M146.617 286.191L147.121 273.617L160.725 280.155L146.617 286.191Z" fill="#292929"/>
</g>
<g filter="url(#filter6_d_97_599)">
<path d="M195.491 286.191L194.987 273.617L181.383 280.155L195.491 286.191Z" fill="#292929"/>
</g>
<g filter="url(#filter7_d_97_599)">
<path d="M155.329 261.613L166.635 256.046L167.381 271.101L155.329 261.613Z" fill="#292929"/>
</g>
<g filter="url(#filter8_d_97_599)">
<path d="M154.175 299.066L165.481 304.633L166.227 289.579L154.175 299.066Z" fill="#292929"/>
</g>
<path d="M178.089 256.516L188.892 263.003L176.607 271.766L178.089 256.516Z" fill="#292929"/>
<g filter="url(#filter9_d_97_599)">
<path d="M178.089 305.089L188.892 298.602L176.607 289.839L178.089 305.089Z" fill="#292929"/>
</g>
<g filter="url(#filter10_d_97_599)">
<path d="M178.089 256.516L188.892 263.003L176.607 271.766L178.089 256.516Z" fill="#292929"/>
</g>
<ellipse cx="171.306" cy="279.653" rx="3.02311" ry="3.01788" fill="#292929"/>
<ellipse cx="171.306" cy="273.617" rx="1.0077" ry="1.00596" fill="#292929"/>
<ellipse cx="177.352" cy="276.635" rx="1.0077" ry="1.00596" fill="#292929"/>
<ellipse cx="177.352" cy="283.676" rx="1.0077" ry="1.00596" fill="#292929"/>
<path d="M197.014 280.658C197.014 294.828 185.507 306.319 171.306 306.319C157.105 306.319 145.598 294.828 145.598 280.658C145.598 266.489 157.105 254.998 171.306 254.998C185.507 254.998 197.014 266.489 197.014 280.658Z" stroke="#F1EEEE" stroke-width="3"/>
<ellipse cx="171.306" cy="286.694" rx="1.0077" ry="1.00596" fill="#292929"/>
<ellipse cx="165.26" cy="276.635" rx="1.0077" ry="1.00596" fill="#292929"/>
<ellipse cx="165.26" cy="283.676" rx="1.0077" ry="1.00596" fill="#292929"/>
<path d="M470.117 280.659C470.117 297.104 456.977 310.355 440.867 310.355C424.757 310.355 411.616 297.104 411.616 280.659C411.616 264.213 424.757 250.962 440.867 250.962C456.977 250.962 470.117 264.213 470.117 280.659Z" fill="#F1EEEE" stroke="#292929" stroke-width="7"/>
<g filter="url(#filter11_d_97_599)">
<path d="M416.682 286.191L417.186 273.617L430.79 280.155L416.682 286.191Z" fill="#292929"/>
</g>
<g filter="url(#filter12_d_97_599)">
<path d="M465.555 286.191L465.052 273.617L451.448 280.155L465.555 286.191Z" fill="#292929"/>
</g>
<g filter="url(#filter13_d_97_599)">
<path d="M425.394 261.613L436.7 256.046L437.446 271.101L425.394 261.613Z" fill="#292929"/>
</g>
<g filter="url(#filter14_d_97_599)">
<path d="M424.24 299.066L435.545 304.633L436.292 289.579L424.24 299.066Z" fill="#292929"/>
</g>
<g filter="url(#filter15_d_97_599)">
<path d="M448.154 305.089L458.956 298.602L446.672 289.839L448.154 305.089Z" fill="#292929"/>
</g>
<g filter="url(#filter16_d_97_599)">
<path d="M448.154 256.516L458.956 263.003L446.672 271.766L448.154 256.516Z" fill="#292929"/>
</g>
<ellipse cx="441.371" cy="279.653" rx="3.02311" ry="3.01788" fill="#292929"/>
<ellipse cx="441.371" cy="273.617" rx="1.0077" ry="1.00596" fill="#292929"/>
<ellipse cx="447.417" cy="276.635" rx="1.0077" ry="1.00596" fill="#292929"/>
<ellipse cx="447.417" cy="283.676" rx="1.0077" ry="1.00596" fill="#292929"/>
<ellipse cx="441.371" cy="286.694" rx="1.0077" ry="1.00596" fill="#292929"/>
<ellipse cx="435.324" cy="276.635" rx="1.0077" ry="1.00596" fill="#292929"/>
<ellipse cx="435.324" cy="283.676" rx="1.0077" ry="1.00596" fill="#292929"/>
<path d="M389.978 363.147L391.993 353.087L401.063 355.099C400.727 357.95 400.055 363.751 400.055 364.153C400.055 364.656 403.582 365.159 404.086 366.165C404.489 366.97 395.184 366.836 390.482 366.668L389.978 363.147Z" fill="#E7B27D"/>
<path d="M414.667 366.165L415.17 353.59H426.255L425.247 365.159L414.667 366.165Z" fill="#E7B27D"/>
<path fill-rule="evenodd" clip-rule="evenodd" d="M253.434 77.4903C269.887 77.4903 283.207 64.1782 283.207 47.7787C283.207 31.3793 269.887 18.0671 253.434 18.0671C236.98 18.0671 223.66 31.3793 223.66 47.7787C223.66 64.1782 236.98 77.4903 253.434 77.4903ZM253.434 83.4903C273.191 83.4903 289.207 67.5017 289.207 47.7787C289.207 28.0558 273.191 12.0671 253.434 12.0671C233.676 12.0671 217.66 28.0558 217.66 47.7787C217.66 67.5017 233.676 83.4903 253.434 83.4903ZM344.127 168.027C360.58 168.027 373.901 154.715 373.901 138.315C373.901 121.916 360.58 108.604 344.127 108.604C327.674 108.604 314.354 121.916 314.354 138.315C314.354 154.715 327.674 168.027 344.127 168.027ZM344.127 174.027C363.884 174.027 379.901 158.038 379.901 138.315C379.901 118.592 363.884 102.604 344.127 102.604C324.37 102.604 308.354 118.592 308.354 138.315C308.354 158.038 324.37 174.027 344.127 174.027ZM362.507 33.6554L364.631 31.5359L360.384 27.2969L358.261 29.4164L230.001 157.454L227.878 159.574L232.124 163.813L234.248 161.693L362.507 33.6554Z" fill="url(#paint6_linear_97_599)"/>
<path d="M467.079 280.658C467.079 294.828 455.571 306.319 441.371 306.319C427.17 306.319 415.663 294.828 415.663 280.658C415.663 266.489 427.17 254.998 441.371 254.998C455.571 254.998 467.079 266.489 467.079 280.658Z" stroke="#F1EEEE" stroke-width="3"/>
<ellipse cx="73.5586" cy="251.486" rx="2.01541" ry="2.01192" fill="#D9D9D9"/>
<path d="M94.7205 215.271C88.5063 220.301 75.8764 231.568 75.0702 236.396C74.0625 242.432 72.0471 250.48 73.5587 251.486C75.0702 252.492 93.2088 249.977 95.7281 246.456" stroke="black"/>
<path fill-rule="evenodd" clip-rule="evenodd" d="M74.5662 254.504V256.515L80.6124 252.492L77.5893 249.474H74.5664V249.743C75.1688 250.091 75.574 250.741 75.574 251.486C75.574 252.23 75.1688 252.88 74.5664 253.228V254.504H74.5662Z" fill="#C32E2E"/>
<path d="M60.1907 274.077L57.3627 259.097L58.6111 257.85L61.4392 272.831L60.1907 274.077ZM56.8149 269.232C56.3988 269.647 55.9274 269.914 55.4009 270.033C54.8744 270.152 54.3393 270.118 53.7958 269.931C53.2523 269.745 52.7342 269.406 52.2416 268.914C51.7491 268.422 51.4094 267.905 51.2225 267.363C51.0357 266.82 51.0017 266.286 51.1206 265.76C51.2395 265.235 51.507 264.764 51.9232 264.349C52.3563 263.916 52.8319 263.645 53.3499 263.535C53.8765 263.416 54.4115 263.45 54.955 263.637C55.4986 263.823 56.0166 264.162 56.5092 264.654C57.0018 265.146 57.3415 265.663 57.5283 266.205C57.7151 266.748 57.7491 267.282 57.6302 267.808C57.5198 268.325 57.248 268.8 56.8149 269.232ZM55.9359 268.329C56.2756 267.99 56.4073 267.596 56.3308 267.146C56.2544 266.68 55.9657 266.197 55.4646 265.697C54.9635 265.197 54.4837 264.913 54.0251 264.845C53.5665 264.76 53.1673 264.887 52.8276 265.226C52.4879 265.565 52.352 265.972 52.42 266.447C52.4964 266.913 52.7809 267.392 53.2735 267.884C53.7661 268.376 54.2459 268.66 54.713 268.736C55.1886 268.804 55.5962 268.668 55.9359 268.329ZM66.8659 267.592C66.4498 268.007 65.9785 268.274 65.4519 268.393C64.9254 268.511 64.3903 268.477 63.8468 268.291C63.3033 268.104 62.7852 267.765 62.2927 267.274C61.8001 266.782 61.4604 266.265 61.2735 265.722C61.0867 265.18 61.0527 264.645 61.1716 264.12C61.2905 263.594 61.558 263.124 61.9742 262.708C62.4073 262.276 62.8829 262.005 63.4009 261.894C63.9275 261.776 64.4625 261.81 65.0061 261.996C65.5496 262.183 66.0676 262.522 66.5602 263.013C67.0528 263.505 67.3925 264.022 67.5793 264.565C67.7662 265.108 67.8001 265.642 67.6812 266.167C67.5708 266.684 67.2991 267.159 66.8659 267.592ZM65.9742 266.701C66.3139 266.362 66.4456 265.96 66.3691 265.493C66.2927 265.027 66.0082 264.548 65.5156 264.056C65.023 263.565 64.5432 263.281 64.0761 263.204C63.609 263.128 63.2056 263.259 62.8659 263.598C62.5347 263.929 62.4031 264.332 62.471 264.807C62.5389 265.264 62.8234 265.743 63.3245 266.244C63.8256 266.744 64.3097 267.032 64.7768 267.108C65.2438 267.168 65.643 267.032 65.9742 266.701Z" fill="white"/>
<g filter="url(#filter17_d_97_599)">
<path d="M388.091 375.11L389.252 365.07C389.345 364.263 390.354 363.866 391.109 364.165C394.643 365.563 399.275 363.089 402.042 360.977C402.573 360.571 403.361 360.742 403.717 361.308C406.084 365.07 410.405 366.617 413.107 367.05C413.677 367.141 414.162 366.684 414.162 366.107V364.147C414.162 363.595 414.61 363.147 415.162 363.147H415.629C415.659 363.147 415.685 363.146 415.715 363.144C416.278 363.091 422.495 362.498 426.012 361.363C426.885 361.082 428.748 361.764 429.277 362.514C432.215 366.687 440.633 369.732 445.643 371.007C446.093 371.122 446.409 371.523 446.409 371.987V375.225C446.409 375.777 445.961 376.225 445.409 376.225H435.447C435.366 376.225 435.284 376.215 435.205 376.195L427.906 374.373C427.516 374.276 427.106 374.422 426.864 374.743L426.051 375.825C425.862 376.077 425.566 376.225 425.252 376.225H414.242C414.189 376.225 414.136 376.221 414.084 376.212L402.161 374.308C401.795 374.249 401.427 374.398 401.204 374.695L400.355 375.825C400.166 376.077 399.87 376.225 399.555 376.225H389.084C388.487 376.225 388.022 375.704 388.091 375.11Z" fill="#02071F"/>
</g>
<path d="M399.047 180.565C397.367 188.445 400.76 204.507 429.782 205.714" stroke="#2A91BD"/>
<path d="M556.753 210.744C553.04 217.539 558.6 234.384 560.28 241.426C543.351 249.474 526.018 246.456 519.468 243.941L520.475 196.661L489.741 202.697C482.888 203.501 480.671 196.661 484.198 192.134C514.429 188.11 512.918 190.122 531.056 158.937C536.297 160.949 546.34 158.099 550.707 156.422C549.094 164.872 551.379 174.697 552.722 178.553C567.838 197.164 562.799 199.679 556.753 210.744Z" fill="#E7E97E"/>
<path d="M521.986 229.354C522.994 227.343 530.384 227.845 533.071 227.845L537.606 233.378L529.545 242.935C523.499 245.45 519.468 239.917 519.468 236.396C519.468 234.945 522.658 233.378 525.01 232.372H525.009C523.498 232.372 520.476 232.372 521.986 229.354Z" fill="#E7BE9E"/>
<path d="M531.56 227.343C531.157 226.135 533.072 225.163 534.08 224.828C534.08 224.828 534.479 227.858 535.591 229.354C536.958 231.195 540.63 232.372 540.63 232.372C539.958 233.043 538.413 234.384 537.606 234.384C536.599 234.384 532.064 228.851 531.56 227.343Z" fill="white"/>
<path d="M556.249 211.247C552.386 218.457 543.753 232.775 540.126 232.372C536.498 231.97 534.247 227.175 533.576 224.828C539.79 217.786 551.714 202.797 549.699 199.176C547.684 195.554 543.485 191.296 541.637 189.619" stroke="#9D9F2E"/>
<g filter="url(#filter18_d_97_599)">
<path d="M405.093 352.585C403.884 357.815 389.978 355.602 389.978 351.579C392.833 320.897 396.931 255.711 390.482 240.42C394.512 241.761 404.388 244.041 411.643 242.432C418.899 240.822 426.759 242.767 429.782 243.941C429.95 279.82 429.984 352.082 428.774 354.093C427.263 356.608 414.667 356.105 413.659 352.585C412.853 349.768 411.979 305.137 411.643 283.173L405.093 352.585Z" fill="#0E0E0B"/>
</g>
<g filter="url(#filter19_d_97_599)">
<path d="M506.283 371.125C511.294 370.19 518.516 365.106 522.601 361.8C523.216 361.303 524.19 361.682 524.661 362.316C525.583 363.556 527.164 363.762 527.952 363.662C528.006 363.655 528.061 363.65 528.116 363.65H535.694C536.207 363.65 536.638 364.039 536.689 364.55L537.055 368.209C537.085 368.507 537.243 368.799 537.535 368.864C540.829 369.599 548.21 358.184 548.691 359.626C549.06 360.732 550.868 362.486 551.943 363.416C552.12 363.569 552.344 363.65 552.578 363.65H561.791C563.289 363.65 563.163 369.151 562.869 373.293C562.832 373.813 562.397 374.213 561.876 374.213H551.427C550.997 374.213 550.615 373.937 550.478 373.529L549.997 372.088C549.829 371.586 549.3 371.302 548.789 371.439L536.726 374.681C536.641 374.704 536.554 374.715 536.467 374.715H524.715C524.321 374.715 524.002 374.396 524.002 374.003C524.002 373.578 523.636 373.247 523.213 373.293C518.419 373.817 509.539 374.715 506.871 374.715C504.313 374.715 504.875 372.786 505.628 371.551C505.77 371.318 506.015 371.175 506.283 371.125Z" fill="#02071F"/>
</g>
<path d="M599.486 272.351L596.498 285.293" stroke="#287975" stroke-linecap="square"/>
<path d="M591.519 280.314L603.469 278.323" stroke="#287975" stroke-linecap="square"/>
<g filter="url(#filter20_f_97_599)">
<ellipse cx="618.407" cy="276.332" rx="4.97955" ry="4.97768" fill="#FFDF5B"/>
</g>
<path d="M594.506 261.399L597.494 247.462L607.453 256.422L594.506 261.399Z" fill="#F55B7D"/>
<path d="M95.6337 192.88L92.646 205.822" stroke="#287975" stroke-linecap="square"/>
<path d="M87.6665 200.844L99.6174 198.853" stroke="#287975" stroke-linecap="square"/>
<g filter="url(#filter21_f_97_599)">
<ellipse cx="114.555" cy="196.861" rx="4.97955" ry="4.97768" fill="#FFDF5B"/>
</g>
<path d="M90.6541 181.928L93.6418 167.991L103.601 176.951L90.6541 181.928Z" fill="#F55B7D"/>
<defs>
<filter id="filter0_df_97_599" x="397.062" y="45.2698" width="32.126" height="33.105" filterUnits="userSpaceOnUse" color-interpolation-filters="sRGB">
<feFlood flood-opacity="0" result="BackgroundImageFix"/>
<feColorMatrix in="SourceAlpha" type="matrix" values="0 0 0 0 0 0 0 0 0 0 0 0 0 0 0 0 0 0 127 0" result="hardAlpha"/>
<feOffset dy="4"/>
<feGaussianBlur stdDeviation="2"/>
<feComposite in2="hardAlpha" operator="out"/>
<feColorMatrix type="matrix" values="0 0 0 0 0 0 0 0 0 0 0 0 0 0 0 0 0 0 0.25 0"/>
<feBlend mode="normal" in2="BackgroundImageFix" result="effect1_dropShadow_97_599"/>
<feBlend mode="normal" in="SourceGraphic" in2="effect1_dropShadow_97_599" result="shape"/>
<feGaussianBlur stdDeviation="0.5" result="effect2_foregroundBlur_97_599"/>
</filter>
<filter id="filter1_i_97_599" x="88.1702" y="218.792" width="44.3235" height="34.665" filterUnits="userSpaceOnUse" color-interpolation-filters="sRGB">
<feFlood flood-opacity="0" result="BackgroundImageFix"/>
<feBlend mode="normal" in="SourceGraphic" in2="BackgroundImageFix" result="shape"/>
<feColorMatrix in="SourceAlpha" type="matrix" values="0 0 0 0 0 0 0 0 0 0 0 0 0 0 0 0 0 0 127 0" result="hardAlpha"/>
<feOffset dx="2" dy="3"/>
<feGaussianBlur stdDeviation="2"/>
<feComposite in2="hardAlpha" operator="arithmetic" k2="-1" k3="1"/>
<feColorMatrix type="matrix" values="0 0 0 0 0.9625 0 0 0 0 0.891114 0 0 0 0 0.248646 0 0 0 0.6 0"/>
<feBlend mode="normal" in2="shape" result="effect1_innerShadow_97_599"/>
</filter>
<filter id="filter2_i_97_599" x="462.052" y="239.002" width="40.3118" height="20.2041" filterUnits="userSpaceOnUse" color-interpolation-filters="sRGB">
<feFlood flood-opacity="0" result="BackgroundImageFix"/>
<feBlend mode="normal" in="SourceGraphic" in2="BackgroundImageFix" result="shape"/>
<feColorMatrix in="SourceAlpha" type="matrix" values="0 0 0 0 0 0 0 0 0 0 0 0 0 0 0 0 0 0 127 0" result="hardAlpha"/>
<feOffset dx="-4" dy="3"/>
<feGaussianBlur stdDeviation="1.5"/>
<feComposite in2="hardAlpha" operator="arithmetic" k2="-1" k3="1"/>
<feColorMatrix type="matrix" values="0 0 0 0 0.878217 0 0 0 0 0.891667 0 0 0 0 0.219201 0 0 0 0.65 0"/>
<feBlend mode="normal" in2="shape" result="effect1_innerShadow_97_599"/>
</filter>
<filter id="filter3_df_97_599" x="154.206" y="123.735" width="32.126" height="33.105" filterUnits="userSpaceOnUse" color-interpolation-filters="sRGB">
<feFlood flood-opacity="0" result="BackgroundImageFix"/>
<feColorMatrix in="SourceAlpha" type="matrix" values="0 0 0 0 0 0 0 0 0 0 0 0 0 0 0 0 0 0 127 0" result="hardAlpha"/>
<feOffset dy="4"/>
<feGaussianBlur stdDeviation="2"/>
<feComposite in2="hardAlpha" operator="out"/>
<feColorMatrix type="matrix" values="0 0 0 0 0 0 0 0 0 0 0 0 0 0 0 0 0 0 0.25 0"/>
<feBlend mode="normal" in2="BackgroundImageFix" result="effect1_dropShadow_97_599"/>
<feBlend mode="normal" in="SourceGraphic" in2="effect1_dropShadow_97_599" result="shape"/>
<feGaussianBlur stdDeviation="0.5" result="effect2_foregroundBlur_97_599"/>
</filter>
<filter id="filter4_d_97_599" x="258.457" y="225.331" width="24.8206" height="8.53271" filterUnits="userSpaceOnUse" color-interpolation-filters="sRGB">
<feFlood flood-opacity="0" result="BackgroundImageFix"/>
<feColorMatrix in="SourceAlpha" type="matrix" values="0 0 0 0 0 0 0 0 0 0 0 0 0 0 0 0 0 0 127 0" result="hardAlpha"/>
<feOffset dx="2" dy="2"/>
<feGaussianBlur stdDeviation="0.5"/>
<feComposite in2="hardAlpha" operator="out"/>
<feColorMatrix type="matrix" values="0 0 0 0 0 0 0 0 0 0 0 0 0 0 0 0 0 0 0.25 0"/>
<feBlend mode="normal" in2="BackgroundImageFix" result="effect1_dropShadow_97_599"/>
<feBlend mode="normal" in="SourceGraphic" in2="effect1_dropShadow_97_599" result="shape"/>
</filter>
<filter id="filter5_d_97_599" x="146.617" y="273.617" width="18.1079" height="16.5747" filterUnits="userSpaceOnUse" color-interpolation-filters="sRGB">
<feFlood flood-opacity="0" result="BackgroundImageFix"/>
<feColorMatrix in="SourceAlpha" type="matrix" values="0 0 0 0 0 0 0 0 0 0 0 0 0 0 0 0 0 0 127 0" result="hardAlpha"/>
<feOffset dx="2" dy="2"/>
<feGaussianBlur stdDeviation="1"/>
<feComposite in2="hardAlpha" operator="out"/>
<feColorMatrix type="matrix" values="0 0 0 0 0 0 0 0 0 0 0 0 0 0 0 0 0 0 0.25 0"/>
<feBlend mode="normal" in2="BackgroundImageFix" result="effect1_dropShadow_97_599"/>
<feBlend mode="normal" in="SourceGraphic" in2="effect1_dropShadow_97_599" result="shape"/>
</filter>
<filter id="filter6_d_97_599" x="181.383" y="273.617" width="18.1079" height="16.5747" filterUnits="userSpaceOnUse" color-interpolation-filters="sRGB">
<feFlood flood-opacity="0" result="BackgroundImageFix"/>
<feColorMatrix in="SourceAlpha" type="matrix" values="0 0 0 0 0 0 0 0 0 0 0 0 0 0 0 0 0 0 127 0" result="hardAlpha"/>
<feOffset dx="2" dy="2"/>
<feGaussianBlur stdDeviation="1"/>
<feComposite in2="hardAlpha" operator="out"/>
<feColorMatrix type="matrix" values="0 0 0 0 0 0 0 0 0 0 0 0 0 0 0 0 0 0 0.25 0"/>
<feBlend mode="normal" in2="BackgroundImageFix" result="effect1_dropShadow_97_599"/>
<feBlend mode="normal" in="SourceGraphic" in2="effect1_dropShadow_97_599" result="shape"/>
</filter>
<filter id="filter7_d_97_599" x="155.329" y="256.046" width="16.0527" height="19.0542" filterUnits="userSpaceOnUse" color-interpolation-filters="sRGB">
<feFlood flood-opacity="0" result="BackgroundImageFix"/>
<feColorMatrix in="SourceAlpha" type="matrix" values="0 0 0 0 0 0 0 0 0 0 0 0 0 0 0 0 0 0 127 0" result="hardAlpha"/>
<feOffset dx="2" dy="2"/>
<feGaussianBlur stdDeviation="1"/>
<feComposite in2="hardAlpha" operator="out"/>
<feColorMatrix type="matrix" values="0 0 0 0 0 0 0 0 0 0 0 0 0 0 0 0 0 0 0.25 0"/>
<feBlend mode="normal" in2="BackgroundImageFix" result="effect1_dropShadow_97_599"/>
<feBlend mode="normal" in="SourceGraphic" in2="effect1_dropShadow_97_599" result="shape"/>
</filter>
<filter id="filter8_d_97_599" x="154.175" y="289.579" width="16.0527" height="19.0542" filterUnits="userSpaceOnUse" color-interpolation-filters="sRGB">
<feFlood flood-opacity="0" result="BackgroundImageFix"/>
<feColorMatrix in="SourceAlpha" type="matrix" values="0 0 0 0 0 0 0 0 0 0 0 0 0 0 0 0 0 0 127 0" result="hardAlpha"/>
<feOffset dx="2" dy="2"/>
<feGaussianBlur stdDeviation="1"/>
<feComposite in2="hardAlpha" operator="out"/>
<feColorMatrix type="matrix" values="0 0 0 0 0 0 0 0 0 0 0 0 0 0 0 0 0 0 0.25 0"/>
<feBlend mode="normal" in2="BackgroundImageFix" result="effect1_dropShadow_97_599"/>
<feBlend mode="normal" in="SourceGraphic" in2="effect1_dropShadow_97_599" result="shape"/>
</filter>
<filter id="filter9_d_97_599" x="176.607" y="289.838" width="16.2847" height="19.251" filterUnits="userSpaceOnUse" color-interpolation-filters="sRGB">
<feFlood flood-opacity="0" result="BackgroundImageFix"/>
<feColorMatrix in="SourceAlpha" type="matrix" values="0 0 0 0 0 0 0 0 0 0 0 0 0 0 0 0 0 0 127 0" result="hardAlpha"/>
<feOffset dx="2" dy="2"/>
<feGaussianBlur stdDeviation="1"/>
<feComposite in2="hardAlpha" operator="out"/>
<feColorMatrix type="matrix" values="0 0 0 0 0 0 0 0 0 0 0 0 0 0 0 0 0 0 0.25 0"/>
<feBlend mode="normal" in2="BackgroundImageFix" result="effect1_dropShadow_97_599"/>
<feBlend mode="normal" in="SourceGraphic" in2="effect1_dropShadow_97_599" result="shape"/>
</filter>
<filter id="filter10_d_97_599" x="176.607" y="256.516" width="16.2847" height="19.251" filterUnits="userSpaceOnUse" color-interpolation-filters="sRGB">
<feFlood flood-opacity="0" result="BackgroundImageFix"/>
<feColorMatrix in="SourceAlpha" type="matrix" values="0 0 0 0 0 0 0 0 0 0 0 0 0 0 0 0 0 0 127 0" result="hardAlpha"/>
<feOffset dx="2" dy="2"/>
<feGaussianBlur stdDeviation="1"/>
<feComposite in2="hardAlpha" operator="out"/>
<feColorMatrix type="matrix" values="0 0 0 0 0 0 0 0 0 0 0 0 0 0 0 0 0 0 0.25 0"/>
<feBlend mode="normal" in2="BackgroundImageFix" result="effect1_dropShadow_97_599"/>
<feBlend mode="normal" in="SourceGraphic" in2="effect1_dropShadow_97_599" result="shape"/>
</filter>
<filter id="filter11_d_97_599" x="416.682" y="273.617" width="18.1079" height="16.5747" filterUnits="userSpaceOnUse" color-interpolation-filters="sRGB">
<feFlood flood-opacity="0" result="BackgroundImageFix"/>
<feColorMatrix in="SourceAlpha" type="matrix" values="0 0 0 0 0 0 0 0 0 0 0 0 0 0 0 0 0 0 127 0" result="hardAlpha"/>
<feOffset dx="2" dy="2"/>
<feGaussianBlur stdDeviation="1"/>
<feComposite in2="hardAlpha" operator="out"/>
<feColorMatrix type="matrix" values="0 0 0 0 0 0 0 0 0 0 0 0 0 0 0 0 0 0 0.25 0"/>
<feBlend mode="normal" in2="BackgroundImageFix" result="effect1_dropShadow_97_599"/>
<feBlend mode="normal" in="SourceGraphic" in2="effect1_dropShadow_97_599" result="shape"/>
</filter>
<filter id="filter12_d_97_599" x="451.448" y="273.617" width="18.1079" height="16.5747" filterUnits="userSpaceOnUse" color-interpolation-filters="sRGB">
<feFlood flood-opacity="0" result="BackgroundImageFix"/>
<feColorMatrix in="SourceAlpha" type="matrix" values="0 0 0 0 0 0 0 0 0 0 0 0 0 0 0 0 0 0 127 0" result="hardAlpha"/>
<feOffset dx="2" dy="2"/>
<feGaussianBlur stdDeviation="1"/>
<feComposite in2="hardAlpha" operator="out"/>
<feColorMatrix type="matrix" values="0 0 0 0 0 0 0 0 0 0 0 0 0 0 0 0 0 0 0.25 0"/>
<feBlend mode="normal" in2="BackgroundImageFix" result="effect1_dropShadow_97_599"/>
<feBlend mode="normal" in="SourceGraphic" in2="effect1_dropShadow_97_599" result="shape"/>
</filter>
<filter id="filter13_d_97_599" x="425.394" y="256.046" width="16.0527" height="19.0542" filterUnits="userSpaceOnUse" color-interpolation-filters="sRGB">
<feFlood flood-opacity="0" result="BackgroundImageFix"/>
<feColorMatrix in="SourceAlpha" type="matrix" values="0 0 0 0 0 0 0 0 0 0 0 0 0 0 0 0 0 0 127 0" result="hardAlpha"/>
<feOffset dx="2" dy="2"/>
<feGaussianBlur stdDeviation="1"/>
<feComposite in2="hardAlpha" operator="out"/>
<feColorMatrix type="matrix" values="0 0 0 0 0 0 0 0 0 0 0 0 0 0 0 0 0 0 0.25 0"/>
<feBlend mode="normal" in2="BackgroundImageFix" result="effect1_dropShadow_97_599"/>
<feBlend mode="normal" in="SourceGraphic" in2="effect1_dropShadow_97_599" result="shape"/>
</filter>
<filter id="filter14_d_97_599" x="424.24" y="289.579" width="16.0527" height="19.0542" filterUnits="userSpaceOnUse" color-interpolation-filters="sRGB">
<feFlood flood-opacity="0" result="BackgroundImageFix"/>
<feColorMatrix in="SourceAlpha" type="matrix" values="0 0 0 0 0 0 0 0 0 0 0 0 0 0 0 0 0 0 127 0" result="hardAlpha"/>
<feOffset dx="2" dy="2"/>
<feGaussianBlur stdDeviation="1"/>
<feComposite in2="hardAlpha" operator="out"/>
<feColorMatrix type="matrix" values="0 0 0 0 0 0 0 0 0 0 0 0 0 0 0 0 0 0 0.25 0"/>
<feBlend mode="normal" in2="BackgroundImageFix" result="effect1_dropShadow_97_599"/>
<feBlend mode="normal" in="SourceGraphic" in2="effect1_dropShadow_97_599" result="shape"/>
</filter>
<filter id="filter15_d_97_599" x="446.672" y="289.838" width="16.2847" height="19.251" filterUnits="userSpaceOnUse" color-interpolation-filters="sRGB">
<feFlood flood-opacity="0" result="BackgroundImageFix"/>
<feColorMatrix in="SourceAlpha" type="matrix" values="0 0 0 0 0 0 0 0 0 0 0 0 0 0 0 0 0 0 127 0" result="hardAlpha"/>
<feOffset dx="2" dy="2"/>
<feGaussianBlur stdDeviation="1"/>
<feComposite in2="hardAlpha" operator="out"/>
<feColorMatrix type="matrix" values="0 0 0 0 0 0 0 0 0 0 0 0 0 0 0 0 0 0 0.25 0"/>
<feBlend mode="normal" in2="BackgroundImageFix" result="effect1_dropShadow_97_599"/>
<feBlend mode="normal" in="SourceGraphic" in2="effect1_dropShadow_97_599" result="shape"/>
</filter>
<filter id="filter16_d_97_599" x="446.672" y="256.516" width="16.2847" height="19.251" filterUnits="userSpaceOnUse" color-interpolation-filters="sRGB">
<feFlood flood-opacity="0" result="BackgroundImageFix"/>
<feColorMatrix in="SourceAlpha" type="matrix" values="0 0 0 0 0 0 0 0 0 0 0 0 0 0 0 0 0 0 127 0" result="hardAlpha"/>
<feOffset dx="2" dy="2"/>
<feGaussianBlur stdDeviation="1"/>
<feComposite in2="hardAlpha" operator="out"/>
<feColorMatrix type="matrix" values="0 0 0 0 0 0 0 0 0 0 0 0 0 0 0 0 0 0 0.25 0"/>
<feBlend mode="normal" in2="BackgroundImageFix" result="effect1_dropShadow_97_599"/>
<feBlend mode="normal" in="SourceGraphic" in2="effect1_dropShadow_97_599" result="shape"/>
</filter>
<filter id="filter17_d_97_599" x="383.084" y="357.754" width="63.3247" height="19.4707" filterUnits="userSpaceOnUse" color-interpolation-filters="sRGB">
<feFlood flood-opacity="0" result="BackgroundImageFix"/>
<feColorMatrix in="SourceAlpha" type="matrix" values="0 0 0 0 0 0 0 0 0 0 0 0 0 0 0 0 0 0 127 0" result="hardAlpha"/>
<feOffset dx="-3" dy="-1"/>
<feGaussianBlur stdDeviation="1"/>
<feComposite in2="hardAlpha" operator="out"/>
<feColorMatrix type="matrix" values="0 0 0 0 0 0 0 0 0 0 0 0 0 0 0 0 0 0 0.25 0"/>
<feBlend mode="normal" in2="BackgroundImageFix" result="effect1_dropShadow_97_599"/>
<feBlend mode="normal" in="SourceGraphic" in2="effect1_dropShadow_97_599" result="shape"/>
</filter>
<filter id="filter18_d_97_599" x="389.978" y="240.42" width="43.8894" height="119.245" filterUnits="userSpaceOnUse" color-interpolation-filters="sRGB">
<feFlood flood-opacity="0" result="BackgroundImageFix"/>
<feColorMatrix in="SourceAlpha" type="matrix" values="0 0 0 0 0 0 0 0 0 0 0 0 0 0 0 0 0 0 127 0" result="hardAlpha"/>
<feOffset dx="2" dy="2"/>
<feGaussianBlur stdDeviation="1"/>
<feComposite in2="hardAlpha" operator="out"/>
<feColorMatrix type="matrix" values="0 0 0 0 0 0 0 0 0 0 0 0 0 0 0 0 0 0 0.25 0"/>
<feBlend mode="normal" in2="BackgroundImageFix" result="effect1_dropShadow_97_599"/>
<feBlend mode="normal" in="SourceGraphic" in2="effect1_dropShadow_97_599" result="shape"/>
</filter>
<filter id="filter19_d_97_599" x="504.994" y="355.5" width="63.0593" height="19.2153" filterUnits="userSpaceOnUse" color-interpolation-filters="sRGB">
<feFlood flood-opacity="0" result="BackgroundImageFix"/>
<feColorMatrix in="SourceAlpha" type="matrix" values="0 0 0 0 0 0 0 0 0 0 0 0 0 0 0 0 0 0 127 0" result="hardAlpha"/>
<feOffset dx="3" dy="-2"/>
<feGaussianBlur stdDeviation="1"/>
<feComposite in2="hardAlpha" operator="out"/>
<feColorMatrix type="matrix" values="0 0 0 0 0 0 0 0 0 0 0 0 0 0 0 0 0 0 0.25 0"/>
<feBlend mode="normal" in2="BackgroundImageFix" result="effect1_dropShadow_97_599"/>
<feBlend mode="normal" in="SourceGraphic" in2="effect1_dropShadow_97_599" result="shape"/>
</filter>
<filter id="filter20_f_97_599" x="609.428" y="267.354" width="17.9592" height="17.9556" filterUnits="userSpaceOnUse" color-interpolation-filters="sRGB">
<feFlood flood-opacity="0" result="BackgroundImageFix"/>
<feBlend mode="normal" in="SourceGraphic" in2="BackgroundImageFix" result="shape"/>
<feGaussianBlur stdDeviation="2" result="effect1_foregroundBlur_97_599"/>
</filter>
<filter id="filter21_f_97_599" x="105.576" y="187.884" width="17.9592" height="17.9553" filterUnits="userSpaceOnUse" color-interpolation-filters="sRGB">
<feFlood flood-opacity="0" result="BackgroundImageFix"/>
<feBlend mode="normal" in="SourceGraphic" in2="BackgroundImageFix" result="shape"/>
<feGaussianBlur stdDeviation="2" result="effect1_foregroundBlur_97_599"/>
</filter>
<linearGradient id="paint0_linear_97_599" x1="129.486" y1="340.01" x2="404.588" y2="351.619" gradientUnits="userSpaceOnUse">
<stop stop-color="#5EABB6"/>
<stop offset="1" stop-color="#4B58D1"/>
</linearGradient>
<linearGradient id="paint1_linear_97_599" x1="225.722" y1="189.619" x2="345.978" y2="286.898" gradientUnits="userSpaceOnUse">
<stop stop-color="#EE3743"/>
<stop offset="1" stop-color="#FF535E"/>
</linearGradient>
<linearGradient id="paint2_linear_97_599" x1="188.437" y1="186.098" x2="222.147" y2="214.323" gradientUnits="userSpaceOnUse">
<stop stop-color="#3C6270"/>
<stop offset="1" stop-color="#3A9CBF"/>
</linearGradient>
<linearGradient id="paint3_linear_97_599" x1="501.833" y1="299.772" x2="552.172" y2="330.028" gradientUnits="userSpaceOnUse">
<stop stop-color="#1D94B9"/>
<stop offset="1" stop-color="#0D0925"/>
</linearGradient>
<linearGradient id="paint4_linear_97_599" x1="280.642" y1="180.062" x2="304.262" y2="220.337" gradientUnits="userSpaceOnUse">
<stop stop-color="#3C6270"/>
<stop offset="1" stop-color="#3A9CBF"/>
</linearGradient>
<linearGradient id="paint5_linear_97_599" x1="351.937" y1="184.086" x2="351.937" y2="220.301" gradientUnits="userSpaceOnUse">
<stop stop-color="#3C6270"/>
<stop offset="1" stop-color="#3A9CBF"/>
</linearGradient>
<linearGradient id="paint6_linear_97_599" x1="248.899" y1="20.1148" x2="356.976" y2="174.203" gradientUnits="userSpaceOnUse">
<stop stop-color="#22336F"/>
<stop offset="1" stop-color="#7483B8"/>
</linearGradient>
</defs>
</svg>
