<svg width="41" height="41" viewBox="0 0 41 41" fill="none" xmlns="http://www.w3.org/2000/svg">
<path fill-rule="evenodd" clip-rule="evenodd" d="M6.12287 0.0487061C3.91373 0.0487061 2.12287 1.83957 2.12287 4.04871V35.6673C2.12287 36.2196 2.57059 36.6673 3.12287 36.6673C3.67516 36.6673 4.12287 36.2196 4.12287 35.6673V4.04871C4.12287 2.94414 5.0183 2.04871 6.12287 2.04871H23.0247C24.1292 2.04871 25.0247 2.94414 25.0247 4.04871V28.324V36.0515C25.0247 36.7801 25.2194 37.4631 25.5598 38.0515H1.04089C0.488609 38.0515 0.0408936 38.4992 0.0408936 39.0515C0.0408936 39.6038 0.488609 40.0515 1.04089 40.0515H29.0247H37.996C38.5483 40.0515 38.996 39.6038 38.996 39.0515C38.996 38.4992 38.5483 38.0515 37.996 38.0515H29.0247C27.9201 38.0515 27.0247 37.1561 27.0247 36.0515V32.8578C28.012 33.6561 29.2397 34.0447 30.4489 34.0447C31.7863 34.0447 33.1461 33.5694 34.1787 32.5901C35.2246 31.598 35.8731 30.1471 35.8731 28.324V17.8335C35.8731 17.2812 35.4254 16.8335 34.8731 16.8335C34.3208 16.8335 33.8731 17.2812 33.8731 17.8335V28.324C33.8731 29.648 33.4154 30.5575 32.8023 31.139C32.1758 31.7332 31.3236 32.0447 30.4489 32.0447C29.5742 32.0447 28.7219 31.7332 28.0954 31.139C27.4823 30.5575 27.0247 29.648 27.0247 28.324V4.04871C27.0247 1.83957 25.2338 0.0487061 23.0247 0.0487061H6.12287ZM30.7091 12.6372C30.1568 12.6372 29.7091 13.0849 29.7091 13.6372C29.7091 14.1895 30.1568 14.6372 30.7091 14.6372H34.8554L34.8731 14.6374L34.8908 14.6372H39.037C39.5893 14.6372 40.037 14.1895 40.037 13.6372C40.037 13.0849 39.5893 12.6372 39.037 12.6372H35.8731V8.91663V8.6034L35.6944 8.34614L32.0509 3.10089C31.7358 2.6473 31.1127 2.53501 30.6591 2.85008C30.2055 3.16516 30.0932 3.78829 30.4083 4.24188L33.8731 9.22987V12.6372H30.7091ZM9.28687 10.392H19.8607V14.7844L9.28687 14.7844V10.392ZM7.28687 10.392C7.28687 9.2874 8.1823 8.39196 9.28687 8.39196H19.8607C20.9653 8.39196 21.8607 9.2874 21.8607 10.392V14.7844C21.8607 15.8889 20.9653 16.7844 19.8607 16.7844H9.28687C8.1823 16.7844 7.28687 15.8889 7.28687 14.7844V10.392Z" fill="url(#paint0_linear_72_11)"/>
<defs>
<linearGradient id="paint0_linear_72_11" x1="0.0408943" y1="-2.5675" x2="38.8234" y2="45.8177" gradientUnits="userSpaceOnUse">
<stop stop-color="#F58080"/>
<stop offset="1" stop-color="#CF4242"/>
</linearGradient>
</defs>
</svg>
