<svg width="18" height="13" viewBox="0 0 18 13" fill="none" xmlns="http://www.w3.org/2000/svg">
<path fill-rule="evenodd" clip-rule="evenodd" d="M8.05574 2.82144C8.22349 1.7514 8.73787 1.47552 8.99844 1.47552C9.25027 1.47552 9.75176 1.7395 9.88877 2.80762L10.8806 2.68039C10.7152 1.39053 9.99005 0.475525 8.99844 0.475525C8.01687 0.475525 7.27166 1.37628 7.0686 2.66153L5.55715 11.1955L6.54183 11.3699L8.05411 2.8312L8.05421 2.83122L8.05574 2.82144ZM9.89944 3.43556L11.8262 11.4002L12.7982 11.1651L10.8714 3.20043L9.89944 3.43556ZM1.32797 5.97498C0.193498 5.10135 0.811293 3.28653 2.24317 3.28653H6.04926V4.28653H2.24317C1.76588 4.28653 1.55994 4.89147 1.9381 5.18268L5.69462 8.07546L5.08449 8.86776L1.32797 5.97498ZM15.9503 3.28653C17.4074 3.28653 18.0089 5.15421 16.8258 6.00456L12.8284 8.87762L12.2448 8.0656L16.2422 5.19254C16.6365 4.90909 16.436 4.28653 15.9503 4.28653H11.8297V3.28653H15.9503ZM8.2833 11.6773L6.97314 12.6967C6.23591 13.2704 5.18786 12.5955 5.40502 11.687L6.36623 11.9168L6.37672 11.9193C6.37632 11.9165 6.3755 11.9135 6.37436 11.9109C6.3736 11.9092 6.37291 11.908 6.37239 11.9072C6.37147 11.907 6.3701 11.9069 6.3682 11.9069C6.36534 11.907 6.36231 11.9074 6.3596 11.9082L6.35823 11.9087L6.35604 11.9096C6.35604 11.9096 6.35704 11.9091 6.35903 11.9075L7.6692 10.8881L8.2833 11.6773ZM11.314 12.7227L7.20604 9.8168L7.78354 9.0004L11.8915 11.9063C11.9077 11.9177 11.9162 11.9177 11.9198 11.9176C11.9265 11.9175 11.9377 11.9151 11.9498 11.9069C11.9619 11.8988 11.9683 11.8893 11.971 11.8831C11.9724 11.8798 11.9756 11.8719 11.971 11.8526L12.9441 11.6224C13.1672 12.565 12.1048 13.2821 11.314 12.7227Z" fill="url(#paint0_linear_149_24)"/>
<defs>
<linearGradient id="paint0_linear_149_24" x1="15.977" y1="-0.259351" x2="36.9373" y2="43.5161" gradientUnits="userSpaceOnUse">
<stop stop-color="#29D4A1"/>
<stop offset="1" stop-color="#188EA6"/>
</linearGradient>
</defs>
</svg>
