<svg width="40" height="40" viewBox="0 0 40 40" fill="none" xmlns="http://www.w3.org/2000/svg">
<path fill-rule="evenodd" clip-rule="evenodd" d="M6.08198 0C3.87284 0 2.08198 1.79086 2.08198 4V35.6186C2.08198 36.1709 2.5297 36.6186 3.08198 36.6186C3.63426 36.6186 4.08198 36.1709 4.08198 35.6186V4C4.08198 2.89543 4.97741 2 6.08198 2H22.9838C24.0883 2 24.9838 2.89543 24.9838 4V28.2753V36.0028C24.9838 36.7314 25.1785 37.4144 25.5189 38.0028H1C0.447715 38.0028 0 38.4505 0 39.0028C0 39.5551 0.447715 40.0028 1 40.0028H28.9838H37.9551C38.5074 40.0028 38.9551 39.5551 38.9551 39.0028C38.9551 38.4505 38.5074 38.0028 37.9551 38.0028H28.9838C27.8792 38.0028 26.9838 37.1074 26.9838 36.0028V32.8091C27.9712 33.6074 29.1988 33.996 30.408 33.996C31.7454 33.996 33.1053 33.5207 34.1378 32.5414C35.1838 31.5493 35.8322 30.0984 35.8322 28.2753V17.7848C35.8322 17.2325 35.3845 16.7848 34.8322 16.7848C34.2799 16.7848 33.8322 17.2325 33.8322 17.7848V28.2753C33.8322 29.5993 33.3745 30.5088 32.7614 31.0903C32.1349 31.6845 31.2827 31.996 30.408 31.996C29.5333 31.996 28.681 31.6845 28.0545 31.0903C27.4414 30.5088 26.9838 29.5993 26.9838 28.2753V4C26.9838 1.79086 25.1929 0 22.9838 0H6.08198ZM30.6682 12.5885C30.1159 12.5885 29.6682 13.0362 29.6682 13.5885C29.6682 14.1408 30.1159 14.5885 30.6682 14.5885H34.8145L34.8322 14.5886L34.8499 14.5885H38.9961C39.5484 14.5885 39.9961 14.1408 39.9961 13.5885C39.9961 13.0362 39.5484 12.5885 38.9961 12.5885H35.8322V8.86793V8.55469L35.6535 8.29743L32.01 3.05219C31.6949 2.59859 31.0718 2.4863 30.6182 2.80138C30.1646 3.11645 30.0523 3.73958 30.3674 4.19317L33.8322 9.18116V12.5885H30.6682ZM9.07448 20.2537C10.3192 17.9808 13.8043 13.1141 17.7873 11.8306C14.8318 13.435 9.65533 19.3713 7 25.4679C6.99999 25.869 7.49787 26.1899 7.82979 25.869C8.24469 24.6657 9.24043 22.0987 9.90427 21.457C12.6702 22.1255 18.5341 21.9383 19.8617 15.8416C20.1383 14.3709 20.9405 11.2691 21.9362 10.6273C23.1809 9.82515 5.75531 7.81967 9.07448 20.2537Z" fill="url(#paint0_linear_74_57)"/>
<defs>
<linearGradient id="paint0_linear_74_57" x1="2" y1="-2.5" x2="31.5" y2="43" gradientUnits="userSpaceOnUse">
<stop stop-color="#73EB60"/>
<stop offset="1" stop-color="#8EE7DC"/>
</linearGradient>
</defs>
</svg>
