<svg width="760" height="392" viewBox="0 0 760 392" fill="none" xmlns="http://www.w3.org/2000/svg">
<path d="M731.901 108.752C809.44 256.508 708.174 355.242 648.785 381.517C648.038 381.848 647.258 382 646.442 382H217.318L5.914 378.97C2.63416 378.923 0 376.25 0 372.97V352.925V259.785C0 256.265 3.04993 253.538 6.56885 253.477C45.9796 252.794 52.8467 212.358 19.6044 199.168C16.3582 197.88 14.3935 194.312 15.6523 191.054C62.5908 69.5867 241.754 39.6788 335.156 90.0647C337.934 91.5634 341.405 90.7587 343.262 88.2062C422.058 -20.0892 597.684 -25.3436 681.002 54.2501C682.978 56.1375 683.292 59.1394 682.057 61.5767C665.429 94.396 691.589 114.322 724.633 105.685C727.456 104.948 730.545 106.168 731.901 108.752Z" fill="#F3F6DE"/>
<path d="M640.263 290.97C640.263 271.052 623.989 253.549 608.317 253.549C599.879 257.17 588.065 264.775 608.317 266.223C628.57 267.672 630.017 300.225 628.208 316.32C626.4 354.345 669.195 362.191 671.004 318.13V230.009L657.743 232.424V322.959C657.261 341.308 640.263 338.652 640.263 322.959V290.97Z" fill="url(#paint0_linear_92_422)"/>
<path d="M630.017 152.752V135.249C643.036 137.18 653.323 156.173 657.14 164.824L645.085 172.67C645.085 167.842 636.044 153.959 630.017 152.752Z" fill="#253C76" stroke="black" stroke-linecap="round"/>
<path d="M473.905 161.203H613.743L606.51 348.309H481.138L473.905 161.203Z" fill="url(#paint1_linear_92_422)"/>
<rect x="456.116" y="108.381" width="173.004" height="127.371" rx="9.5" fill="#DAEDF7" stroke="black" stroke-width="3"/>
<rect x="475.405" y="128.902" width="136.839" height="85.1212" rx="6.5" fill="#1B2E57" stroke="black" stroke-width="3"/>
<path d="M471.493 355.895C471.493 350.372 475.97 345.895 481.493 345.895H606.153C611.676 345.895 616.153 350.372 616.153 355.895V363.416C616.153 365.073 614.81 366.416 613.153 366.416H474.493C472.836 366.416 471.493 365.073 471.493 363.416V355.895Z" fill="#1B2C56"/>
<g filter="url(#filter0_f_92_422)">
<rect x="478.726" y="133.438" width="128.989" height="32.5928" rx="4" fill="#FEE062"/>
</g>
<g filter="url(#filter1_i_92_422)">
<rect x="567.934" y="184.138" width="36.1651" height="12.0714" rx="3" fill="#16C73D"/>
</g>
<path d="M651.113 199.228C650.149 187.639 639.058 191.381 630.62 200.435V178.103C635.04 176.091 643.278 170.86 652.319 166.031C659.639 162.122 662.767 165.226 663.771 167.842L667.991 179.913C672.813 192.468 674.018 201.038 674.018 211.299V229.406C674.018 234.235 671.205 235.039 669.799 234.838H658.346C653.042 234.838 651.716 231.217 651.716 229.406L651.113 199.228Z" fill="url(#paint2_linear_92_422)"/>
<rect x="199.147" y="70.7646" width="138.35" height="175.155" rx="13.5" stroke="black"/>
<path d="M199.142 131.127H233.732" stroke="#249898" stroke-linecap="round"/>
<rect x="226.32" y="88.0781" width="52.3797" height="9.89637" rx="4.94819" fill="#249898"/>
<rect x="226.32" y="100.943" width="30.6372" height="7.9171" rx="3.95855" fill="#FFE166"/>
<g filter="url(#filter2_d_92_422)">
<path d="M38.0488 366.166H193.211M215.942 366.166H343.432M361.222 366.166H530.715M184.811 378.042H282.652M171.469 377.547H172.724M202.6 366.166H205.071" stroke="black"/>
<path d="M31.6256 282.047C31.6255 316.684 28.6605 318.169 83.0171 327.075L176.905 330.044L416.567 335.487L523.787 339.595C537.315 341.4 551.103 332.735 556.411 328.065V307.282C557.202 292.636 556.411 284.026 550.975 282.047L522.809 250.873C515.298 247.706 502.878 243.286 497.607 241.471C436.333 227.617 406.19 211.376 381.482 200.896C363.199 193.141 337.997 173.186 302.419 173.186C283.443 173.186 235.155 169.398 191.729 175.166C134.555 182.76 118.102 210.298 88.9468 218.71C70.6634 218.71 37.061 220.194 39.0376 238.503C39.0376 259.483 39.0376 271.161 31.6256 282.047Z" fill="#289D9A"/>
<path d="M522.314 339.446C525.279 262.254 426.45 259.285 422.99 335.487L522.314 339.446Z" fill="#166A77"/>
<g filter="url(#filter3_i_92_422)">
<path d="M280.913 319.688L277.943 245.746C277.814 242.529 275.168 239.987 271.948 239.987H153.105C149.482 239.987 146.709 243.164 147.679 246.655C154.755 272.126 182.898 315.225 200.621 323.666C201.281 323.981 201.988 324.116 202.719 324.134L274.769 325.926C278.235 326.013 281.053 323.152 280.913 319.688Z" fill="white"/>
</g>
<g filter="url(#filter4_i_92_422)">
<path d="M281.918 247.231L284.89 320.34C285.02 323.556 287.666 326.096 290.885 326.096H387.066C389.869 326.096 392.299 324.155 392.918 321.421L409.473 248.313C410.323 244.559 407.469 240.988 403.621 240.988H287.913C284.504 240.988 281.78 243.825 281.918 247.231Z" fill="white"/>
</g>
<g filter="url(#filter5_i_92_422)">
<path d="M49.4142 263.738H38.0488L39.0371 239.492H58.3089C60.6808 239.492 61.2738 240.977 61.2738 242.461V252.357C61.2738 260.67 53.3674 263.408 49.4142 263.738Z" fill="#1B2E57"/>
<path d="M525.773 251.863L513.419 252.357C497.607 258.691 519.843 282.541 531.703 282.047H551.469C547.021 266.707 533.679 251.863 525.773 251.863Z" fill="#1B2E57"/>
</g>
<rect x="85.9817" y="250.378" width="26.684" height="18.8031" rx="9.40155" fill="#34BFA7"/>
<path d="M245.591 286.005H257.945" stroke="black"/>
<path d="M265.357 286.005H278.699M261.404 286.005H262.392" stroke="black"/>
</g>
<path d="M523.303 251.863C516.879 251.863 508.478 248.399 507.49 261.759C489.701 259.78 456.593 242.461 442.262 234.05C432.379 229.596 436.827 224.514 442.262 226.132C456.889 230.487 502.548 240.977 523.303 251.863Z" fill="#35BFA8"/>
<path d="M82.0281 327.076C83.5105 272.645 173.94 264.728 176.41 330.045L82.0281 327.076Z" fill="#166A77"/>
<ellipse cx="129.466" cy="327.57" rx="37.5553" ry="37.6062" fill="#1B2C56"/>
<ellipse cx="473.394" cy="327.57" rx="36.567" ry="37.6062" fill="#1B2C56"/>
<path d="M463.017 321.137L454.122 313.22L453.134 312.725L458.075 307.777L466.97 316.189H469.44V303.818H476.359V316.189H479.818L487.23 308.272L492.171 313.22L484.265 320.642L485.747 324.106H497.113V330.539H485.747L484.265 333.507L492.171 341.919L487.724 346.373L479.818 337.466H476.853V351.321H469.44V337.466H467.464L458.075 346.373L454.122 341.919L463.017 334.002L461.534 330.539H449.18V324.106H461.534L463.017 321.137Z" fill="#FEFEFC"/>
<path d="M497.589 327.57C497.589 340.955 486.755 351.801 473.394 351.801C460.033 351.801 449.198 340.955 449.198 327.57C449.198 314.186 460.033 303.34 473.394 303.34C486.755 303.34 497.589 314.186 497.589 327.57Z" stroke="#FEFEFC" stroke-width="3"/>
<ellipse cx="473.394" cy="327.57" rx="4.94148" ry="4.94819" fill="#2A9999"/>
<path d="M119.09 321.137L110.195 313.22L109.207 312.725L114.148 307.777L123.043 316.189H125.513V303.818H132.432V316.189H135.891L143.303 308.272L148.244 313.22L140.338 320.642L141.82 324.106H153.186V330.539H141.82L140.338 333.507L148.244 341.919L143.797 346.373L135.891 337.466H132.926V351.321H125.513V337.466H123.537L114.148 346.373L110.195 341.919L119.09 334.002L117.607 330.539H105.253V324.106H117.607L119.09 321.137Z" fill="#FEFEFC"/>
<path d="M153.662 327.57C153.662 340.955 142.828 351.801 129.467 351.801C116.106 351.801 105.271 340.955 105.271 327.57C105.271 314.186 116.106 303.34 129.467 303.34C142.828 303.34 153.662 314.186 153.662 327.57Z" stroke="#FEFEFC" stroke-width="3"/>
<ellipse cx="129.467" cy="327.57" rx="4.94148" ry="4.94819" fill="#2A9999"/>
<g filter="url(#filter6_i_92_422)">
<path d="M259.519 179.708L195.682 182.093C171.689 183.941 156.456 215.271 150.788 233.782C150.213 235.661 151.646 237.513 153.611 237.513H273.781C275.76 237.513 277.197 235.631 276.675 233.722L262.525 181.915C262.158 180.571 260.912 179.656 259.519 179.708Z" fill="url(#paint3_linear_92_422)"/>
</g>
<g filter="url(#filter7_i_92_422)">
<path d="M280.039 235.316L264.904 183.165C264.374 181.337 265.671 179.481 267.572 179.375C333.031 175.743 386.204 209.408 409.225 230.745C411.144 232.523 409.858 235.597 407.243 235.636L282.964 237.479C281.613 237.499 280.415 236.614 280.039 235.316Z" fill="url(#paint4_linear_92_422)"/>
</g>
<g filter="url(#filter8_d_92_422)">
<rect x="163.069" y="250.378" width="25.6957" height="8.90673" rx="4.45337" fill="white"/>
<rect x="163.569" y="250.878" width="24.6957" height="7.90673" rx="3.95337" stroke="black"/>
</g>
<g filter="url(#filter9_d_92_422)">
<rect x="290.559" y="250.378" width="25.6957" height="8.90673" rx="4.45337" fill="white"/>
<rect x="291.059" y="250.878" width="24.6957" height="7.90673" rx="3.95337" stroke="black"/>
</g>
<path d="M283.147 266.213H363.199" stroke="#C9C9C9" stroke-linecap="round"/>
<path d="M198.153 266.213H278.205" stroke="#C9C9C9" stroke-linecap="round"/>
<path d="M87.4708 90.5009C79.5645 90.5009 81.0472 104.851 87.4708 103.366L111.684 92.9749C116.824 89.4122 113.167 85.0575 110.696 85.0575C113.167 69.7184 99.3307 71.6976 98.3424 77.6356C86.0875 67.3433 79.0706 89.5108 87.4708 90.5009Z" fill="#23325C"/>
<path d="M93.4002 111.778V107.325C91.5883 107.655 87.8657 107.325 87.4704 103.366C87.0751 99.4076 89.9411 98.4179 91.4236 98.4179V92.9753C91.4236 76.646 112.672 79.6148 111.684 92.9753C111.684 96.1092 111.585 102.872 111.19 104.851C110.695 107.325 106.248 107.325 106.248 109.304C106.248 110.888 108.883 111.943 110.201 112.273L119.096 124.644L96.8592 129.592L95.8709 124.644C95.0473 121.675 93.4002 115.539 93.4002 114.747V111.778Z" fill="#E59680"/>
<path d="M97.8406 325.096L103.276 248.894L124.525 250.873L116.618 326.085L97.8406 325.096Z" fill="#1C2F57"/>
<path d="M117.12 120.685C104.865 129.393 93.5657 124.313 89.4478 120.685L104.272 202.33L133.427 200.35V194.413C133.098 166.208 129.375 111.976 117.12 120.685Z" fill="url(#paint5_linear_92_422)"/>
<path d="M192.724 145.92C191.143 145.92 187.454 146.58 185.806 146.91C186.992 149.285 188.607 156.146 189.265 159.28H193.713C194.042 154.827 194.306 145.92 192.724 145.92Z" fill="white"/>
<path d="M211.996 140.478C209.763 141.372 198.16 144.271 192.724 145.921C192.395 150.539 192.131 159.677 193.712 159.281C195.294 158.885 205.242 163.734 210.019 166.208C213.577 168.583 212.984 165.713 211.502 164.229L206.066 158.786L216.937 163.734C218.914 164.526 220.396 162.744 219.408 161.755L211.502 155.817L221.879 161.26C225.437 162.448 225.338 159.281 223.855 158.786L211.996 151.858L221.879 156.312C225.437 158.291 225.832 153.343 223.855 152.848L207.548 146.415L213.478 143.447C215.455 142.952 214.467 139.488 211.996 140.478Z" fill="url(#paint6_linear_92_422)"/>
<path d="M84.1913 320.833C84.5913 325.516 85.1419 332.13 85.3754 335.475C85.4523 336.577 86.3828 337.466 87.4873 337.466H118.674C119.738 337.466 120.616 336.633 120.671 335.571L121.45 320.768C121.51 319.624 120.598 318.663 119.452 318.663H86.1853C85.0127 318.663 84.0915 319.664 84.1913 320.833Z" fill="#FF9C76"/>
<path d="M105.747 320.147L104.265 334.002" stroke="#EC7446" stroke-linecap="round"/>
<path d="M80.5529 199.855C78.1809 262.004 76.5927 310.251 84.4992 319.653L85.4943 319.107H105.26C106.446 300.501 111.684 266.821 114.155 252.306C113.002 264.676 110.498 290.803 109.708 296.345C108.917 301.887 113.331 313.828 115.637 319.107L120.579 319.601L121.066 319.653C123.438 320.048 133.427 241.42 135.897 197.876L80.5529 199.855Z" fill="url(#paint7_linear_92_422)"/>
<path d="M115.637 215.195V209.752M115.637 209.752V198.866H122.555L122.061 209.752H115.637Z" stroke="#E9C346"/>
<path d="M109.207 201.391L107.727 194.475L129.961 194.959L130.455 200.897L109.207 201.391Z" fill="#000034"/>
<path d="M81.0403 364.166V360.248C81.0403 359.143 81.9357 358.249 83.0403 358.249H108.689C109.794 358.249 110.689 359.144 110.689 360.249V364.166C110.689 365.271 109.794 366.166 108.689 366.166H83.0403C81.9357 366.166 81.0403 365.271 81.0403 364.166Z" fill="#FBDE5B"/>
<path d="M81.6441 356.087C82.5109 351.465 83.0723 344.32 83.4154 337.835C83.4718 336.768 84.3445 335.931 85.4121 335.931H119.892C120.626 335.931 121.284 336.33 121.656 336.963C126.205 344.706 137.828 357.991 153.557 358.692H156.158C155.279 358.731 154.412 358.73 153.557 358.692H121.304C121.15 358.692 120.998 358.71 120.849 358.745L117.528 359.521C116.952 359.655 116.358 359.511 116.029 359.019C114.345 356.5 110.927 348.68 109.174 345.857C108.719 345.123 108.287 345.418 108.379 346.277L109.471 356.48C109.597 357.662 108.671 358.692 107.482 358.692H83.7178C82.3812 358.692 81.3977 357.401 81.6441 356.087Z" fill="#239898"/>
<rect x="74.623" y="226.081" width="32.6138" height="17.8135" rx="2" fill="#1C2B51"/>
<path d="M86.977 215.689C85.7911 218.065 77.2588 220.968 73.1409 222.122C73.9644 223.277 76.1058 226.18 78.0824 228.555C80.5531 231.524 78.0824 235.977 79.0706 239.441C79.8613 242.212 81.0472 241.255 81.5414 240.43L82.5297 231.029L84.0121 241.42C85.1981 243.399 87.9653 242.41 87.9653 241.42L86.977 231.029L89.9419 241.42C90.9302 244.884 93.8951 242.904 93.4009 241.42C92.9068 239.936 92.0832 234.328 90.9302 230.534L94.8834 238.946C97.6506 241.321 99.3307 237.461 98.3424 235.977L92.9068 226.575H102.79C100.813 226.575 91.4244 219.318 86.977 215.689Z" fill="url(#paint8_linear_92_422)"/>
<path d="M85.9883 206.783C81.541 212.226 69.1873 216.185 69.1873 216.68C69.5826 219.055 71.9874 221.298 73.1404 222.123C77.0936 220.803 85.3953 217.669 86.9766 215.69C88.5579 213.711 86.9766 208.927 85.9883 206.783Z" fill="white"/>
<path d="M116.625 115.737C109.905 113.757 111.183 111.829 109.7 112.323C109.206 112.817 110.3 112.471 112.672 117.221C115.044 121.971 114.648 129.756 114.154 133.055C116.921 138.597 125.019 198.917 126.501 202.876C127.984 206.834 129.96 204.855 136.384 202.876C142.808 200.897 148.25 195.237 151.215 193.918L150.227 183.527C151.413 180.36 144.462 164.724 140.838 157.301C145.286 159.116 151.215 163.29 159.616 162.301C164.735 161.698 172.128 163.455 177.398 162.301C183.822 160.894 187.453 159.94 188.771 159.281C191.143 158.885 188.771 147.9 185.806 146.91C180.37 147.075 167.522 147.504 159.616 147.9C149.733 148.395 144.297 138.498 138.367 127.612C132.438 116.726 125.026 118.211 116.625 115.737Z" fill="url(#paint9_linear_92_422)"/>
<path d="M56.3389 171.651C56.0975 185.159 62.7632 201.34 69.1869 217.174C71.9539 217.174 81.5407 210.907 85.9882 207.773C85.9882 207.773 84.0183 203.917 85.9882 201.886C87.958 199.856 100.631 203.371 109.701 203.371C118.77 203.371 102.789 135.529 102.789 135.529C95.6735 128.404 94.3819 117.272 93.3936 113.809C91.0217 119.351 77.7522 124.314 71.6576 125.633C65.2339 141.467 56.6283 155.457 56.3389 171.651Z" fill="url(#paint10_linear_92_422)"/>
<path d="M119.66 365.447L116.392 361.53C115.305 360.228 116.231 358.249 117.927 358.249H155.139C156.244 358.249 157.139 359.144 157.139 360.249V364.166C157.139 365.271 156.244 366.166 155.139 366.166H121.195C120.602 366.166 120.04 365.903 119.66 365.447Z" fill="#FBDE5B"/>
<rect x="102.782" y="100.943" width="5.92978" height="2.96891" rx="1.48446" fill="white"/>
<path d="M107.724 95.9951C108.712 96.4899 109.7 96.5889 109.7 98.964" stroke="black" stroke-linecap="round"/>
<path d="M82.0348 191.939C82.0348 190.454 74.1284 165.713 87.9646 148.395" stroke="#1A2D56"/>
<path d="M316.913 108.488V89.6879H318.553V108.488H316.913ZM317.533 106.288C316.439 106.288 315.393 106.135 314.393 105.828C313.393 105.508 312.599 105.101 312.013 104.608L312.913 102.588C313.473 103.028 314.166 103.395 314.993 103.688C315.819 103.981 316.666 104.128 317.533 104.128C318.266 104.128 318.859 104.048 319.313 103.888C319.766 103.728 320.099 103.515 320.313 103.248C320.526 102.968 320.633 102.655 320.633 102.308C320.633 101.881 320.479 101.541 320.173 101.288C319.866 101.021 319.466 100.815 318.973 100.668C318.493 100.508 317.953 100.361 317.353 100.228C316.766 100.095 316.173 99.9412 315.573 99.7679C314.986 99.5812 314.446 99.3479 313.953 99.0679C313.473 98.7746 313.079 98.3879 312.773 97.9079C312.466 97.4279 312.313 96.8146 312.313 96.0679C312.313 95.3079 312.513 94.6146 312.913 93.9879C313.326 93.3479 313.946 92.8412 314.773 92.4679C315.613 92.0812 316.673 91.8879 317.953 91.8879C318.793 91.8879 319.626 91.9946 320.453 92.2079C321.279 92.4212 321.999 92.7279 322.613 93.1279L321.793 95.1479C321.166 94.7746 320.519 94.5012 319.853 94.3279C319.186 94.1412 318.546 94.0479 317.933 94.0479C317.213 94.0479 316.626 94.1346 316.173 94.3079C315.733 94.4812 315.406 94.7079 315.193 94.9879C314.993 95.2679 314.893 95.5879 314.893 95.9479C314.893 96.3746 315.039 96.7212 315.333 96.9879C315.639 97.2412 316.033 97.4412 316.513 97.5879C317.006 97.7346 317.553 97.8812 318.153 98.0279C318.753 98.1612 319.346 98.3146 319.933 98.4879C320.533 98.6612 321.073 98.8879 321.553 99.1679C322.046 99.4479 322.439 99.8279 322.733 100.308C323.039 100.788 323.193 101.395 323.193 102.128C323.193 102.875 322.986 103.568 322.573 104.208C322.173 104.835 321.553 105.341 320.713 105.728C319.873 106.101 318.813 106.288 317.533 106.288Z" fill="#249898"/>
<path d="M160.104 57.3994L157.139 70.2647" stroke="#287975" stroke-linecap="square"/>
<path d="M152.198 65.3162L164.057 63.3369" stroke="#287975" stroke-linecap="square"/>
<g filter="url(#filter10_f_92_422)">
<ellipse cx="178.881" cy="61.3574" rx="4.94148" ry="4.94819" fill="#FFDF5B"/>
</g>
<path d="M155.162 46.5131L158.127 32.6582L168.01 41.5649L155.162 46.5131Z" fill="#F55B7D"/>
<path d="M702.678 208.813L699.713 221.679" stroke="#287975" stroke-linecap="square"/>
<path d="M694.772 216.73L706.632 214.751" stroke="#287975" stroke-linecap="square"/>
<g filter="url(#filter11_f_92_422)">
<ellipse cx="721.457" cy="212.772" rx="4.94148" ry="4.94819" fill="#FFDF5B"/>
</g>
<path d="M697.737 197.927L700.702 184.072L710.585 192.979L697.737 197.927Z" fill="#F55B7D"/>
<path d="M405.201 165.27L402.236 178.135" stroke="#287975" stroke-linecap="square"/>
<path d="M397.295 173.186L409.154 171.207" stroke="#287975" stroke-linecap="square"/>
<g filter="url(#filter12_f_92_422)">
<ellipse cx="423.979" cy="169.227" rx="4.94148" ry="4.94819" fill="#FFDF5B"/>
</g>
<path d="M400.26 154.383L403.224 140.528L413.107 149.435L400.26 154.383Z" fill="#F55B7D"/>
<path d="M455.047 65.4128C462.333 65.1175 465.772 57.3578 466.587 53.4404C466.587 63.0253 474.568 65.4215 478.558 65.4215C469.051 65.4215 466.637 72.1281 466.555 76.3231C466.576 76.6724 466.587 77.0321 466.587 77.4026C466.559 77.0684 466.547 76.7062 466.555 76.3231C466.02 67.5885 458.995 65.415 455.047 65.4128C454.905 65.4186 454.761 65.4215 454.616 65.4215C454.755 65.4157 454.899 65.4127 455.047 65.4128Z" fill="white"/>
<path d="M633.928 101.04C641.214 100.744 644.653 92.9847 645.469 89.0674C645.469 98.6522 653.449 101.048 657.439 101.048C647.933 101.048 645.518 107.755 645.436 111.95C645.458 112.299 645.469 112.659 645.469 113.03C645.441 112.695 645.429 112.333 645.436 111.95C644.902 103.215 637.876 101.042 633.928 101.04C633.786 101.046 633.643 101.048 633.498 101.048C633.637 101.043 633.78 101.04 633.928 101.04Z" fill="white"/>
<defs>
<filter id="filter0_f_92_422" x="473.726" y="128.438" width="138.989" height="42.5928" filterUnits="userSpaceOnUse" color-interpolation-filters="sRGB">
<feFlood flood-opacity="0" result="BackgroundImageFix"/>
<feBlend mode="normal" in="SourceGraphic" in2="BackgroundImageFix" result="shape"/>
<feGaussianBlur stdDeviation="2.5" result="effect1_foregroundBlur_92_422"/>
</filter>
<filter id="filter1_i_92_422" x="567.934" y="184.138" width="36.165" height="16.0713" filterUnits="userSpaceOnUse" color-interpolation-filters="sRGB">
<feFlood flood-opacity="0" result="BackgroundImageFix"/>
<feBlend mode="normal" in="SourceGraphic" in2="BackgroundImageFix" result="shape"/>
<feColorMatrix in="SourceAlpha" type="matrix" values="0 0 0 0 0 0 0 0 0 0 0 0 0 0 0 0 0 0 127 0" result="hardAlpha"/>
<feOffset dy="4"/>
<feGaussianBlur stdDeviation="2"/>
<feComposite in2="hardAlpha" operator="arithmetic" k2="-1" k3="1"/>
<feColorMatrix type="matrix" values="0 0 0 0 0 0 0 0 0 0 0 0 0 0 0 0 0 0 0.25 0"/>
<feBlend mode="normal" in2="shape" result="effect1_innerShadow_92_422"/>
</filter>
<filter id="filter2_d_92_422" x="27.5969" y="162.965" width="547.074" height="228.577" filterUnits="userSpaceOnUse" color-interpolation-filters="sRGB">
<feFlood flood-opacity="0" result="BackgroundImageFix"/>
<feColorMatrix in="SourceAlpha" type="matrix" values="0 0 0 0 0 0 0 0 0 0 0 0 0 0 0 0 0 0 127 0" result="hardAlpha"/>
<feOffset dx="7" dy="2"/>
<feGaussianBlur stdDeviation="5.5"/>
<feComposite in2="hardAlpha" operator="out"/>
<feColorMatrix type="matrix" values="0 0 0 0 0 0 0 0 0 0 0 0 0 0 0 0 0 0 0.25 0"/>
<feBlend mode="normal" in2="BackgroundImageFix" result="effect1_dropShadow_92_422"/>
<feBlend mode="normal" in="SourceGraphic" in2="effect1_dropShadow_92_422" result="shape"/>
</filter>
<filter id="filter3_i_92_422" x="147.483" y="239.987" width="133.435" height="89.9412" filterUnits="userSpaceOnUse" color-interpolation-filters="sRGB">
<feFlood flood-opacity="0" result="BackgroundImageFix"/>
<feBlend mode="normal" in="SourceGraphic" in2="BackgroundImageFix" result="shape"/>
<feColorMatrix in="SourceAlpha" type="matrix" values="0 0 0 0 0 0 0 0 0 0 0 0 0 0 0 0 0 0 127 0" result="hardAlpha"/>
<feOffset dy="4"/>
<feGaussianBlur stdDeviation="2"/>
<feComposite in2="hardAlpha" operator="arithmetic" k2="-1" k3="1"/>
<feColorMatrix type="matrix" values="0 0 0 0 0 0 0 0 0 0 0 0 0 0 0 0 0 0 0.25 0"/>
<feBlend mode="normal" in2="shape" result="effect1_innerShadow_92_422"/>
</filter>
<filter id="filter4_i_92_422" x="281.913" y="240.988" width="127.71" height="89.1089" filterUnits="userSpaceOnUse" color-interpolation-filters="sRGB">
<feFlood flood-opacity="0" result="BackgroundImageFix"/>
<feBlend mode="normal" in="SourceGraphic" in2="BackgroundImageFix" result="shape"/>
<feColorMatrix in="SourceAlpha" type="matrix" values="0 0 0 0 0 0 0 0 0 0 0 0 0 0 0 0 0 0 127 0" result="hardAlpha"/>
<feOffset dy="4"/>
<feGaussianBlur stdDeviation="2"/>
<feComposite in2="hardAlpha" operator="arithmetic" k2="-1" k3="1"/>
<feColorMatrix type="matrix" values="0 0 0 0 0 0 0 0 0 0 0 0 0 0 0 0 0 0 0.25 0"/>
<feBlend mode="normal" in2="shape" result="effect1_innerShadow_92_422"/>
</filter>
<filter id="filter5_i_92_422" x="38.0488" y="239.492" width="517.42" height="46.562" filterUnits="userSpaceOnUse" color-interpolation-filters="sRGB">
<feFlood flood-opacity="0" result="BackgroundImageFix"/>
<feBlend mode="normal" in="SourceGraphic" in2="BackgroundImageFix" result="shape"/>
<feColorMatrix in="SourceAlpha" type="matrix" values="0 0 0 0 0 0 0 0 0 0 0 0 0 0 0 0 0 0 127 0" result="hardAlpha"/>
<feOffset dx="4" dy="4"/>
<feGaussianBlur stdDeviation="2"/>
<feComposite in2="hardAlpha" operator="arithmetic" k2="-1" k3="1"/>
<feColorMatrix type="matrix" values="0 0 0 0 0.0454514 0 0 0 0 0.821348 0 0 0 0 0.991667 0 0 0 0.49 0"/>
<feBlend mode="normal" in2="shape" result="effect1_innerShadow_92_422"/>
</filter>
<filter id="filter6_i_92_422" x="150.66" y="179.706" width="130.124" height="61.8071" filterUnits="userSpaceOnUse" color-interpolation-filters="sRGB">
<feFlood flood-opacity="0" result="BackgroundImageFix"/>
<feBlend mode="normal" in="SourceGraphic" in2="BackgroundImageFix" result="shape"/>
<feColorMatrix in="SourceAlpha" type="matrix" values="0 0 0 0 0 0 0 0 0 0 0 0 0 0 0 0 0 0 127 0" result="hardAlpha"/>
<feOffset dx="4" dy="4"/>
<feGaussianBlur stdDeviation="2"/>
<feComposite in2="hardAlpha" operator="arithmetic" k2="-1" k3="1"/>
<feColorMatrix type="matrix" values="0 0 0 0 0 0 0 0 0 0 0 0 0 0 0 0 0 0 0.25 0"/>
<feBlend mode="normal" in2="shape" result="effect1_innerShadow_92_422"/>
</filter>
<filter id="filter7_i_92_422" x="264.785" y="179.104" width="149.36" height="62.3757" filterUnits="userSpaceOnUse" color-interpolation-filters="sRGB">
<feFlood flood-opacity="0" result="BackgroundImageFix"/>
<feBlend mode="normal" in="SourceGraphic" in2="BackgroundImageFix" result="shape"/>
<feColorMatrix in="SourceAlpha" type="matrix" values="0 0 0 0 0 0 0 0 0 0 0 0 0 0 0 0 0 0 127 0" result="hardAlpha"/>
<feOffset dx="4" dy="4"/>
<feGaussianBlur stdDeviation="2"/>
<feComposite in2="hardAlpha" operator="arithmetic" k2="-1" k3="1"/>
<feColorMatrix type="matrix" values="0 0 0 0 0 0 0 0 0 0 0 0 0 0 0 0 0 0 0.25 0"/>
<feBlend mode="normal" in2="shape" result="effect1_innerShadow_92_422"/>
</filter>
<filter id="filter8_d_92_422" x="159.069" y="250.378" width="33.6958" height="16.9067" filterUnits="userSpaceOnUse" color-interpolation-filters="sRGB">
<feFlood flood-opacity="0" result="BackgroundImageFix"/>
<feColorMatrix in="SourceAlpha" type="matrix" values="0 0 0 0 0 0 0 0 0 0 0 0 0 0 0 0 0 0 127 0" result="hardAlpha"/>
<feOffset dy="4"/>
<feGaussianBlur stdDeviation="2"/>
<feComposite in2="hardAlpha" operator="out"/>
<feColorMatrix type="matrix" values="0 0 0 0 0 0 0 0 0 0 0 0 0 0 0 0 0 0 0.25 0"/>
<feBlend mode="normal" in2="BackgroundImageFix" result="effect1_dropShadow_92_422"/>
<feBlend mode="normal" in="SourceGraphic" in2="effect1_dropShadow_92_422" result="shape"/>
</filter>
<filter id="filter9_d_92_422" x="286.559" y="250.378" width="33.6958" height="16.9067" filterUnits="userSpaceOnUse" color-interpolation-filters="sRGB">
<feFlood flood-opacity="0" result="BackgroundImageFix"/>
<feColorMatrix in="SourceAlpha" type="matrix" values="0 0 0 0 0 0 0 0 0 0 0 0 0 0 0 0 0 0 127 0" result="hardAlpha"/>
<feOffset dy="4"/>
<feGaussianBlur stdDeviation="2"/>
<feComposite in2="hardAlpha" operator="out"/>
<feColorMatrix type="matrix" values="0 0 0 0 0 0 0 0 0 0 0 0 0 0 0 0 0 0 0.25 0"/>
<feBlend mode="normal" in2="BackgroundImageFix" result="effect1_dropShadow_92_422"/>
<feBlend mode="normal" in="SourceGraphic" in2="effect1_dropShadow_92_422" result="shape"/>
</filter>
<filter id="filter10_f_92_422" x="169.939" y="52.4092" width="17.8831" height="17.8965" filterUnits="userSpaceOnUse" color-interpolation-filters="sRGB">
<feFlood flood-opacity="0" result="BackgroundImageFix"/>
<feBlend mode="normal" in="SourceGraphic" in2="BackgroundImageFix" result="shape"/>
<feGaussianBlur stdDeviation="2" result="effect1_foregroundBlur_92_422"/>
</filter>
<filter id="filter11_f_92_422" x="712.515" y="203.824" width="17.8831" height="17.8965" filterUnits="userSpaceOnUse" color-interpolation-filters="sRGB">
<feFlood flood-opacity="0" result="BackgroundImageFix"/>
<feBlend mode="normal" in="SourceGraphic" in2="BackgroundImageFix" result="shape"/>
<feGaussianBlur stdDeviation="2" result="effect1_foregroundBlur_92_422"/>
</filter>
<filter id="filter12_f_92_422" x="415.038" y="160.279" width="17.8831" height="17.8965" filterUnits="userSpaceOnUse" color-interpolation-filters="sRGB">
<feFlood flood-opacity="0" result="BackgroundImageFix"/>
<feBlend mode="normal" in="SourceGraphic" in2="BackgroundImageFix" result="shape"/>
<feGaussianBlur stdDeviation="2" result="effect1_foregroundBlur_92_422"/>
</filter>
<linearGradient id="paint0_linear_92_422" x1="634.069" y1="236.045" x2="634.069" y2="348.113" gradientUnits="userSpaceOnUse">
<stop stop-color="#1B2E57"/>
<stop offset="1" stop-color="#697591"/>
</linearGradient>
<linearGradient id="paint1_linear_92_422" x1="459.439" y1="211.903" x2="591.626" y2="348.13" gradientUnits="userSpaceOnUse">
<stop stop-color="#289D9A"/>
<stop offset="1" stop-color="#35BFA8"/>
</linearGradient>
<linearGradient id="paint2_linear_92_422" x1="641.469" y1="167.238" x2="650.531" y2="187.751" gradientUnits="userSpaceOnUse">
<stop offset="0.341095" stop-color="#F3AFBC"/>
<stop offset="1" stop-color="#D11F3F"/>
</linearGradient>
<linearGradient id="paint3_linear_92_422" x1="213.719" y1="179.619" x2="213.719" y2="237.513" gradientUnits="userSpaceOnUse">
<stop stop-color="#71D5E4"/>
<stop offset="1" stop-color="#166A77"/>
<stop offset="1" stop-color="#189EB3"/>
</linearGradient>
<linearGradient id="paint4_linear_92_422" x1="338.986" y1="179.104" x2="338.986" y2="237.513" gradientUnits="userSpaceOnUse">
<stop stop-color="#71D5E4"/>
<stop offset="1" stop-color="#166A77"/>
<stop offset="1" stop-color="#189EB3"/>
</linearGradient>
<linearGradient id="paint5_linear_92_422" x1="105.254" y1="121.725" x2="120.117" y2="201.879" gradientUnits="userSpaceOnUse">
<stop stop-color="#9BD3DE"/>
<stop offset="1" stop-color="#E3E3E3"/>
</linearGradient>
<linearGradient id="paint6_linear_92_422" x1="208.756" y1="140.301" x2="208.756" y2="167.116" gradientUnits="userSpaceOnUse">
<stop stop-color="#FC966C"/>
<stop offset="1" stop-color="#DAA792"/>
</linearGradient>
<linearGradient id="paint7_linear_92_422" x1="83.0168" y1="264.728" x2="131.465" y2="286.451" gradientUnits="userSpaceOnUse">
<stop stop-color="#FEE062"/>
<stop offset="1" stop-color="#D3B019"/>
</linearGradient>
<linearGradient id="paint8_linear_92_422" x1="88.1239" y1="215.689" x2="88.1239" y2="243.345" gradientUnits="userSpaceOnUse">
<stop stop-color="#FC966C"/>
<stop offset="1" stop-color="#DAA792"/>
</linearGradient>
<linearGradient id="paint9_linear_92_422" x1="149.661" y1="112.244" x2="149.661" y2="205.161" gradientUnits="userSpaceOnUse">
<stop stop-color="#FD8197"/>
<stop offset="1" stop-color="#BE344D"/>
</linearGradient>
<linearGradient id="paint10_linear_92_422" x1="84.4094" y1="113.809" x2="84.4094" y2="217.174" gradientUnits="userSpaceOnUse">
<stop stop-color="#FD8197"/>
<stop offset="1" stop-color="#BE344D"/>
</linearGradient>
</defs>
</svg>
