<svg width="151" height="55" viewBox="0 0 151 55" fill="none" xmlns="http://www.w3.org/2000/svg">
<path fill-rule="evenodd" clip-rule="evenodd" d="M28.7011 9.34801C29.4807 4.7302 31.973 3.05255 33.8232 3.05255C35.6487 3.05255 38.0705 4.6967 38.7068 9.30355L41.6786 8.89306C40.9252 3.43891 37.7109 0.0525513 33.8232 0.0525513C29.9639 0.0525513 26.6684 3.39882 25.7456 8.83257L18.8 45.2504L21.7469 45.8124L28.6954 9.37932L28.6984 9.3637L28.7011 9.34801ZM38.7253 12.5604L45.7564 45.8416L48.6916 45.2215L41.6605 11.9403L38.7253 12.5604ZM2.97511 23.6026C-1.96306 19.827 0.706926 11.9389 6.92308 11.9389H21.4458V14.9389H6.92308C3.57593 14.9389 2.13823 19.1863 4.79725 21.2193L19.4911 32.4538L17.669 34.837L2.97511 23.6026ZM60.5733 11.9389C66.7895 11.9389 69.4595 19.827 64.5213 23.6026L49.8275 34.837L48.0053 32.4538L62.6992 21.2193C65.3582 19.1863 63.9205 14.9389 60.5733 14.9389H46.0506V11.9389H60.5733ZM30.4283 49.1901L23.3106 53.5215C20.5233 55.2177 17.1163 52.5715 18.07 49.4511L20.939 50.328C20.7913 50.8115 21.3192 51.2215 21.7511 50.9587L28.8688 46.6274L30.4283 49.1901ZM43.4969 52.3764L26.4051 39.6014L28.2011 37.1984L45.293 49.9734C45.9538 50.4673 46.8723 49.8725 46.692 49.0675L49.6195 48.4119C50.4085 51.9348 46.3886 54.5377 43.4969 52.3764Z" fill="url(#paint0_linear_149_16)"/>
<path fill-rule="evenodd" clip-rule="evenodd" d="M78.7142 22.3141C78.8942 22.6561 79.1912 22.8271 79.6052 22.8271C79.8212 22.8271 80.0102 22.7731 80.1722 22.6651C80.3522 22.5571 80.4872 22.3951 80.5772 22.1791L82.3937 17.8051H92.8408L94.6442 22.1791C94.7522 22.3951 94.8872 22.5571 95.0492 22.6651C95.2292 22.7731 95.4272 22.8271 95.6432 22.8271C96.0212 22.8271 96.3092 22.6651 96.5072 22.3411C96.7232 22.0171 96.7502 21.6841 96.5882 21.3421L88.6232 2.46911C88.4252 1.98311 88.0922 1.74011 87.6242 1.74011C87.1382 1.74011 86.7962 1.98311 86.5982 2.46911L78.6602 21.3151C78.5162 21.6391 78.5342 21.9721 78.7142 22.3141ZM92.095 15.9961L87.6362 5.18149L83.145 15.9961H92.095ZM101.479 22.4221C102.523 22.7821 103.576 22.9621 104.638 22.9621C105.772 22.9621 106.771 22.7821 107.635 22.4221C108.517 22.0621 109.201 21.5671 109.687 20.9371C110.191 20.2891 110.443 19.5421 110.443 18.6961C110.443 18.0301 110.272 17.4181 109.93 16.8601C109.606 16.2841 109.048 15.7891 108.256 15.3751C107.482 14.9431 106.42 14.6191 105.07 14.4031C104.08 14.2411 103.306 14.0431 102.748 13.8091C102.208 13.5751 101.821 13.3051 101.587 12.9991C101.371 12.6931 101.263 12.3331 101.263 11.9191C101.263 11.3071 101.56 10.8031 102.154 10.4071C102.748 9.99311 103.54 9.78611 104.53 9.78611C105.304 9.78611 105.988 9.91211 106.582 10.1641C107.176 10.3981 107.698 10.7761 108.148 11.2981C108.346 11.5141 108.58 11.6491 108.85 11.7031C109.138 11.7391 109.39 11.6941 109.606 11.5681C109.858 11.4061 110.002 11.1991 110.038 10.9471C110.074 10.6951 110.002 10.4521 109.822 10.2181C109.282 9.51611 108.571 8.95811 107.689 8.54411C106.825 8.13011 105.79 7.92311 104.584 7.92311C103.612 7.92311 102.721 8.07611 101.911 8.38211C101.101 8.68811 100.453 9.14711 99.9666 9.75911C99.4806 10.3711 99.2376 11.1361 99.2376 12.0541C99.2376 13.0441 99.6606 13.8991 100.507 14.6191C101.353 15.3391 102.685 15.8431 104.503 16.1311C105.907 16.3651 106.915 16.6981 107.527 17.1301C108.139 17.5441 108.445 18.0751 108.445 18.7231C108.427 19.3711 108.121 19.9291 107.527 20.3971C106.933 20.8471 105.97 21.0721 104.638 21.0721C103.774 21.0721 102.982 20.9371 102.262 20.6671C101.56 20.3971 100.993 20.0101 100.561 19.5061C100.381 19.3081 100.156 19.1911 99.8856 19.1551C99.6156 19.1191 99.3546 19.1911 99.1026 19.3711C98.8686 19.5691 98.7336 19.8031 98.6976 20.0731C98.6616 20.3431 98.7426 20.5861 98.9406 20.8021C99.5886 21.5221 100.435 22.0621 101.479 22.4221ZM117.248 22.1521C118.004 22.6021 118.859 22.8271 119.813 22.8271H120.38C120.704 22.8271 120.974 22.7371 121.19 22.5571C121.406 22.3591 121.514 22.1071 121.514 21.8011C121.514 21.4951 121.424 21.2431 121.244 21.0451C121.064 20.8471 120.83 20.7481 120.542 20.7481H119.813C118.967 20.7481 118.274 20.4601 117.734 19.8841C117.194 19.2901 116.924 18.5341 116.924 17.6161V10.4071H119.975C120.245 10.4071 120.47 10.3261 120.65 10.1641C120.83 9.98411 120.92 9.76811 120.92 9.51611C120.92 9.24611 120.83 9.03011 120.65 8.86811C120.47 8.68811 120.245 8.59811 119.975 8.59811H116.924V4.41311C116.924 4.10711 116.825 3.85511 116.627 3.65711C116.429 3.45911 116.177 3.36011 115.871 3.36011C115.565 3.36011 115.313 3.45911 115.115 3.65711C114.935 3.85511 114.845 4.10711 114.845 4.41311V8.59811H113.09C112.82 8.59811 112.595 8.68811 112.415 8.86811C112.235 9.03011 112.145 9.24611 112.145 9.51611C112.145 9.76811 112.235 9.98411 112.415 10.1641C112.595 10.3261 112.82 10.4071 113.09 10.4071H114.845V17.6161C114.845 18.6241 115.061 19.5241 115.493 20.3161C115.925 21.0901 116.51 21.7021 117.248 22.1521ZM126.951 13.7281V21.8011C126.951 22.1251 126.861 22.3771 126.681 22.5571C126.501 22.7371 126.249 22.8271 125.925 22.8271C125.601 22.8271 125.349 22.7371 125.169 22.5571C124.989 22.3771 124.899 22.1251 124.899 21.8011V9.08411C124.899 8.76011 124.989 8.50811 125.169 8.32811C125.349 8.14811 125.601 8.05811 125.925 8.05811C126.249 8.05811 126.501 8.14811 126.681 8.32811C126.861 8.50811 126.951 8.76011 126.951 9.08411V10.2493C127.435 9.59287 128.02 9.06046 128.706 8.65211C129.57 8.14811 130.524 7.89611 131.568 7.89611C132.396 7.89611 133.035 8.01311 133.485 8.24711C133.935 8.48111 134.106 8.82311 133.998 9.27311C133.926 9.54311 133.8 9.72311 133.62 9.81311C133.458 9.90311 133.251 9.93911 132.999 9.92111C132.765 9.90311 132.495 9.88511 132.189 9.86711C131.181 9.77711 130.281 9.88511 129.489 10.1911C128.715 10.4791 128.094 10.9291 127.626 11.5411C127.176 12.1531 126.951 12.8821 126.951 13.7281ZM138.965 21.9901C140.063 22.6381 141.305 22.9621 142.691 22.9621C144.005 22.9621 145.175 22.6651 146.201 22.0711C147.052 21.5718 147.754 20.9347 148.307 20.1598V21.8011C148.307 22.1071 148.406 22.3591 148.604 22.5571C148.802 22.7371 149.054 22.8271 149.36 22.8271C149.666 22.8271 149.918 22.7371 150.116 22.5571C150.314 22.3591 150.413 22.1071 150.413 21.8011V15.4561C150.395 14.0161 150.053 12.7291 149.387 11.5951C148.739 10.4611 147.848 9.57011 146.714 8.92211C145.598 8.25611 144.329 7.92311 142.907 7.92311C141.485 7.92311 140.207 8.25611 139.073 8.92211C137.939 9.57011 137.039 10.4611 136.373 11.5951C135.725 12.7291 135.401 14.0161 135.401 15.4561C135.401 16.8781 135.716 18.1561 136.346 19.2901C136.994 20.4241 137.867 21.3241 138.965 21.9901ZM145.688 20.3431C144.878 20.8291 143.951 21.0721 142.907 21.0721C141.881 21.0721 140.954 20.8291 140.126 20.3431C139.298 19.8571 138.641 19.1911 138.155 18.3451C137.669 17.4811 137.426 16.5181 137.426 15.4561C137.426 14.3761 137.669 13.4131 138.155 12.5671C138.641 11.7211 139.298 11.0551 140.126 10.5691C140.954 10.0651 141.881 9.81311 142.907 9.81311C143.951 9.81311 144.878 10.0651 145.688 10.5691C146.516 11.0551 147.164 11.7211 147.632 12.5671C148.118 13.4131 148.361 14.3761 148.361 15.4561C148.361 16.5181 148.118 17.4811 147.632 18.3451C147.164 19.1911 146.516 19.8571 145.688 20.3431ZM79.0258 51.9036C79.1458 52.1316 79.3438 52.2456 79.6198 52.2456C79.7638 52.2456 79.8898 52.2096 79.9978 52.1376C80.1178 52.0656 80.2078 51.9576 80.2678 51.8136L81.4787 48.8976H88.4435L89.6458 51.8136C89.7178 51.9576 89.8077 52.0656 89.9158 52.1376C90.0358 52.2096 90.1678 52.2456 90.3118 52.2456C90.5638 52.2456 90.7558 52.1376 90.8878 51.9216C91.0318 51.7056 91.0498 51.4836 90.9418 51.2556L85.6318 38.6736C85.4998 38.3496 85.2778 38.1876 84.9658 38.1876C84.6418 38.1876 84.4138 38.3496 84.2818 38.6736L78.9898 51.2376C78.8938 51.4536 78.9058 51.6756 79.0258 51.9036ZM87.9463 47.6916L84.9737 40.4818L81.9796 47.6916H87.9463ZM94.868 51.8316C95.54 52.1796 96.302 52.3536 97.154 52.3536C97.934 52.3536 98.642 52.1856 99.278 51.8496C99.7281 51.6033 100.112 51.2969 100.43 50.9304V51.5436C100.43 51.7596 100.49 51.9336 100.61 52.0656C100.742 52.1856 100.91 52.2456 101.114 52.2456C101.318 52.2456 101.486 52.1856 101.618 52.0656C101.75 51.9336 101.816 51.7596 101.816 51.5436V43.0836C101.816 42.8796 101.75 42.7176 101.618 42.5976C101.486 42.4656 101.318 42.3996 101.114 42.3996C100.91 42.3996 100.742 42.4656 100.61 42.5976C100.49 42.7176 100.43 42.8796 100.43 43.0836V48.4116C100.43 48.9156 100.292 49.3656 100.016 49.7616C99.74 50.1576 99.362 50.4696 98.882 50.6976C98.414 50.9256 97.886 51.0396 97.298 51.0396C96.686 51.0396 96.134 50.9196 95.642 50.6796C95.162 50.4396 94.778 50.0796 94.49 49.5996C94.214 49.1196 94.076 48.5076 94.076 47.7636V43.0836C94.076 42.8916 94.01 42.7296 93.878 42.5976C93.746 42.4656 93.578 42.3996 93.374 42.3996C93.182 42.3996 93.02 42.4656 92.888 42.5976C92.756 42.7296 92.69 42.8916 92.69 43.0836V47.7636C92.69 48.7476 92.882 49.5816 93.266 50.2656C93.662 50.9496 94.196 51.4716 94.868 51.8316ZM107.194 51.7956C107.698 52.0956 108.268 52.2456 108.904 52.2456H109.282C109.498 52.2456 109.678 52.1856 109.822 52.0656C109.966 51.9336 110.038 51.7656 110.038 51.5616C110.038 51.3576 109.978 51.1896 109.858 51.0576C109.738 50.9256 109.582 50.8596 109.39 50.8596H108.904C108.34 50.8596 107.878 50.6676 107.518 50.2836C107.158 49.8876 106.978 49.3836 106.978 48.7716V43.9656H109.012C109.192 43.9656 109.342 43.9116 109.462 43.8036C109.582 43.6836 109.642 43.5396 109.642 43.3716C109.642 43.1916 109.582 43.0476 109.462 42.9396C109.342 42.8196 109.192 42.7596 109.012 42.7596H106.978V39.9696C106.978 39.7656 106.912 39.5976 106.78 39.4656C106.648 39.3336 106.48 39.2676 106.276 39.2676C106.072 39.2676 105.904 39.3336 105.772 39.4656C105.652 39.5976 105.592 39.7656 105.592 39.9696V42.7596H104.422C104.242 42.7596 104.092 42.8196 103.972 42.9396C103.852 43.0476 103.792 43.1916 103.792 43.3716C103.792 43.5396 103.852 43.6836 103.972 43.8036C104.092 43.9116 104.242 43.9656 104.422 43.9656H105.592V48.7716C105.592 49.4436 105.736 50.0436 106.024 50.5716C106.312 51.0876 106.702 51.4956 107.194 51.7956ZM114.202 51.6876C114.958 52.1196 115.816 52.3356 116.776 52.3356C117.736 52.3356 118.588 52.1196 119.332 51.6876C120.088 51.2556 120.682 50.6616 121.114 49.9056C121.558 49.1496 121.78 48.2916 121.78 47.3316C121.768 46.3596 121.546 45.4956 121.114 44.7396C120.682 43.9836 120.088 43.3896 119.332 42.9576C118.588 42.5256 117.736 42.3096 116.776 42.3096C115.816 42.3096 114.958 42.5256 114.202 42.9576C113.446 43.3896 112.852 43.9836 112.42 44.7396C111.988 45.4956 111.772 46.3596 111.772 47.3316C111.772 48.2916 111.988 49.1496 112.42 49.9056C112.852 50.6616 113.446 51.2556 114.202 51.6876ZM118.648 50.5896C118.096 50.9136 117.472 51.0756 116.776 51.0756C116.08 51.0756 115.456 50.9136 114.904 50.5896C114.352 50.2656 113.914 49.8216 113.59 49.2576C113.278 48.6936 113.122 48.0516 113.122 47.3316C113.122 46.6116 113.278 45.9696 113.59 45.4056C113.914 44.8296 114.352 44.3796 114.904 44.0556C115.456 43.7316 116.08 43.5696 116.776 43.5696C117.472 43.5696 118.096 43.7316 118.648 44.0556C119.2 44.3796 119.632 44.8296 119.944 45.4056C120.256 45.9696 120.412 46.6116 120.412 47.3316C120.412 48.0516 120.256 48.6936 119.944 49.2576C119.632 49.8216 119.2 50.2656 118.648 50.5896Z" fill="url(#paint1_linear_149_16)"/>
<defs>
<linearGradient id="paint0_linear_149_16" x1="26.4513" y1="-0.556681" x2="86.6039" y2="87.5057" gradientUnits="userSpaceOnUse">
<stop stop-color="#29D4A1"/>
<stop offset="1" stop-color="#188EA6"/>
</linearGradient>
<linearGradient id="paint1_linear_149_16" x1="104.271" y1="1.31505" x2="132.059" y2="46.7503" gradientUnits="userSpaceOnUse">
<stop stop-color="#28D0A1"/>
<stop offset="1" stop-color="#1B9DA5"/>
</linearGradient>
</defs>
</svg>
