<svg width="154" height="61" viewBox="0 0 154 61" fill="none" xmlns="http://www.w3.org/2000/svg">
<path d="M45.926 11.1082C44.5823 1.63061 35.0274 1.6306 33.3851 11.1082L26.6667 45.4286" stroke="#93D7E9" stroke-width="3.5"/>
<path d="M46.3999 13.375L53.3331 45.4286" stroke="#93D7E9" stroke-width="3.5"/>
<path d="M28.1481 15.4286H16.0697C11.162 15.4286 9.19157 21.7615 13.2328 24.5459L24.8 32.5156" stroke="#93D7E9" stroke-width="3.5"/>
<path d="M51.8519 15.4286H64.6928C69.5285 15.4286 71.5476 21.6099 67.6443 24.4645L54.6055 34" stroke="#93D7E9" stroke-width="3.5"/>
<path d="M26.5783 48.8412V48.8412C26.1022 50.6045 28.0818 52.0049 29.586 50.9689L35.5557 46.8571" stroke="#93D7E9" stroke-width="3.5"/>
<path d="M53.5001 48.0499V48.0499C53.9587 50.1256 51.6061 51.6658 49.8871 50.4152L32.7999 37.9844" stroke="#93D7E9" stroke-width="3.5"/>
<path d="M83.504 28L92.212 8.26H94.228L103.076 28H100.668L98.204 22.372L99.24 22.96H87.172L88.292 22.372L85.884 28H83.504ZM93.192 10.92L88.656 21.56L87.984 21.056H98.4L97.896 21.56L93.248 10.92H93.192ZM110.314 28.252C109.194 28.252 108.148 28.1027 107.178 27.804C106.207 27.4867 105.404 27.048 104.77 26.488L105.554 24.892C106.244 25.4333 106.991 25.8347 107.794 26.096C108.615 26.3573 109.464 26.488 110.342 26.488C111.462 26.488 112.302 26.292 112.862 25.9C113.44 25.4893 113.73 24.9293 113.73 24.22C113.73 23.6787 113.543 23.2493 113.17 22.932C112.815 22.596 112.227 22.3347 111.406 22.148L108.802 21.616C107.607 21.3547 106.711 20.916 106.114 20.3C105.516 19.6653 105.218 18.8627 105.218 17.892C105.218 17.0707 105.432 16.352 105.862 15.736C106.291 15.1013 106.916 14.6067 107.738 14.252C108.559 13.8787 109.52 13.692 110.622 13.692C111.648 13.692 112.591 13.8507 113.45 14.168C114.327 14.4667 115.055 14.9053 115.634 15.484L114.822 17.052C114.262 16.5107 113.618 16.1093 112.89 15.848C112.18 15.568 111.443 15.428 110.678 15.428C109.576 15.428 108.746 15.652 108.186 16.1C107.644 16.5293 107.374 17.0987 107.374 17.808C107.374 18.3493 107.542 18.7973 107.878 19.152C108.232 19.488 108.774 19.74 109.502 19.908L112.106 20.44C113.375 20.72 114.318 21.1587 114.934 21.756C115.568 22.3347 115.886 23.1187 115.886 24.108C115.886 24.948 115.652 25.6853 115.186 26.32C114.719 26.936 114.066 27.412 113.226 27.748C112.404 28.084 111.434 28.252 110.314 28.252ZM124.376 28.252C122.994 28.252 121.94 27.86 121.212 27.076C120.484 26.2733 120.12 25.0693 120.12 23.464V15.708H117.376V13.944H120.12V10.108L122.388 9.464V13.944H126.42V15.708H122.388V23.212C122.388 24.332 122.574 25.1347 122.948 25.62C123.34 26.0867 123.918 26.32 124.684 26.32C125.038 26.32 125.356 26.292 125.636 26.236C125.916 26.1613 126.168 26.0773 126.392 25.984V27.888C126.13 28 125.813 28.084 125.44 28.14C125.085 28.2147 124.73 28.252 124.376 28.252ZM129.125 28V17.332C129.125 16.772 129.106 16.2027 129.069 15.624C129.05 15.0453 129.013 14.4853 128.957 13.944H131.141L131.421 17.36L131.029 17.388C131.215 16.548 131.542 15.8573 132.009 15.316C132.475 14.7747 133.026 14.3733 133.661 14.112C134.295 13.832 134.958 13.692 135.649 13.692C135.929 13.692 136.171 13.7013 136.377 13.72C136.601 13.7387 136.806 13.7853 136.993 13.86L136.965 15.876C136.685 15.7827 136.423 15.7267 136.181 15.708C135.957 15.6707 135.695 15.652 135.397 15.652C134.575 15.652 133.857 15.848 133.241 16.24C132.643 16.632 132.186 17.136 131.869 17.752C131.57 18.368 131.421 19.0213 131.421 19.712V28H129.125ZM144.564 28.252C143.313 28.252 142.221 27.9627 141.288 27.384C140.355 26.7867 139.627 25.9467 139.104 24.864C138.6 23.7813 138.348 22.484 138.348 20.972C138.348 19.4413 138.6 18.1347 139.104 17.052C139.627 15.9693 140.355 15.1387 141.288 14.56C142.221 13.9813 143.313 13.692 144.564 13.692C145.833 13.692 146.925 14.0187 147.84 14.672C148.773 15.3067 149.389 16.1747 149.688 17.276H149.352L149.66 13.944H151.844C151.788 14.4853 151.732 15.036 151.676 15.596C151.639 16.1373 151.62 16.6693 151.62 17.192V28H149.352V24.696H149.66C149.361 25.7973 148.745 26.6653 147.812 27.3C146.879 27.9347 145.796 28.252 144.564 28.252ZM145.012 26.404C146.356 26.404 147.42 25.9467 148.204 25.032C148.988 24.0987 149.38 22.7453 149.38 20.972C149.38 19.18 148.988 17.8267 148.204 16.912C147.42 15.9787 146.356 15.512 145.012 15.512C143.687 15.512 142.623 15.9787 141.82 16.912C141.036 17.8267 140.644 19.18 140.644 20.972C140.644 22.7453 141.036 24.0987 141.82 25.032C142.623 25.9467 143.687 26.404 145.012 26.404Z" fill="#2C2931"/>
<path d="M83.418 53L90.26 37.49H91.8L98.642 53H96.772L95.056 49.04H86.982L85.288 53H83.418ZM91.008 39.602L87.642 47.522H94.418L91.052 39.602H91.008ZM104.483 53.198C101.917 53.198 100.633 51.7827 100.633 48.952V42.308H102.415V48.93C102.415 49.8833 102.606 50.5873 102.987 51.042C103.383 51.4967 103.999 51.724 104.835 51.724C105.745 51.724 106.485 51.4233 107.057 50.822C107.629 50.206 107.915 49.392 107.915 48.38V42.308H109.697V53H107.959V51.196C107.622 51.8413 107.145 52.34 106.529 52.692C105.928 53.0293 105.246 53.198 104.483 53.198ZM117.321 53.198C116.06 53.198 115.114 52.868 114.483 52.208C113.853 51.5333 113.537 50.5653 113.537 49.304V43.694H111.447V42.308H113.537V39.03H115.319V42.308H118.707V43.694H115.319V49.128C115.319 49.964 115.495 50.602 115.847 51.042C116.199 51.4673 116.771 51.68 117.563 51.68C117.798 51.68 118.033 51.6507 118.267 51.592C118.502 51.5333 118.715 51.4747 118.905 51.416L119.213 52.78C119.023 52.8827 118.744 52.978 118.377 53.066C118.011 53.154 117.659 53.198 117.321 53.198ZM125.059 53.198C124.018 53.198 123.116 52.9707 122.353 52.516C121.591 52.0613 120.997 51.4233 120.571 50.602C120.161 49.766 119.955 48.7833 119.955 47.654C119.955 46.5247 120.161 45.5493 120.571 44.728C120.997 43.892 121.591 43.2467 122.353 42.792C123.116 42.3373 124.018 42.11 125.059 42.11C126.086 42.11 126.981 42.3373 127.743 42.792C128.521 43.2467 129.115 43.892 129.525 44.728C129.951 45.5493 130.163 46.5247 130.163 47.654C130.163 48.7833 129.951 49.766 129.525 50.602C129.115 51.4233 128.521 52.0613 127.743 52.516C126.981 52.9707 126.086 53.198 125.059 53.198ZM125.059 51.768C126.057 51.768 126.856 51.416 127.457 50.712C128.059 49.9933 128.359 48.974 128.359 47.654C128.359 46.3193 128.059 45.3 127.457 44.596C126.856 43.892 126.057 43.54 125.059 43.54C124.047 43.54 123.241 43.892 122.639 44.596C122.053 45.3 121.759 46.3193 121.759 47.654C121.759 48.974 122.053 49.9933 122.639 50.712C123.241 51.416 124.047 51.768 125.059 51.768Z" fill="#93D7E9"/>
</svg>
