<svg width="25" height="26" viewBox="0 0 25 26" fill="none" xmlns="http://www.w3.org/2000/svg">
<path d="M2.27778 1L8.41111 3.0967C9.30562 3.46364 9.74352 4.25873 9.89606 4.74436C9.93457 4.86696 9.94444 4.996 9.94444 5.1245V21.967M2.27778 1C1.85185 1 1 1.3145 1 2.57252V20.9186C1 21.5302 1.25556 22.8056 2.27778 23.0153L7.64444 24.8499C8.41111 25.112 9.94444 25.2168 9.94444 23.5395V21.967M2.27778 1H14.1432C14.2402 1 14.3371 1.0055 14.4318 1.02646C15.0567 1.16476 16.0778 1.67058 16.0778 2.83461C16.0778 4.09263 16.0778 6.85328 16.0778 8.07635M9.94444 21.967H14.1432C14.2402 21.967 14.3371 21.9615 14.4318 21.9405C15.0567 21.8022 16.0778 21.2964 16.0778 20.1324C16.0778 18.8743 16.0778 16.1137 16.0778 14.8906M14.5444 11.4835H24M24 11.4835L20.1667 15.4148M24 11.4835L20.1667 7.55218" stroke="#C50000" stroke-width="1.5" stroke-linecap="round" stroke-linejoin="round"/>
</svg>
