<svg width="191" height="65" viewBox="0 0 191 65" fill="none" xmlns="http://www.w3.org/2000/svg">
<path fill-rule="evenodd" clip-rule="evenodd" d="M33.7122 12.334C34.6419 6.89171 37.593 4.98187 39.7212 4.98187C41.8171 4.98187 44.6825 6.84757 45.441 12.2741L49.4025 11.7204C48.4808 5.12642 44.5325 0.981873 39.7212 0.981873C34.9477 0.981873 30.902 5.07325 29.773 11.6387L21.3765 55.147L25.304 55.905L33.7045 12.3762L33.7086 12.3552L33.7122 12.334ZM45.4742 16.1174L54.7357 55.9785L58.6319 55.0732L49.3704 15.2121L45.4742 16.1174ZM3.38923 29.9019C-2.80275 25.3089 0.445822 15.4766 8.15535 15.4766H25.1926V19.4766H8.15535C4.30058 19.4766 2.6763 24.3928 5.77229 26.6893L22.941 39.4246L20.5579 42.6372L3.38923 29.9019ZM71.8697 15.4766C79.5792 15.4766 82.8278 25.3089 76.6358 29.9019L59.4671 42.6372L57.084 39.4246L74.2527 26.6893C77.3487 24.3928 75.7244 19.4766 71.8697 19.4766H54.8324V15.4766H71.8697ZM35.5994 58.9771L28.1837 64.1588C24.7641 66.5483 20.2237 63.3713 21.2967 59.3399L25.1622 60.3688C25.125 60.5083 25.1426 60.5973 25.1674 60.6598C25.197 60.7345 25.2569 60.8155 25.3487 60.8798C25.4405 60.944 25.5372 60.9725 25.6176 60.9748C25.6847 60.9766 25.7744 60.9626 25.8926 60.88L33.3083 55.6983L35.5994 58.9771ZM51.1947 63.2766L31.3847 48.0523L33.8221 44.8807L53.6321 60.105C54.2411 60.573 55.1029 60.0267 54.9394 59.2762L58.8478 58.4249C59.8048 62.8186 54.7601 66.0166 51.1947 63.2766Z" fill="url(#paint0_linear_149_16)"/>
<path fill-rule="evenodd" clip-rule="evenodd" d="M99.8485 31.3448C100.075 31.7755 100.449 31.9908 100.97 31.9908C101.242 31.9908 101.48 31.9228 101.684 31.7868C101.911 31.6508 102.081 31.4468 102.194 31.1748L104.482 25.6668H117.638L119.908 31.1748C120.044 31.4468 120.214 31.6508 120.418 31.7868C120.645 31.9228 120.894 31.9908 121.166 31.9908C121.642 31.9908 122.005 31.7868 122.254 31.3788C122.526 30.9708 122.56 30.5515 122.356 30.1208L112.326 6.35483C112.077 5.74283 111.658 5.43683 111.068 5.43683C110.456 5.43683 110.026 5.74283 109.776 6.35483L99.7805 30.0868C99.5991 30.4948 99.6218 30.9142 99.8485 31.3448ZM116.698 23.3888L111.084 9.77041L105.428 23.3888H116.698ZM128.515 31.4808C129.829 31.9342 131.155 32.1608 132.493 32.1608C133.921 32.1608 135.179 31.9342 136.267 31.4808C137.377 31.0275 138.239 30.4042 138.851 29.6108C139.485 28.7948 139.803 27.8542 139.803 26.7888C139.803 25.9502 139.587 25.1795 139.157 24.4768C138.749 23.7515 138.046 23.1282 137.049 22.6068C136.074 22.0628 134.737 21.6548 133.037 21.3828C131.79 21.1788 130.815 20.9295 130.113 20.6348C129.433 20.3402 128.945 20.0002 128.651 19.6148C128.379 19.2295 128.243 18.7762 128.243 18.2548C128.243 17.4842 128.617 16.8495 129.365 16.3508C130.113 15.8295 131.11 15.5688 132.357 15.5688C133.331 15.5688 134.193 15.7275 134.941 16.0448C135.689 16.3395 136.346 16.8155 136.913 17.4728C137.162 17.7448 137.457 17.9148 137.797 17.9828C138.159 18.0282 138.477 17.9715 138.749 17.8128C139.066 17.6088 139.247 17.3482 139.293 17.0308C139.338 16.7135 139.247 16.4075 139.021 16.1128C138.341 15.2288 137.445 14.5262 136.335 14.0048C135.247 13.4835 133.943 13.2228 132.425 13.2228C131.201 13.2228 130.079 13.4155 129.059 13.8008C128.039 14.1862 127.223 14.7642 126.611 15.5348C125.999 16.3055 125.693 17.2688 125.693 18.4248C125.693 19.6715 126.225 20.7482 127.291 21.6548C128.356 22.5615 130.033 23.1962 132.323 23.5588C134.091 23.8535 135.36 24.2728 136.131 24.8168C136.901 25.3382 137.287 26.0068 137.287 26.8228C137.264 27.6388 136.879 28.3415 136.131 28.9308C135.383 29.4975 134.17 29.7808 132.493 29.7808C131.405 29.7808 130.407 29.6108 129.501 29.2708C128.617 28.9308 127.903 28.4435 127.359 27.8088C127.132 27.5595 126.849 27.4122 126.509 27.3668C126.169 27.3215 125.84 27.4122 125.523 27.6388C125.228 27.8882 125.058 28.1828 125.013 28.5228C124.967 28.8628 125.069 29.1688 125.319 29.4408C126.135 30.3475 127.2 31.0275 128.515 31.4808ZM148.373 31.1408C149.325 31.7075 150.401 31.9908 151.603 31.9908H152.317C152.725 31.9908 153.065 31.8775 153.337 31.6508C153.609 31.4015 153.745 31.0842 153.745 30.6988C153.745 30.3135 153.631 29.9962 153.405 29.7468C153.178 29.4975 152.883 29.3728 152.521 29.3728H151.603C150.537 29.3728 149.665 29.0102 148.985 28.2848C148.305 27.5368 147.965 26.5848 147.965 25.4288V16.3508H151.807C152.147 16.3508 152.43 16.2488 152.657 16.0448C152.883 15.8182 152.997 15.5462 152.997 15.2288C152.997 14.8888 152.883 14.6168 152.657 14.4128C152.43 14.1862 152.147 14.0728 151.807 14.0728H147.965V8.80283C147.965 8.41749 147.84 8.10016 147.591 7.85083C147.341 7.6015 147.024 7.47683 146.639 7.47683C146.253 7.47683 145.936 7.6015 145.687 7.85083C145.46 8.10016 145.347 8.41749 145.347 8.80283V14.0728H143.137C142.797 14.0728 142.513 14.1862 142.287 14.4128C142.06 14.6168 141.947 14.8888 141.947 15.2288C141.947 15.5462 142.06 15.8182 142.287 16.0448C142.513 16.2488 142.797 16.3508 143.137 16.3508H145.347V25.4288C145.347 26.6982 145.619 27.8315 146.163 28.8288C146.707 29.8035 147.443 30.5742 148.373 31.1408ZM160.591 20.5328V30.6988C160.591 31.1068 160.477 31.4242 160.251 31.6508C160.024 31.8775 159.707 31.9908 159.299 31.9908C158.891 31.9908 158.573 31.8775 158.347 31.6508C158.12 31.4242 158.007 31.1068 158.007 30.6988V14.6848C158.007 14.2768 158.12 13.9595 158.347 13.7328C158.573 13.5062 158.891 13.3928 159.299 13.3928C159.707 13.3928 160.024 13.5062 160.251 13.7328C160.477 13.9595 160.591 14.2768 160.591 14.6848V16.1522C161.201 15.3255 161.937 14.655 162.801 14.1408C163.889 13.5062 165.09 13.1888 166.405 13.1888C167.447 13.1888 168.252 13.3362 168.819 13.6308C169.385 13.9255 169.601 14.3562 169.465 14.9228C169.374 15.2628 169.215 15.4895 168.989 15.6028C168.785 15.7162 168.524 15.7615 168.207 15.7388C167.912 15.7162 167.572 15.6935 167.187 15.6708C165.917 15.5575 164.784 15.6935 163.787 16.0788C162.812 16.4415 162.03 17.0082 161.441 17.7788C160.874 18.5495 160.591 19.4675 160.591 20.5328ZM175.719 30.9368C177.102 31.7528 178.666 32.1608 180.411 32.1608C182.066 32.1608 183.539 31.7868 184.831 31.0388C185.904 30.4101 186.788 29.6078 187.483 28.632V30.6988C187.483 31.0842 187.608 31.4015 187.857 31.6508C188.107 31.8775 188.424 31.9908 188.809 31.9908C189.195 31.9908 189.512 31.8775 189.761 31.6508C190.011 31.4015 190.135 31.0842 190.135 30.6988V22.7088C190.113 20.8955 189.682 19.2748 188.843 17.8468C188.027 16.4188 186.905 15.2968 185.477 14.4808C184.072 13.6422 182.474 13.2228 180.683 13.2228C178.893 13.2228 177.283 13.6422 175.855 14.4808C174.427 15.2968 173.294 16.4188 172.455 17.8468C171.639 19.2748 171.231 20.8955 171.231 22.7088C171.231 24.4995 171.628 26.1088 172.421 27.5368C173.237 28.9648 174.337 30.0982 175.719 30.9368ZM184.185 28.8628C183.165 29.4748 181.998 29.7808 180.683 29.7808C179.391 29.7808 178.224 29.4748 177.181 28.8628C176.139 28.2508 175.311 27.4122 174.699 26.3468C174.087 25.2588 173.781 24.0462 173.781 22.7088C173.781 21.3488 174.087 20.1362 174.699 19.0708C175.311 18.0055 176.139 17.1668 177.181 16.5548C178.224 15.9202 179.391 15.6028 180.683 15.6028C181.998 15.6028 183.165 15.9202 184.185 16.5548C185.228 17.1668 186.044 18.0055 186.633 19.0708C187.245 20.1362 187.551 21.3488 187.551 22.7088C187.551 24.0462 187.245 25.2588 186.633 26.3468C186.044 27.4122 185.228 28.2508 184.185 28.8628ZM99.5605 58.3345C99.7071 58.6131 99.9491 58.7525 100.286 58.7525C100.462 58.7525 100.616 58.7085 100.748 58.6205C100.895 58.5325 101.005 58.4005 101.078 58.2245L102.559 54.6605H111.071L112.54 58.2245C112.628 58.4005 112.738 58.5325 112.87 58.6205C113.017 58.7085 113.178 58.7525 113.354 58.7525C113.662 58.7525 113.897 58.6205 114.058 58.3565C114.234 58.0925 114.256 57.8211 114.124 57.5425L107.634 42.1645C107.473 41.7685 107.202 41.5705 106.82 41.5705C106.424 41.5705 106.146 41.7685 105.984 42.1645L99.5165 57.5205C99.3991 57.7845 99.4138 58.0558 99.5605 58.3345ZM110.463 53.1865L106.83 44.3745L103.171 53.1865H110.463ZM118.923 58.2465C119.745 58.6718 120.676 58.8845 121.717 58.8845C122.671 58.8845 123.536 58.6791 124.313 58.2685C124.863 57.9674 125.333 57.593 125.721 57.145V57.8945C125.721 58.1585 125.795 58.3711 125.941 58.5325C126.103 58.6791 126.308 58.7525 126.557 58.7525C126.807 58.7525 127.012 58.6791 127.173 58.5325C127.335 58.3711 127.415 58.1585 127.415 57.8945V47.5545C127.415 47.3051 127.335 47.1071 127.173 46.9605C127.012 46.7991 126.807 46.7185 126.557 46.7185C126.308 46.7185 126.103 46.7991 125.941 46.9605C125.795 47.1071 125.721 47.3051 125.721 47.5545V54.0665C125.721 54.6825 125.553 55.2325 125.215 55.7165C124.878 56.2005 124.416 56.5818 123.829 56.8605C123.257 57.1391 122.612 57.2785 121.893 57.2785C121.145 57.2785 120.471 57.1318 119.869 56.8385C119.283 56.5451 118.813 56.1051 118.461 55.5185C118.124 54.9318 117.955 54.1838 117.955 53.2745V47.5545C117.955 47.3198 117.875 47.1218 117.713 46.9605C117.552 46.7991 117.347 46.7185 117.097 46.7185C116.863 46.7185 116.665 46.7991 116.503 46.9605C116.342 47.1218 116.261 47.3198 116.261 47.5545V53.2745C116.261 54.4771 116.496 55.4965 116.965 56.3325C117.449 57.1685 118.102 57.8065 118.923 58.2465ZM133.988 58.2025C134.604 58.5691 135.301 58.7525 136.078 58.7525H136.54C136.804 58.7525 137.024 58.6791 137.2 58.5325C137.376 58.3711 137.464 58.1658 137.464 57.9165C137.464 57.6671 137.391 57.4618 137.244 57.3005C137.097 57.1391 136.907 57.0585 136.672 57.0585H136.078C135.389 57.0585 134.824 56.8238 134.384 56.3545C133.944 55.8705 133.724 55.2545 133.724 54.5065V48.6325H136.21C136.43 48.6325 136.613 48.5665 136.76 48.4345C136.907 48.2878 136.98 48.1118 136.98 47.9065C136.98 47.6865 136.907 47.5105 136.76 47.3785C136.613 47.2318 136.43 47.1585 136.21 47.1585H133.724V43.7485C133.724 43.4991 133.643 43.2938 133.482 43.1325C133.321 42.9711 133.115 42.8905 132.866 42.8905C132.617 42.8905 132.411 42.9711 132.25 43.1325C132.103 43.2938 132.03 43.4991 132.03 43.7485V47.1585H130.6C130.38 47.1585 130.197 47.2318 130.05 47.3785C129.903 47.5105 129.83 47.6865 129.83 47.9065C129.83 48.1118 129.903 48.2878 130.05 48.4345C130.197 48.5665 130.38 48.6325 130.6 48.6325H132.03V54.5065C132.03 55.3278 132.206 56.0611 132.558 56.7065C132.91 57.3371 133.387 57.8358 133.988 58.2025ZM142.553 58.0705C143.477 58.5985 144.526 58.8625 145.699 58.8625C146.873 58.8625 147.914 58.5985 148.823 58.0705C149.747 57.5425 150.473 56.8165 151.001 55.8925C151.544 54.9685 151.815 53.9198 151.815 52.7465C151.801 51.5585 151.529 50.5025 151.001 49.5785C150.473 48.6545 149.747 47.9285 148.823 47.4005C147.914 46.8725 146.873 46.6085 145.699 46.6085C144.526 46.6085 143.477 46.8725 142.553 47.4005C141.629 47.9285 140.903 48.6545 140.375 49.5785C139.847 50.5025 139.583 51.5585 139.583 52.7465C139.583 53.9198 139.847 54.9685 140.375 55.8925C140.903 56.8165 141.629 57.5425 142.553 58.0705ZM147.987 56.7285C147.313 57.1245 146.55 57.3225 145.699 57.3225C144.849 57.3225 144.086 57.1245 143.411 56.7285C142.737 56.3325 142.201 55.7898 141.805 55.1005C141.424 54.4111 141.233 53.6265 141.233 52.7465C141.233 51.8665 141.424 51.0818 141.805 50.3925C142.201 49.6885 142.737 49.1385 143.411 48.7425C144.086 48.3465 144.849 48.1485 145.699 48.1485C146.55 48.1485 147.313 48.3465 147.987 48.7425C148.662 49.1385 149.19 49.6885 149.571 50.3925C149.953 51.0818 150.143 51.8665 150.143 52.7465C150.143 53.6265 149.953 54.4111 149.571 55.1005C149.19 55.7898 148.662 56.3325 147.987 56.7285Z" fill="url(#paint1_linear_149_16)"/>
<defs>
<linearGradient id="paint0_linear_149_16" x1="19.5745" y1="0.98187" x2="71.5508" y2="73.6374" gradientUnits="userSpaceOnUse">
<stop stop-color="#29D4A1"/>
<stop offset="1" stop-color="#188EA6"/>
</linearGradient>
<linearGradient id="paint1_linear_149_16" x1="132.032" y1="4.99366" x2="158.267" y2="56.8001" gradientUnits="userSpaceOnUse">
<stop stop-color="#28D0A1"/>
<stop offset="1" stop-color="#1B9DA5"/>
</linearGradient>
</defs>
</svg>
