<svg width="46" height="43" viewBox="0 0 46 43" fill="none" xmlns="http://www.w3.org/2000/svg">
<path fill-rule="evenodd" clip-rule="evenodd" d="M40.8901 25C40.4322 29.1427 38.5683 32.8617 35.7863 35.6693L39.2748 39.2521C43.4303 35.0908 46 29.3455 46 23C46 10.2975 35.7025 0 23 0C10.2975 0 0 10.2975 0 23C0 29.2783 2.51558 34.9691 6.59379 39.1194L10.1295 35.5837C7.39406 32.7864 5.56318 29.1008 5.10986 25H8.5C9.32843 25 10 24.3284 10 23.5C10 22.6716 9.32843 22 8.5 22H5.02731C5.22086 18.4652 6.43429 15.202 8.37836 12.4997L9.5962 13.7175C10.182 14.3033 11.1317 14.3033 11.7175 13.7175C12.3033 13.1318 12.3033 12.182 11.7175 11.5962L10.3329 10.2116C13.2527 7.31924 17.1579 5.41983 21.5 5.06161V8.5C21.5 9.32843 22.1716 10 23 10C23.8284 10 24.5 9.32843 24.5 8.5V5.06161C28.7869 5.41527 32.6478 7.27116 35.5552 10.1017L34.0607 11.5962C33.4749 12.182 33.4749 13.1317 34.0607 13.7175C34.6464 14.3033 35.5962 14.3033 36.182 13.7175L37.5283 12.3712C39.5269 15.0983 40.7761 18.409 40.9727 22H37.5C36.6716 22 36 22.6716 36 23.5C36 24.3284 36.6716 25 37.5 25H40.8901ZM21.3401 25.1687C20.1326 26.2942 22.4268 28.9205 23.755 27.6699C25.0832 26.4193 31.845 17.0396 31.845 17.0396C32.3279 16.4143 31.6035 15.5388 30.7583 16.2892C30.7583 16.2892 22.5476 24.0431 21.3401 25.1687ZM15.5 41C15.5 39.8954 16.3954 39 17.5 39H28.5C29.6046 39 30.5 39.8954 30.5 41C30.5 42.1046 29.6046 43 28.5 43H17.5C16.3954 43 15.5 42.1046 15.5 41Z" fill="url(#paint0_linear_70_30)"/>
<defs>
<linearGradient id="paint0_linear_70_30" x1="-9" y1="4.5" x2="40.5" y2="46.5" gradientUnits="userSpaceOnUse">
<stop stop-color="#28BFB6"/>
<stop offset="1" stop-color="#0F936B"/>
</linearGradient>
</defs>
</svg>
