<svg width="22" height="22" viewBox="0 0 22 22" fill="none" xmlns="http://www.w3.org/2000/svg">
<path fill-rule="evenodd" clip-rule="evenodd" d="M2.71462 7.62493V4.32745C2.71462 4.26944 2.71899 4.21165 2.73185 4.15508C2.84822 3.64347 3.26889 2.76491 4.18351 2.76491H7.63973L9.97268 0.421688C10.2607 0.103472 11.0614 -0.342029 11.96 0.421688C12.6829 1.03603 13.4915 1.87876 13.99 2.42583C14.1847 2.63953 14.4589 2.76491 14.748 2.76491H17.8356C18.3252 2.82277 19.3045 3.19884 19.3045 4.24027V7.62493L21.5766 9.90703C21.6171 9.9477 21.6544 9.99126 21.6848 10.0399C21.9512 10.4662 22.2568 11.3527 21.6374 12.0076C21.0897 12.5867 20.1834 13.4877 19.6052 14.0562C19.413 14.2451 19.3045 14.5028 19.3045 14.7723V17.7789C19.3189 18.2707 19.0452 19.2543 17.8356 19.2543H14.2929L11.96 21.5975C11.6 21.9012 10.6985 22.3265 9.97268 21.5975L7.63973 19.2543H4.18351C3.69388 19.2253 2.71462 18.8898 2.71462 17.7789V14.3508L0.43389 12.0601C0.399125 12.0252 0.366756 11.9883 0.339361 11.9473C0.0573285 11.5257 -0.276258 10.629 0.381671 9.96815L2.71462 7.62493ZM10.9663 6.45528C10.9663 5.90299 11.4213 5.44617 11.9679 5.52541C18.1389 6.42008 18.0744 15.5885 11.9675 16.4923C11.4212 16.5731 10.9663 16.1162 10.9663 15.5639V6.45528Z" fill="url(#paint0_linear_32_23)"/>
<defs>
<linearGradient id="paint0_linear_32_23" x1="2.5" y1="3.5" x2="26.5" y2="22" gradientUnits="userSpaceOnUse">
<stop stop-color="#27B884"/>
<stop offset="1" stop-color="#0D4C79"/>
</linearGradient>
</defs>
</svg>
