<svg width="640" height="382" viewBox="0 0 640 382" fill="none" xmlns="http://www.w3.org/2000/svg">
<path d="M25.2337 101.265C-43.0002 248.157 43.4022 346.086 92.8617 371.14H448.667L628.336 368.113V342.891V246.039C588.97 250.075 582.41 202.153 617.233 191.56C580.895 66.459 424.442 36.6972 347.225 90.167C282.625 -20.8088 131.218 -25.8532 62.5805 55.8652C80.7493 91.6803 55.5149 113.371 25.2337 101.265Z" fill="#DEE3F6"/>
<path d="M160.995 98.7432V368.113H351.767V98.7432H160.995Z" fill="white"/>
<path d="M626.317 368.113H1.00806C81.758 386.778 166.041 381.229 319.466 381.229C338.846 381.229 562.221 381.229 626.317 368.113Z" fill="#281F52"/>
<path d="M393.656 115.39C401.731 115.39 404.423 107.991 404.759 104.292C404.759 113.17 412.161 115.39 415.863 115.39C406.98 115.39 404.759 122.788 404.759 126.487C404.759 118.416 397.357 115.726 393.656 115.39Z" fill="white"/>
<path d="M497.622 163.816L460.275 129.514L525.38 124.469L513.772 136.072L514.781 154.231L504.688 150.7L497.622 163.816Z" fill="#BBC7ED"/>
<path d="M351.767 144.143H160.995V99.2476H351.767V144.143Z" fill="#7EC4FE"/>
<path d="M84.7173 116.894C92.0897 116.595 95.5692 108.754 96.3943 104.796C96.3943 114.481 104.469 116.903 108.507 116.903C98.8877 116.903 96.4442 123.679 96.3615 127.918C96.3831 128.271 96.3943 128.635 96.3943 129.009C96.3661 128.672 96.354 128.306 96.3615 127.918C95.8208 119.092 88.7117 116.896 84.7173 116.894C84.5736 116.9 84.4284 116.903 84.2817 116.903C84.4222 116.897 84.5676 116.894 84.7173 116.894Z" fill="white"/>
<rect x="175.631" y="161.293" width="43.4032" height="4.03551" rx="2.01775" fill="#FA5F98"/>
<rect x="175.631" y="196.604" width="43.4032" height="4.03551" rx="2.01775" fill="#FA5F98"/>
<rect x="324.01" y="204.675" width="11.1031" height="4.03551" rx="2.01775" fill="#E3E4F8"/>
<rect x="175.631" y="169.364" width="73.6845" height="4.03551" rx="2.01775" fill="#E3E4F8"/>
<rect x="253.353" y="169.364" width="81.7595" height="4.03551" rx="2.01775" fill="#E3E4F8"/>
<rect x="175.631" y="176.427" width="110.022" height="4.03551" rx="2.01775" fill="#E3E4F8"/>
<rect x="293.728" y="176.427" width="41.3845" height="4.03551" rx="2.01775" fill="#E3E4F8"/>
<rect x="175.631" y="183.489" width="63.5907" height="4.03551" rx="2.01775" fill="#E3E4F8"/>
<rect x="175.631" y="204.675" width="49.4595" height="4.03551" rx="2.01775" fill="#E3E4F8"/>
<rect x="287.672" y="218.8" width="49.4595" height="4.03551" rx="2.01775" fill="#E3E4F8"/>
<rect x="175.631" y="218.8" width="36.3376" height="4.03551" rx="2.01775" fill="#E3E4F8"/>
<rect x="175.631" y="226.871" width="56.5251" height="4.03551" rx="2.01775" fill="#E3E4F8"/>
<rect x="175.631" y="233.933" width="76.7127" height="4.03551" rx="2.01775" fill="#E3E4F8"/>
<rect x="237.203" y="226.871" width="27.2532" height="4.03551" rx="2.01775" fill="#E3E4F8"/>
<rect x="175.631" y="246.039" width="33.3094" height="4.03551" rx="2.01775" fill="#E3E4F8"/>
<rect x="213.987" y="246.039" width="40.3751" height="4.03551" rx="2.01775" fill="#E3E4F8"/>
<rect x="240.231" y="254.11" width="40.3751" height="4.03551" rx="2.01775" fill="#E3E4F8"/>
<rect x="259.409" y="246.039" width="57.5345" height="4.03551" rx="2.01775" fill="#E3E4F8"/>
<rect x="177.65" y="254.11" width="57.5345" height="4.03551" rx="2.01775" fill="#E3E4F8"/>
<rect x="270.512" y="226.871" width="65.6095" height="4.03551" rx="2.01775" fill="#E3E4F8"/>
<rect x="218.024" y="218.8" width="65.6095" height="4.03551" rx="2.01775" fill="#E3E4F8"/>
<rect x="231.146" y="204.675" width="86.8064" height="4.03551" rx="2.01775" fill="#E3E4F8"/>
<rect x="254.362" y="211.737" width="82.7689" height="4.03551" rx="2.01775" fill="#E3E4F8"/>
<rect x="175.631" y="211.737" width="73.6845" height="4.03551" rx="2.01775" fill="#E3E4F8"/>
<path d="M489.547 154.232L453.209 117.912L517.304 112.868L507.211 124.974V141.116L500.65 131.028L489.547 154.232Z" fill="white"/>
<path d="M500.145 130.523L453.209 117.912L507.211 124.974V141.116L500.145 130.523Z" fill="#D6C6C6"/>
<path d="M520.333 145.655C529.922 172.895 617.233 193.073 614.205 156.249C606.13 128 557.882 160.183 590.989 204.17" stroke="#BBC7ED" stroke-dasharray="2 2"/>
<path d="M258.4 351.971C267.894 376.91 303.872 369.785 308.869 351.971H258.4Z" fill="#0C0B13"/>
<rect x="320.981" y="266.217" width="34.3188" height="2.01775" fill="#D9D9D9"/>
<path d="M327.542 351.971L349.819 349.188C351.002 349.04 351.985 348.205 352.324 347.062L368.291 293.083C368.668 291.809 369.838 290.934 371.167 290.934H627.016C628.607 290.934 629.921 292.176 630.011 293.764L633.202 349.809C633.3 351.531 631.931 352.98 630.207 352.98H437.963C436.907 352.98 436.05 352.123 436.05 351.066C436.05 349.932 435.068 349.046 433.939 349.163L408.566 351.786C407.465 351.9 406.391 351.399 405.771 350.482L386.02 321.249C384.363 318.797 380.534 319.969 380.534 322.928V348.971C380.534 350.628 379.191 351.971 377.534 351.971H327.542Z" fill="#472816"/>
<path d="M383.873 368.113H401.762L403.75 302.536H379.897L377.413 306.122C375.425 316.881 371.45 340.96 371.45 351.207C371.45 361.453 379.732 366.747 383.873 368.113Z" fill="#0C0B13"/>
<path d="M572.821 367.104H592.504L595.027 303.04H564.241C562.559 315.651 559.194 342.891 559.194 350.962C559.194 359.033 568.278 365.086 572.821 367.104Z" fill="#0C0B13"/>
<path d="M557.678 204.675H459.768L337.636 281.35V348.945H378.514C367.917 282.863 439.078 273.783 434.534 348.945H565.753C560.201 272.27 632.877 286.394 619.755 348.945H632.877C641.759 348.945 642.97 334.316 632.877 334.316V280.845L627.327 272.27L605.119 267.73L573.323 213.755C570.901 208.105 567.772 204.675 557.678 204.675Z" fill="url(#paint0_linear_91_178)"/>
<path d="M226.605 351.971C218.933 351.971 219.034 337.847 226.605 337.847H232.156V304.05C232.156 294.97 238.717 282.863 256.886 279.332L304.327 267.73L351.767 212.746C353.618 210.056 359.439 204.675 367.917 204.675H459.771L433.527 267.73H619.757C627.327 267.73 632.475 270.757 632.879 280.846C631.197 278.155 626.217 272.774 619.757 272.774H396.18C386.254 273.952 363.88 278.222 353.786 285.89C343.692 293.557 342.178 300.855 342.683 303.545V337.847H346.216C354.695 337.847 354.291 351.971 346.216 351.971H226.605Z" fill="url(#paint1_linear_91_178)"/>
<path d="M400.614 302.894C379.314 306.525 370.972 365.994 401.641 368.031C445.192 370.923 436.432 296.788 400.614 302.894Z" fill="#262523"/>
<path d="M593.513 303.04C563.736 303.04 568.278 367.104 591.999 367.104C623.29 367.104 617.334 303.04 593.513 303.04Z" fill="#262425"/>
<path d="M448.163 352.98C457.847 376.36 494.544 369.68 499.641 352.98H448.163Z" fill="#0C0B13"/>
<g filter="url(#filter0_i_91_178)">
<ellipse cx="8.075" cy="11.6021" rx="8.075" ry="11.6021" transform="matrix(0.998092 0.0617448 -0.0618058 0.998088 236.926 294.998)" fill="#FBFFFE"/>
</g>
<g filter="url(#filter1_i_91_178)">
<ellipse cx="329.056" cy="307.076" rx="8.07502" ry="11.6021" fill="#FBFFFE"/>
</g>
<g filter="url(#filter2_f_91_178)">
<ellipse cx="243.764" cy="328.262" rx="3.53282" ry="3.53107" fill="#E9F2B0"/>
</g>
<g filter="url(#filter3_f_91_178)">
<ellipse cx="328.551" cy="328.262" rx="3.53282" ry="3.53107" fill="#E9F2B0"/>
</g>
<g filter="url(#filter4_i_91_178)">
<rect x="260.419" y="305.563" width="53.497" height="12.1065" fill="#AE2C5B"/>
</g>
<rect x="361.356" y="266.217" width="34.3188" height="2.01775" rx="1.00888" fill="white"/>
<rect x="319.972" y="266.217" width="34.3188" height="2.01775" rx="1.00888" fill="white"/>
<path d="M354.29 213.25L312.401 261.676L414.348 262.685L438.069 213.25H354.29Z" fill="url(#paint2_linear_91_178)"/>
<path d="M503.679 267.73L508.221 210.728H457.247L433.527 267.73H503.679Z" fill="url(#paint3_linear_91_178)"/>
<path d="M511.249 267.73L514.781 210.728H545.063L580.896 267.73H511.249Z" fill="url(#paint4_linear_91_178)"/>
<path d="M590.485 255.119H582.915V256.128H590.485V255.119Z" stroke="black"/>
<path d="M584.429 259.659V258.65H593.009V259.659H584.429Z" stroke="black"/>
<path d="M587.962 263.695V262.686H596.541V263.695H587.962Z" stroke="black"/>
<path d="M576.859 272.774V293.456C579.887 293.456 556.469 296.281 557.681 339.865H440.088C441.938 328.094 441.905 304.05 426.966 302.032M561.718 279.837L560.709 284.881H576.859V279.837H561.718Z" stroke="#96153B"/>
<path d="M502.164 339.865L506.714 284.881M507.716 272.774L507.131 279.837M507.131 279.837H498.127L494.594 284.881H506.714M507.131 279.837L506.714 284.881" stroke="#96153B"/>
<path d="M110.195 241.436C110.195 241.436 106.091 247.993 108.929 260.604C111.767 273.215 111.453 273.72 111.453 273.72L141.678 275.233L148.8 263.126L138.201 254.047L110.195 241.436Z" fill="url(#paint5_linear_91_178)"/>
<path d="M108.929 260.605C108.058 278.7 102.982 357.984 101.359 364.015L120.033 367.042L126.276 301.969L127.098 293.394C127.098 293.394 130.979 316.112 131.136 330.722C131.284 344.524 128.108 366.033 128.108 366.033H148.295L149.305 260.605C138.201 275.234 108.954 260.101 108.929 260.605Z" fill="url(#paint6_linear_91_178)"/>
<path d="M126.593 368.049H149.809C148.821 350.636 128.569 347.85 126.593 368.049Z" fill="#282067"/>
<path d="M99.3403 368.049H122.556C121.568 350.636 101.316 347.85 99.3403 368.049Z" fill="#282067"/>
<path d="M125.079 308.021C125.079 306.811 127.434 285.826 128.107 276.746" stroke="#2B1D68"/>
<path d="M212.39 331.73L188.165 315.588L194.726 302.977L206.839 298.437L219.96 326.181C215.923 326.181 213.231 329.88 212.39 331.73Z" fill="#EED1CB"/>
<path d="M97.8263 238.409C100.854 239.922 116.163 246.312 125.079 250.515L131.64 235.382L109.434 224.789L113.976 221.258L105.901 214.7L97.8263 224.789C91.2653 232.356 96.3988 237.695 97.8263 238.409Z" fill="#7EC6F8"/>
<path d="M128.612 210.16L132.65 207.133C135.005 208.647 139.917 211.169 140.725 209.151C141.486 207.248 140.811 203.998 140.308 202.366C140.276 202.27 140.246 202.178 140.22 202.089C140.249 202.175 140.278 202.267 140.308 202.366C142.824 209.681 165.113 237.504 177.567 245.471C171.107 245.067 167.473 250.011 166.464 252.533L128.612 210.16Z" fill="url(#paint7_linear_91_178)"/>
<path d="M111.957 188.469C113.169 191.698 116.5 192.168 118.014 192L131.64 193.513L147.286 182.416C154.957 175.556 153.342 168.292 147.286 167.283C148.093 165.669 146.949 162.911 146.276 161.734C139.009 152.452 129.622 156.689 127.603 161.734C122.354 161.33 120.032 165.265 119.528 167.283C111.453 168.09 112.126 176.026 113.471 179.894V182.416C112.462 183.088 110.746 185.241 111.957 188.469Z" fill="url(#paint8_linear_91_178)"/>
<path d="M118.518 198.558L117.004 192H120.032V189.983C112.361 184.333 120.032 178.885 125.584 182.92V187.965H128.612V185.443H132.145V180.398L146.781 181.912C149.809 185.443 146.781 188.974 144.762 193.514C144.171 194.843 143.752 197.381 142.743 198.558C136.687 203.602 136.519 205.116 135.677 208.142H130.631C128.612 204.779 124.271 198.154 123.06 198.558C121.849 198.962 119.527 198.726 118.518 198.558Z" fill="url(#paint9_linear_91_178)"/>
<path d="M65.0211 167.282C62.4979 169.3 63.8435 172.495 65.0211 173.84L78.1433 188.469L83.6948 183.929L67.0401 165.769L65.0211 167.282Z" fill="#BE2752"/>
<path d="M77.1338 157.698L67.04 165.769L83.6948 183.929L96.8167 171.823C93.2838 168.123 85.7135 160.12 83.6948 157.698C81.676 155.277 78.4796 156.689 77.1338 157.698Z" fill="url(#paint10_linear_91_178)"/>
<path d="M83.6946 194.522L78.1431 188.469L96.8165 171.823L102.368 177.372L83.6946 194.522Z" fill="url(#paint11_linear_91_178)"/>
<path d="M188.166 315.588L83.6951 194.523L87.7326 190.992L194.222 310.039L192.708 313.066H189.68L188.166 315.588Z" fill="url(#paint12_linear_91_178)"/>
<path d="M132.145 209.151C131.38 205.687 125.212 199.015 122.981 196.54C120.75 194.066 115.49 198.558 118.014 198.054C120.537 197.549 128.431 209.037 129.196 209.532C129.961 210.027 131.985 209.77 132.145 209.151Z" fill="white"/>
<path d="M212.39 331.73C217.942 335.765 222.383 332.638 219.96 326.181C213.5 324.97 212.222 329.375 212.39 331.73Z" fill="#272728"/>
<ellipse cx="10.0935" cy="11.098" rx="10.0935" ry="11.098" transform="matrix(0.969025 0.246964 -0.247194 0.968966 127.033 231.851)" fill="url(#paint13_linear_91_178)"/>
<ellipse cx="10.6527" cy="10.8416" rx="10.6527" ry="10.8416" transform="matrix(0.969025 0.246964 -0.247194 0.968966 168.291 243.036)" fill="url(#paint14_linear_91_178)"/>
<path d="M102.368 177.372L87.7319 190.992L194.221 310.039L196.745 309.535L197.754 306.004H201.287V301.968H204.315V299.446L206.838 298.437L102.368 177.372Z" fill="url(#paint15_linear_91_178)"/>
<g filter="url(#filter5_i_91_178)">
<path d="M134.164 208.647C137.33 211.062 144.227 212.171 140.427 200.576C139.24 201.319 135.114 204.633 134.164 208.647Z" fill="white"/>
</g>
<g filter="url(#filter6_di_91_178)">
<ellipse cx="594.017" cy="335.829" rx="9.58908" ry="14.1243" fill="#CBC9CA"/>
</g>
<g filter="url(#filter7_di_91_178)">
<ellipse cx="406.273" cy="336.838" rx="10.5985" ry="15.1332" fill="#CBC9CA"/>
</g>
<defs>
<filter id="filter0_i_91_178" x="236.176" y="295.485" width="16.1838" height="27.1819" filterUnits="userSpaceOnUse" color-interpolation-filters="sRGB">
<feFlood flood-opacity="0" result="BackgroundImageFix"/>
<feBlend mode="normal" in="SourceGraphic" in2="BackgroundImageFix" result="shape"/>
<feColorMatrix in="SourceAlpha" type="matrix" values="0 0 0 0 0 0 0 0 0 0 0 0 0 0 0 0 0 0 127 0" result="hardAlpha"/>
<feOffset dy="4"/>
<feGaussianBlur stdDeviation="2"/>
<feComposite in2="hardAlpha" operator="arithmetic" k2="-1" k3="1"/>
<feColorMatrix type="matrix" values="0 0 0 0 0 0 0 0 0 0 0 0 0 0 0 0 0 0 0.25 0"/>
<feBlend mode="normal" in2="shape" result="effect1_innerShadow_91_178"/>
</filter>
<filter id="filter1_i_91_178" x="320.981" y="295.474" width="16.1501" height="27.2041" filterUnits="userSpaceOnUse" color-interpolation-filters="sRGB">
<feFlood flood-opacity="0" result="BackgroundImageFix"/>
<feBlend mode="normal" in="SourceGraphic" in2="BackgroundImageFix" result="shape"/>
<feColorMatrix in="SourceAlpha" type="matrix" values="0 0 0 0 0 0 0 0 0 0 0 0 0 0 0 0 0 0 127 0" result="hardAlpha"/>
<feOffset dy="4"/>
<feGaussianBlur stdDeviation="2"/>
<feComposite in2="hardAlpha" operator="arithmetic" k2="-1" k3="1"/>
<feColorMatrix type="matrix" values="0 0 0 0 0 0 0 0 0 0 0 0 0 0 0 0 0 0 0.25 0"/>
<feBlend mode="normal" in2="shape" result="effect1_innerShadow_91_178"/>
</filter>
<filter id="filter2_f_91_178" x="238.231" y="322.731" width="11.0657" height="11.0623" filterUnits="userSpaceOnUse" color-interpolation-filters="sRGB">
<feFlood flood-opacity="0" result="BackgroundImageFix"/>
<feBlend mode="normal" in="SourceGraphic" in2="BackgroundImageFix" result="shape"/>
<feGaussianBlur stdDeviation="1" result="effect1_foregroundBlur_91_178"/>
</filter>
<filter id="filter3_f_91_178" x="323.019" y="322.731" width="11.0657" height="11.0623" filterUnits="userSpaceOnUse" color-interpolation-filters="sRGB">
<feFlood flood-opacity="0" result="BackgroundImageFix"/>
<feBlend mode="normal" in="SourceGraphic" in2="BackgroundImageFix" result="shape"/>
<feGaussianBlur stdDeviation="1" result="effect1_foregroundBlur_91_178"/>
</filter>
<filter id="filter4_i_91_178" x="260.419" y="305.563" width="53.4971" height="16.1064" filterUnits="userSpaceOnUse" color-interpolation-filters="sRGB">
<feFlood flood-opacity="0" result="BackgroundImageFix"/>
<feBlend mode="normal" in="SourceGraphic" in2="BackgroundImageFix" result="shape"/>
<feColorMatrix in="SourceAlpha" type="matrix" values="0 0 0 0 0 0 0 0 0 0 0 0 0 0 0 0 0 0 127 0" result="hardAlpha"/>
<feOffset dy="4"/>
<feGaussianBlur stdDeviation="2"/>
<feComposite in2="hardAlpha" operator="arithmetic" k2="-1" k3="1"/>
<feColorMatrix type="matrix" values="0 0 0 0 0 0 0 0 0 0 0 0 0 0 0 0 0 0 0.25 0"/>
<feBlend mode="normal" in2="shape" result="effect1_innerShadow_91_178"/>
</filter>
<filter id="filter5_i_91_178" x="134.164" y="200.576" width="7.37598" height="12.6401" filterUnits="userSpaceOnUse" color-interpolation-filters="sRGB">
<feFlood flood-opacity="0" result="BackgroundImageFix"/>
<feBlend mode="normal" in="SourceGraphic" in2="BackgroundImageFix" result="shape"/>
<feColorMatrix in="SourceAlpha" type="matrix" values="0 0 0 0 0 0 0 0 0 0 0 0 0 0 0 0 0 0 127 0" result="hardAlpha"/>
<feOffset dy="3"/>
<feGaussianBlur stdDeviation="2"/>
<feComposite in2="hardAlpha" operator="arithmetic" k2="-1" k3="1"/>
<feColorMatrix type="matrix" values="0 0 0 0 0 0 0 0 0 0 0 0 0 0 0 0 0 0 0.19 0"/>
<feBlend mode="normal" in2="shape" result="effect1_innerShadow_91_178"/>
</filter>
<filter id="filter6_di_91_178" x="582.428" y="319.705" width="27.1782" height="36.2485" filterUnits="userSpaceOnUse" color-interpolation-filters="sRGB">
<feFlood flood-opacity="0" result="BackgroundImageFix"/>
<feColorMatrix in="SourceAlpha" type="matrix" values="0 0 0 0 0 0 0 0 0 0 0 0 0 0 0 0 0 0 127 0" result="hardAlpha"/>
<feOffset dx="2" dy="2"/>
<feGaussianBlur stdDeviation="2"/>
<feComposite in2="hardAlpha" operator="out"/>
<feColorMatrix type="matrix" values="0 0 0 0 0 0 0 0 0 0 0 0 0 0 0 0 0 0 0.63 0"/>
<feBlend mode="normal" in2="BackgroundImageFix" result="effect1_dropShadow_91_178"/>
<feBlend mode="normal" in="SourceGraphic" in2="effect1_dropShadow_91_178" result="shape"/>
<feColorMatrix in="SourceAlpha" type="matrix" values="0 0 0 0 0 0 0 0 0 0 0 0 0 0 0 0 0 0 127 0" result="hardAlpha"/>
<feMorphology radius="1" operator="dilate" in="SourceAlpha" result="effect2_innerShadow_91_178"/>
<feOffset dx="4" dy="4"/>
<feGaussianBlur stdDeviation="1"/>
<feComposite in2="hardAlpha" operator="arithmetic" k2="-1" k3="1"/>
<feColorMatrix type="matrix" values="0 0 0 0 1 0 0 0 0 1 0 0 0 0 1 0 0 0 1 0"/>
<feBlend mode="normal" in2="shape" result="effect2_innerShadow_91_178"/>
</filter>
<filter id="filter7_di_91_178" x="393.675" y="319.705" width="29.197" height="38.2664" filterUnits="userSpaceOnUse" color-interpolation-filters="sRGB">
<feFlood flood-opacity="0" result="BackgroundImageFix"/>
<feColorMatrix in="SourceAlpha" type="matrix" values="0 0 0 0 0 0 0 0 0 0 0 0 0 0 0 0 0 0 127 0" result="hardAlpha"/>
<feOffset dx="2" dy="2"/>
<feGaussianBlur stdDeviation="2"/>
<feComposite in2="hardAlpha" operator="out"/>
<feColorMatrix type="matrix" values="0 0 0 0 0 0 0 0 0 0 0 0 0 0 0 0 0 0 0.63 0"/>
<feBlend mode="normal" in2="BackgroundImageFix" result="effect1_dropShadow_91_178"/>
<feBlend mode="normal" in="SourceGraphic" in2="effect1_dropShadow_91_178" result="shape"/>
<feColorMatrix in="SourceAlpha" type="matrix" values="0 0 0 0 0 0 0 0 0 0 0 0 0 0 0 0 0 0 127 0" result="hardAlpha"/>
<feMorphology radius="1" operator="dilate" in="SourceAlpha" result="effect2_innerShadow_91_178"/>
<feOffset dx="4" dy="4"/>
<feGaussianBlur stdDeviation="1"/>
<feComposite in2="hardAlpha" operator="arithmetic" k2="-1" k3="1"/>
<feColorMatrix type="matrix" values="0 0 0 0 1 0 0 0 0 1 0 0 0 0 1 0 0 0 1 0"/>
<feBlend mode="normal" in2="shape" result="effect2_innerShadow_91_178"/>
</filter>
<linearGradient id="paint0_linear_91_178" x1="595.027" y1="199.631" x2="344.737" y2="301.614" gradientUnits="userSpaceOnUse">
<stop stop-color="#B72951"/>
<stop offset="1" stop-color="#AE2D5C"/>
</linearGradient>
<linearGradient id="paint1_linear_91_178" x1="584.933" y1="195.091" x2="210.011" y2="360.684" gradientUnits="userSpaceOnUse">
<stop stop-color="#C62D65"/>
<stop offset="1" stop-color="#EF6F9E"/>
</linearGradient>
<linearGradient id="paint2_linear_91_178" x1="340.159" y1="208.71" x2="415.329" y2="267.261" gradientUnits="userSpaceOnUse">
<stop stop-color="#327467"/>
<stop offset="1" stop-color="#8BE9D6"/>
</linearGradient>
<linearGradient id="paint3_linear_91_178" x1="470.874" y1="210.728" x2="470.874" y2="267.73" gradientUnits="userSpaceOnUse">
<stop stop-color="#14C5A1"/>
<stop offset="1" stop-color="#248C77"/>
</linearGradient>
<linearGradient id="paint4_linear_91_178" x1="546.072" y1="210.728" x2="546.072" y2="267.73" gradientUnits="userSpaceOnUse">
<stop stop-color="#14C5A1"/>
<stop offset="1" stop-color="#248C77"/>
</linearGradient>
<linearGradient id="paint5_linear_91_178" x1="125.077" y1="241.94" x2="125.077" y2="275.233" gradientUnits="userSpaceOnUse">
<stop stop-color="#0F81E4"/>
<stop offset="1" stop-color="#0FA4E4"/>
</linearGradient>
<linearGradient id="paint6_linear_91_178" x1="125.332" y1="260.604" x2="125.332" y2="367.041" gradientUnits="userSpaceOnUse">
<stop stop-color="#472999"/>
<stop offset="1" stop-color="#5D37C5"/>
</linearGradient>
<linearGradient id="paint7_linear_91_178" x1="147.79" y1="202.594" x2="162.917" y2="251.528" gradientUnits="userSpaceOnUse">
<stop stop-color="#1084F8"/>
<stop offset="1" stop-color="#71A9E0"/>
</linearGradient>
<linearGradient id="paint8_linear_91_178" x1="120.537" y1="163.752" x2="131.986" y2="192.034" gradientUnits="userSpaceOnUse">
<stop stop-color="#1D153C"/>
<stop offset="1" stop-color="#A697E1"/>
</linearGradient>
<linearGradient id="paint9_linear_91_178" x1="146.276" y1="183.425" x2="116.507" y2="201.093" gradientUnits="userSpaceOnUse">
<stop offset="0.675" stop-color="#FFAAAC"/>
<stop offset="1" stop-color="#782929"/>
</linearGradient>
<linearGradient id="paint10_linear_91_178" x1="88.7416" y1="157.194" x2="72.6019" y2="178.892" gradientUnits="userSpaceOnUse">
<stop stop-color="#FF96BD"/>
<stop offset="1" stop-color="#B62951"/>
</linearGradient>
<linearGradient id="paint11_linear_91_178" x1="102.368" y1="174.345" x2="81.1801" y2="192.515" gradientUnits="userSpaceOnUse">
<stop stop-color="#CFC1E2"/>
<stop offset="1" stop-color="#A4A2F5"/>
</linearGradient>
<linearGradient id="paint12_linear_91_178" x1="147.286" y1="242.949" x2="132.656" y2="255.063" gradientUnits="userSpaceOnUse">
<stop stop-color="#A78C33"/>
<stop offset="0.772213" stop-color="#FAA804"/>
</linearGradient>
<linearGradient id="paint13_linear_91_178" x1="0.33169" y1="5.12141" x2="16.3021" y2="18.7566" gradientUnits="userSpaceOnUse">
<stop stop-color="#FDAEAB"/>
<stop offset="1" stop-color="#DCBEBD"/>
</linearGradient>
<linearGradient id="paint14_linear_91_178" x1="10.6527" y1="0" x2="10.6527" y2="21.6832" gradientUnits="userSpaceOnUse">
<stop stop-color="#E3BAB9"/>
<stop offset="1" stop-color="#C2A4A3"/>
</linearGradient>
<linearGradient id="paint15_linear_91_178" x1="145.266" y1="241.94" x2="130.637" y2="256.071" gradientUnits="userSpaceOnUse">
<stop stop-color="#FFD448"/>
<stop offset="1" stop-color="#58460C"/>
</linearGradient>
</defs>
</svg>
