<svg width="32" height="23" viewBox="0 0 32 23" fill="none" xmlns="http://www.w3.org/2000/svg">
<path d="M27.2643 14.071C21.2176 6.12361 10.8928 5.82395 4.71169 14.0899C4.25668 14.6984 4.23481 15.5314 4.67486 16.1508C10.0496 23.7162 21.4844 24.1742 27.2955 16.167C27.7506 15.5398 27.7336 14.6877 27.2643 14.071Z" stroke="#333437" stroke-width="1.4"/>
<circle cx="16" cy="15" r="3.3" stroke="#333437" stroke-width="1.4"/>
<path d="M1 8L3.82843 10.8284" stroke="#333437" stroke-width="1.4" stroke-linecap="round"/>
<path d="M1 8L3.82843 10.8284" stroke="#333437" stroke-width="1.4" stroke-linecap="round"/>
<path d="M1 8L3.82843 10.8284" stroke="#333437" stroke-width="1.4" stroke-linecap="round"/>
<path d="M24 6.62523L25.6905 3" stroke="#333437" stroke-width="1.4" stroke-linecap="round"/>
<path d="M24 6.62523L25.6905 3" stroke="#333437" stroke-width="1.4" stroke-linecap="round"/>
<path d="M24 6.62523L25.6905 3" stroke="#333437" stroke-width="1.4" stroke-linecap="round"/>
<path d="M6.75623 3.09482L8.4467 6.72005" stroke="#333437" stroke-width="1.4" stroke-linecap="round"/>
<path d="M6.75623 3.09482L8.4467 6.72005" stroke="#333437" stroke-width="1.4" stroke-linecap="round"/>
<path d="M6.75623 3.09482L8.4467 6.72005" stroke="#333437" stroke-width="1.4" stroke-linecap="round"/>
<path d="M28 10.8284L30.8284 8" stroke="#333437" stroke-width="1.4" stroke-linecap="round"/>
<path d="M28 10.8284L30.8284 8" stroke="#333437" stroke-width="1.4" stroke-linecap="round"/>
<path d="M28 10.8284L30.8284 8" stroke="#333437" stroke-width="1.4" stroke-linecap="round"/>
<path d="M16 5V1" stroke="#333437" stroke-width="1.4" stroke-linecap="round"/>
<path d="M16 5V1" stroke="#333437" stroke-width="1.4" stroke-linecap="round"/>
<path d="M16 5V1" stroke="#333437" stroke-width="1.4" stroke-linecap="round"/>
</svg>
