<svg width="26" height="26" viewBox="0 0 26 26" fill="none" xmlns="http://www.w3.org/2000/svg">
<path d="M23.1818 24.964C10.4545 23.8579 2.09091 14.641 1 2.47471C1 1.29494 1.72727 1 2.09091 1H7.54545C8.41818 1 8.87879 2.22892 9 2.84338C9.12121 3.45784 9.43636 4.98171 9.72727 6.16147C10.0182 7.34124 9.84848 8.12775 9.72727 8.37353L7.18182 10.9543C8.05455 14.1986 13.1212 17.4676 15.5455 18.6965C16.2727 17.4676 18.0909 15.7471 19.1818 16.1157C20.9067 16.6987 23.1818 17.2218 23.9091 17.2218C24.4909 17.2218 24.8788 18.2049 25 18.6965V23.4893C25 24.964 23.7879 25.0869 23.1818 24.964Z" stroke="#BBBBBB" stroke-opacity="0.81"/>
</svg>
