<svg width="17" height="18" viewBox="0 0 17 18" fill="none" xmlns="http://www.w3.org/2000/svg">
<path fill-rule="evenodd" clip-rule="evenodd" d="M1.07388 8.17444C0.521597 8.17444 0.0738816 8.62215 0.0738816 9.17444C0.0738815 9.72672 0.521597 10.1744 1.07388 10.1744L7.48539 10.1744L7.48539 16.5856C7.48539 17.1379 7.9331 17.5856 8.48539 17.5856C9.03767 17.5856 9.48539 17.1379 9.48539 16.5856L9.48539 10.1744L15.8964 10.1744C16.4487 10.1744 16.8964 9.72672 16.8964 9.17444C16.8964 8.62216 16.4487 8.17444 15.8964 8.17444L9.48539 8.17444L9.48539 1.76313C9.48539 1.21085 9.03767 0.763133 8.48539 0.763133C7.9331 0.763133 7.48539 1.21085 7.48539 1.76313L7.48539 8.17444L1.07388 8.17444Z" fill="url(#paint0_linear_79_60)"/>
<defs>
<linearGradient id="paint0_linear_79_60" x1="4.07248" y1="4.76163" x2="12.898" y2="13.5872" gradientUnits="userSpaceOnUse">
<stop stop-color="#29D4A1"/>
<stop offset="1" stop-color="#188EA6"/>
</linearGradient>
</defs>
</svg>
