<svg width="17" height="17" viewBox="0 0 17 17" fill="none" xmlns="http://www.w3.org/2000/svg">
<path fill-rule="evenodd" clip-rule="evenodd" d="M1.45712 7.63452C0.904837 7.63452 0.457121 8.08224 0.457121 8.63452C0.457121 9.18681 0.904837 9.63452 1.45712 9.63452L7.52909 9.63452L7.52909 15.7063C7.52909 16.2586 7.9768 16.7063 8.52909 16.7063C9.08137 16.7063 9.52909 16.2586 9.52909 15.7063L9.52909 9.63452L15.6007 9.63452C16.153 9.63452 16.6007 9.18681 16.6007 8.63452C16.6007 8.08224 16.153 7.63452 15.6007 7.63452L9.52909 7.63452L9.52909 1.56269C9.52909 1.01041 9.08137 0.562694 8.52909 0.562693C7.9768 0.562694 7.52909 1.01041 7.52909 1.56269L7.52909 7.63452L1.45712 7.63452Z" fill="#29292C"/>
</svg>
