<svg width="22" height="20" viewBox="0 0 22 20" fill="none" xmlns="http://www.w3.org/2000/svg">
<path d="M10.5888 3.38668L10.9846 4.13788L11.4495 3.42743C12.7163 1.4919 14.4968 0.523426 16.1886 0.500422C17.8684 0.477581 19.5529 1.3847 20.6599 3.39482C22.0743 5.96304 21.642 8.82204 19.8124 11.6649C18.0161 14.4561 14.902 17.1713 11.0341 19.4212C7.04065 17.0494 3.90209 14.4287 2.12308 11.7184C0.32503 8.97903 -0.0707861 6.18096 1.40068 3.39828C2.50288 1.54317 4.30561 0.596256 6.06792 0.577278C7.82653 0.558341 9.57472 1.46182 10.5888 3.38668Z" stroke="url(#paint0_linear_86_64)" stroke-linecap="round"/>
<defs>
<linearGradient id="paint0_linear_86_64" x1="-4.58333" y1="-4" x2="20.2344" y2="17.8396" gradientUnits="userSpaceOnUse">
<stop stop-color="#53E9B3"/>
<stop offset="1" stop-color="#109766"/>
</linearGradient>
</defs>
</svg>
