<svg width="30" height="30" viewBox="0 0 30 30" fill="none" xmlns="http://www.w3.org/2000/svg">
<path fill-rule="evenodd" clip-rule="evenodd" d="M4.45497 10.7045V6.48389C4.45497 6.42588 4.45942 6.36829 4.47172 6.3116C4.61221 5.66422 5.1464 4.51898 6.32447 4.51898H10.7233L13.6925 1.53669C14.0591 1.13169 15.0781 0.56469 16.2218 1.53669C17.1833 2.3538 18.2639 3.48834 18.8887 4.17914C19.0827 4.39356 19.357 4.51898 19.6461 4.51898H23.6998C24.323 4.59261 25.5693 5.07125 25.5693 6.39671V10.7045L28.4777 13.6256C28.5182 13.6663 28.5553 13.7097 28.5862 13.7581C28.9279 14.2924 29.3367 15.4385 28.5385 16.2824C27.815 17.0474 26.5996 18.2539 25.8701 18.9703C25.6778 19.1591 25.5693 19.4167 25.5693 19.6861V23.6277C25.5876 24.2536 25.2394 25.5054 23.6998 25.5054H19.191L16.2218 28.4877C15.7636 28.8743 14.6162 29.4155 13.6925 28.4877L10.7233 25.5054H6.32447C5.7013 25.4686 4.45497 25.0415 4.45497 23.6277V19.2647L1.53798 16.3349C1.50322 16.3 1.47091 16.263 1.44314 16.2223C1.08197 15.6929 0.63965 14.5366 1.48576 13.6867L4.45497 10.7045ZM14.9572 8.94308C14.9572 8.3908 15.4097 7.93627 15.9586 7.99737C24.1796 8.91251 24.092 21.1008 15.9586 22.0258C15.4099 22.0882 14.9572 21.6336 14.9572 21.0813V8.94308Z" fill="#05080E"/>
<path d="M4.45497 10.7045V6.48389C4.45497 6.42588 4.45942 6.36829 4.47172 6.3116C4.61221 5.66422 5.1464 4.51898 6.32447 4.51898M4.45497 10.7045C3.8318 11.3304 2.36553 12.8031 1.48576 13.6867M4.45497 10.7045L1.48576 13.6867M6.32447 4.51898C7.55614 4.51898 9.77021 4.51898 10.7233 4.51898M6.32447 4.51898H10.7233M10.7233 4.51898L13.6925 1.53669C14.0591 1.13169 15.0781 0.56469 16.2218 1.53669C17.1833 2.3538 18.2639 3.48834 18.8887 4.17914C19.0827 4.39356 19.357 4.51898 19.6461 4.51898H23.6998C24.323 4.59261 25.5693 5.07125 25.5693 6.39671M25.5693 6.39671C25.5693 7.72217 25.5693 9.82081 25.5693 10.7045M25.5693 6.39671V10.7045M25.5693 10.7045L28.4777 13.6256C28.5182 13.6663 28.5553 13.7097 28.5862 13.7581C28.9279 14.2924 29.3367 15.4385 28.5385 16.2824C27.815 17.0474 26.5996 18.2539 25.8701 18.9703C25.6778 19.1591 25.5693 19.4167 25.5693 19.6861V23.6277C25.5876 24.2536 25.2394 25.5054 23.6998 25.5054M23.6998 25.5054C22.1602 25.5054 20.0525 25.5054 19.191 25.5054M23.6998 25.5054H19.191M19.191 25.5054L16.2218 28.4877C15.7636 28.8743 14.6162 29.4155 13.6925 28.4877M13.6925 28.4877C12.7687 27.5599 11.3281 26.1129 10.7233 25.5054M13.6925 28.4877L10.7233 25.5054M10.7233 25.5054H6.32447C5.7013 25.4686 4.45497 25.0415 4.45497 23.6277M4.45497 23.6277C4.45497 22.2139 4.45497 20.1299 4.45497 19.2647M4.45497 23.6277V19.2647M4.45497 19.2647L1.53798 16.3349C1.50322 16.3 1.47091 16.263 1.44314 16.2223C1.08197 15.6929 0.63965 14.5366 1.48576 13.6867M15.9586 22.0258C24.092 21.1008 24.1796 8.91251 15.9586 7.99737C15.4097 7.93627 14.9572 8.3908 14.9572 8.94308V21.0813C14.9572 21.6336 15.4099 22.0882 15.9586 22.0258Z" stroke="#05080E"/>
</svg>
