<svg width="24" height="24" viewBox="0 0 24 24" fill="none" xmlns="http://www.w3.org/2000/svg">
<path d="M9.02948 13.8972C9.22875 13.7734 10.4183 12.9819 11.5949 12.1911C10.9163 12.8532 10.3084 13.4481 10.1471 13.6125L10.147 13.6127C9.78194 13.9852 9.69171 14.4259 9.81444 14.8252C9.92414 15.182 10.1852 15.4494 10.4229 15.5993L10.4231 15.5994C10.7869 15.8285 13.4571 17.6191 13.8524 17.9015C14.3276 18.2413 14.8365 18.4144 15.3302 18.4144C15.7789 18.4144 16.0534 18.1066 16.206 17.8575C16.3602 17.6058 16.4716 17.2858 16.5637 17.0035L16.5638 17.0033C16.6323 16.7927 16.7437 16.2036 16.8689 15.4821C16.9981 14.7371 17.1509 13.7949 17.3006 12.834C17.5987 10.9194 17.8887 8.90425 17.9536 8.22845L17.9536 8.2282C18.0033 7.7072 17.8417 7.19072 17.339 6.94884C17.1447 6.85473 16.9373 6.82269 16.7415 6.82269C16.4067 6.82269 16.0453 6.91632 15.6979 7.04211L15.8681 7.51203L15.6989 7.04175C14.978 7.30113 5.96294 11.1297 5.45808 11.3441L5.45787 11.3442C5.21442 11.4477 4.92943 11.5749 4.70312 11.7331C4.49292 11.8801 4.19463 12.1503 4.19463 12.5727C4.19463 12.8095 4.27402 13.0362 4.46579 13.2196C4.62732 13.3741 4.84061 13.4689 5.04535 13.5419L5.04554 13.542C5.45776 13.6888 6.46711 13.9947 7.06038 14.1583L7.06083 14.1584C7.27801 14.2181 7.49895 14.2435 7.71196 14.2435C8.19972 14.2435 8.68636 14.1104 9.02948 13.8972ZM9.02948 13.8972L8.76767 13.4758L9.02952 13.8972C9.02951 13.8972 9.02949 13.8972 9.02948 13.8972ZM15.6841 7.00131L15.6841 7.00129C16.1193 6.84448 16.4608 6.77921 16.7415 6.77921C16.9811 6.77921 17.186 6.82606 17.3559 6.90796L17.3572 6.90856C17.7915 7.11638 18.06 7.57523 17.9975 8.23178C17.9413 8.81785 17.6584 10.8152 17.3527 12.7859C17.2004 13.7677 17.0435 14.7362 16.9078 15.5105C16.7685 16.3051 16.6592 16.8483 16.6044 17.0168C16.5075 17.3141 16.3823 17.6886 16.1658 17.9911C15.962 18.2759 15.7078 18.4579 15.3302 18.4579C14.836 18.4579 14.3153 18.2863 13.8274 17.9376L13.8269 17.9373C13.4195 17.6469 10.7354 15.8484 10.3998 15.6368L10.3997 15.6368C10.0157 15.3947 9.77202 15.008 9.7269 14.6229L9.72688 14.6226C9.71992 14.5635 9.718 14.5016 9.72069 14.4369L9.75789 13.5443L8.97763 13.9794C8.63362 14.1712 8.17547 14.288 7.71196 14.288C7.4788 14.288 7.25518 14.258 7.04775 14.201C6.45763 14.0386 5.44492 13.7313 5.02956 13.5833C4.68613 13.4606 4.47045 13.308 4.34163 13.1505C4.21859 13.0001 4.15014 12.816 4.15014 12.5727C4.15014 12.2392 4.30529 11.9962 4.55651 11.7892C4.82164 11.5708 5.15442 11.4262 5.44029 11.3047C5.44036 11.3046 5.44044 11.3046 5.44051 11.3046L5.46139 11.2957C6.54468 10.8358 14.978 7.25574 15.6841 7.00131ZM0.5 12C0.5 5.65491 5.6549 0.5 12 0.5C18.3451 0.5 23.5 5.65491 23.5 12C23.5 18.3451 18.3451 23.5 12 23.5C5.6549 23.5 0.5 18.3451 0.5 12ZM23.4565 12C23.4565 5.66656 18.3334 0.543478 12 0.543478C5.66655 0.543478 0.543478 5.66656 0.543478 12C0.543478 18.3334 5.66655 23.4565 12 23.4565C18.3334 23.4565 23.4565 18.3334 23.4565 12Z" stroke="#BBBBBB" stroke-opacity="0.81"/>
</svg>
