<svg width="38" height="46" viewBox="0 0 38 46" fill="none" xmlns="http://www.w3.org/2000/svg">
<path fill-rule="evenodd" clip-rule="evenodd" d="M13.2174 2C13.2174 0.895431 14.1128 0 15.2174 0H22.7826C23.8872 0 24.7826 0.89543 24.7826 2V3.35133H36C37.1046 3.35133 38 4.24676 38 5.35133V8.05404C38 9.1586 37.1046 10.054 36 10.054H2C0.89543 10.054 0 9.1586 0 8.05403V5.35132C0 4.24676 0.895431 3.35133 2 3.35133H13.2174V2ZM0.795915 15.6491C0.631407 13.8896 2.01573 12.3698 3.78289 12.3698H34.5375C36.308 12.3698 37.6934 13.8951 37.5237 15.6574L34.862 43.2877C34.7138 44.826 33.4213 46.0001 31.8758 46.0001H6.36625C4.8176 46.0001 3.52345 44.8213 3.37928 43.2793L0.795915 15.6491ZM17.0686 22.4885C17.0686 21.3834 17.9645 20.4876 19.0696 20.4876C20.1746 20.4876 21.0705 21.3834 21.0705 22.4885V36.0749C21.0705 37.18 20.1746 38.0758 19.0696 38.0758C17.9645 38.0758 17.0686 37.18 17.0686 36.0749V22.4885ZM28.2118 20.4358C27.1094 20.3576 26.1541 21.188 26.0781 22.2905L25.1437 35.8432C25.0677 36.9458 25.8997 37.903 27.0021 37.9812C28.1045 38.0593 29.0598 37.2289 29.1359 36.1264L30.0703 22.5737C30.1463 21.4711 29.3142 20.5139 28.2118 20.4358ZM8.05909 22.6769C7.98307 21.5744 8.81512 20.6172 9.91752 20.539C11.0199 20.4608 11.9752 21.2913 12.0512 22.3938L12.9856 35.9465C13.0617 37.0491 12.2296 38.0062 11.1272 38.0844C10.0248 38.1626 9.06951 37.3322 8.99349 36.2297L8.05909 22.6769Z" fill="url(#paint0_linear_70_86)"/>
<defs>
<linearGradient id="paint0_linear_70_86" x1="1.23913" y1="-5.44595" x2="38.3244" y2="52.3103" gradientUnits="userSpaceOnUse">
<stop stop-color="#FC8181"/>
<stop offset="1" stop-color="#C51414"/>
</linearGradient>
</defs>
</svg>
