<svg width="40" height="40" viewBox="0 0 40 40" fill="none" xmlns="http://www.w3.org/2000/svg">
<rect width="40" height="40" rx="10" fill="url(#paint0_linear_56_86)"/>
<ellipse cx="20.1" cy="14.6001" rx="4.1" ry="4" fill="white"/>
<path d="M12 28.0203V27.0313C12 25.5896 12.3232 24.0918 13.422 23.1584C16.9884 20.1287 23.6618 20.4176 27.0223 23.2174C28.0949 24.111 28.4 25.5631 28.4 26.9591V28.0897C28.4 28.8668 27.7367 29.1536 27.3707 29.1999H12.9607C12.1373 29.1999 12.0229 28.3903 12 28.0203Z" fill="white"/>
<ellipse cx="28.9" cy="17" rx="2.9" ry="2.8" fill="white"/>
<circle cx="11.4" cy="17" r="2.8" fill="white"/>
<path d="M6.20168 28.0361V25.2977C6.60962 23.1069 11.8209 21.4374 10.621 22.5593C9.66918 23.4492 9.66918 24.75 9.66918 25.2977C9.64651 26.3931 9.61479 28.6386 9.66918 28.8576C9.72357 29.0767 9.46521 29.1771 9.32923 29.2H7.35751C6.37845 29.2 6.17902 28.4241 6.20168 28.0361Z" fill="white"/>
<path d="M33.9983 28.0361V25.2977C33.5904 23.1069 28.379 21.4374 29.5789 22.5593C30.5308 23.4492 30.5308 24.75 30.5308 25.2977C30.5535 26.3931 30.5852 28.6386 30.5308 28.8576C30.4764 29.0767 30.7348 29.1771 30.8708 29.2H32.8425C33.8215 29.2 34.021 28.4241 33.9983 28.0361Z" fill="white"/>
<defs>
<linearGradient id="paint0_linear_56_86" x1="0.6" y1="-2.1" x2="40" y2="42.9" gradientUnits="userSpaceOnUse">
<stop stop-color="#76EEA6"/>
<stop offset="1" stop-color="#0D8778"/>
</linearGradient>
</defs>
</svg>
