<svg width="48" height="42" viewBox="0 0 48 42" fill="none" xmlns="http://www.w3.org/2000/svg">
<path fill-rule="evenodd" clip-rule="evenodd" d="M14 2H12C11.4477 2 11 2.44772 11 3V6.06757V8.97748C11 9.52976 11.4477 9.97748 12 9.97748H14C14.5523 9.97748 15 9.52976 15 8.97748V6.06757V3C15 2.44772 14.5523 2 14 2ZM17 6.06757V3C17 1.34315 15.6569 0 14 0H12C10.3431 0 9 1.34315 9 3V6.06757H6C2.68629 6.06757 0 8.75387 0 12.0676V36C0 39.3137 2.68629 42 6 42H42C45.3137 42 48 39.3137 48 36V12.0676C48 8.75386 45.3137 6.06757 42 6.06757H40V3C40 1.34315 38.6569 0 37 0H34C32.3431 0 31 1.34315 31 3V6.06757H17ZM16.9987 9.06757C16.951 10.6827 15.6267 11.9775 14 11.9775H12C10.3733 11.9775 9.04896 10.6827 9.00133 9.06757H6C4.34315 9.06757 3 10.4107 3 12.0676V13.9653H38.4545C39.283 13.9653 39.9545 14.6369 39.9545 15.4653C39.9545 16.2937 39.283 16.9653 38.4545 16.9653H3V36C3 37.6569 4.34315 39 6 39H42C43.6569 39 45 37.6569 45 36V12.0676C45 10.4107 43.6569 9.06757 42 9.06757H39.9987C39.951 10.6827 38.6267 11.9775 37 11.9775H34C32.3733 11.9775 31.049 10.6827 31.0013 9.06757H16.9987ZM33 8.97748C33 9.52976 33.4477 9.97748 34 9.97748H37C37.5523 9.97748 38 9.52976 38 8.97748V6.06757V3C38 2.44772 37.5523 2 37 2H34C33.4477 2 33 2.44772 33 3V6.06757V8.97748ZM9 31.9399C8.44771 31.9399 8 32.3877 8 32.9399V34.9324C8 35.4847 8.44771 35.9324 9 35.9324H11C11.5523 35.9324 12 35.4847 12 34.9324V32.9399C12 32.3877 11.5523 31.9399 11 31.9399H9ZM16 32.9399C16 32.3877 16.4477 31.9399 17 31.9399H19C19.5523 31.9399 20 32.3877 20 32.9399V34.9324C20 35.4847 19.5523 35.9324 19 35.9324H17C16.4477 35.9324 16 35.4847 16 34.9324V32.9399ZM25 31.9399C24.4477 31.9399 24 32.3877 24 32.9399V34.9324C24 35.4847 24.4477 35.9324 25 35.9324H27C27.5523 35.9324 28 35.4847 28 34.9324V32.9399C28 32.3877 27.5523 31.9399 27 31.9399H25ZM32 32.9399C32 32.3877 32.4477 31.9399 33 31.9399H35C35.5523 31.9399 36 32.3877 36 32.9399V34.9324C36 35.4847 35.5523 35.9324 35 35.9324H33C32.4477 35.9324 32 35.4847 32 34.9324V32.9399ZM9 25.9512C8.44771 25.9512 8 26.3989 8 26.9512V28.9437C8 29.496 8.44771 29.9437 9 29.9437H11C11.5523 29.9437 12 29.496 12 28.9437V26.9512C12 26.3989 11.5523 25.9512 11 25.9512H9ZM16 26.9512C16 26.3989 16.4477 25.9512 17 25.9512H19C19.5523 25.9512 20 26.3989 20 26.9512V28.9437C20 29.496 19.5523 29.9437 19 29.9437H17C16.4477 29.9437 16 29.496 16 28.9437V26.9512ZM25 25.9512C24.4477 25.9512 24 26.3989 24 26.9512V28.9437C24 29.496 24.4477 29.9437 25 29.9437H27C27.5523 29.9437 28 29.496 28 28.9437V26.9512C28 26.3989 27.5523 25.9512 27 25.9512H25ZM32 26.9512C32 26.3989 32.4477 25.9512 33 25.9512H35C35.5523 25.9512 36 26.3989 36 26.9512V28.9437C36 29.496 35.5523 29.9437 35 29.9437H33C32.4477 29.9437 32 29.496 32 28.9437V26.9512ZM9 19.9625C8.44771 19.9625 8 20.4102 8 20.9625V22.955C8 23.5072 8.44771 23.955 9 23.955H11C11.5523 23.955 12 23.5072 12 22.955V20.9625C12 20.4102 11.5523 19.9625 11 19.9625H9ZM16 20.9625C16 20.4102 16.4477 19.9625 17 19.9625H19C19.5523 19.9625 20 20.4102 20 20.9625V22.955C20 23.5072 19.5523 23.955 19 23.955H17C16.4477 23.955 16 23.5072 16 22.955V20.9625ZM25 19.9625C24.4477 19.9625 24 20.4102 24 20.9625V22.955C24 23.5072 24.4477 23.955 25 23.955H27C27.5523 23.955 28 23.5072 28 22.955V20.9625C28 20.4102 27.5523 19.9625 27 19.9625H25ZM32 20.9625C32 20.4102 32.4477 19.9625 33 19.9625H35C35.5523 19.9625 36 20.4102 36 20.9625V22.955C36 23.5072 35.5523 23.955 35 23.955H33C32.4477 23.955 32 23.5072 32 22.955V20.9625Z" fill="url(#paint0_linear_70_74)"/>
<defs>
<linearGradient id="paint0_linear_70_74" x1="5" y1="-8.99967e-07" x2="46.4211" y2="41.999" gradientUnits="userSpaceOnUse">
<stop stop-color="#CBAA00"/>
<stop offset="1" stop-color="#CA1D3C"/>
</linearGradient>
</defs>
</svg>
